<svg width="297" height="20" viewBox="0 0 297 20" fill="none" xmlns="http://www.w3.org/2000/svg">
<path d="M2.25 14.25C2.25 12.5931 4.26472 11.25 6.75 11.25C9.23528 11.25 11.25 12.5931 11.25 14.25" stroke="#1C1C1E" stroke-width="1.5" stroke-linecap="round" stroke-linejoin="round"/>
<path d="M15.75 7.5L12.75 10.5L11.25 9" stroke="#1C1C1E" stroke-width="1.5" stroke-linecap="round" stroke-linejoin="round"/>
<path d="M6.75 9C8.40685 9 9.75 7.65685 9.75 6C9.75 4.34315 8.40685 3 6.75 3C5.09315 3 3.75 4.34315 3.75 6C3.75 7.65685 5.09315 9 6.75 9Z" stroke="#1C1C1E" stroke-width="1.5" stroke-linecap="round" stroke-linejoin="round"/>
<path d="M25.5273 16V4.02197H32.7988V5.3667H27.0215V9.48389H32.3257V10.812H27.0215V16H25.5273ZM38.7505 16.1577C37.9038 16.1577 37.1706 15.9723 36.5508 15.6016C35.9365 15.2253 35.4606 14.6912 35.123 13.9995C34.791 13.3078 34.625 12.486 34.625 11.5342V11.5176C34.625 10.5602 34.791 9.73568 35.123 9.04395C35.4606 8.35221 35.9365 7.82096 36.5508 7.4502C37.1706 7.07943 37.9038 6.89404 38.7505 6.89404C39.6027 6.89404 40.3359 7.07943 40.9502 7.4502C41.5645 7.82096 42.0376 8.35221 42.3696 9.04395C42.7072 9.73568 42.876 10.5602 42.876 11.5176V11.5342C42.876 12.486 42.7072 13.3078 42.3696 13.9995C42.0376 14.6912 41.5645 15.2253 40.9502 15.6016C40.3359 15.9723 39.6027 16.1577 38.7505 16.1577ZM38.7505 14.8794C39.3149 14.8794 39.7936 14.7466 40.1865 14.481C40.5794 14.2153 40.8783 13.8335 41.083 13.3354C41.2933 12.8374 41.3984 12.237 41.3984 11.5342V11.5176C41.3984 10.8092 41.2933 10.2061 41.083 9.70801C40.8783 9.20996 40.5794 8.83089 40.1865 8.5708C39.7936 8.30518 39.3149 8.17236 38.7505 8.17236C38.186 8.17236 37.7074 8.30518 37.3145 8.5708C36.9215 8.83089 36.62 9.20996 36.4097 9.70801C36.2049 10.2061 36.1025 10.8092 36.1025 11.5176V11.5342C36.1025 12.237 36.2049 12.8374 36.4097 13.3354C36.62 13.8335 36.9215 14.2153 37.3145 14.481C37.7074 14.7466 38.186 14.8794 38.7505 14.8794ZM45.2002 16V3.49902H46.6445V16H45.2002ZM49.5 16V3.49902H50.9443V16H49.5ZM57.394 16.1577C56.5474 16.1577 55.8141 15.9723 55.1943 15.6016C54.5801 15.2253 54.1042 14.6912 53.7666 13.9995C53.4346 13.3078 53.2686 12.486 53.2686 11.5342V11.5176C53.2686 10.5602 53.4346 9.73568 53.7666 9.04395C54.1042 8.35221 54.5801 7.82096 55.1943 7.4502C55.8141 7.07943 56.5474 6.89404 57.394 6.89404C58.2463 6.89404 58.9795 7.07943 59.5938 7.4502C60.208 7.82096 60.6812 8.35221 61.0132 9.04395C61.3507 9.73568 61.5195 10.5602 61.5195 11.5176V11.5342C61.5195 12.486 61.3507 13.3078 61.0132 13.9995C60.6812 14.6912 60.208 15.2253 59.5938 15.6016C58.9795 15.9723 58.2463 16.1577 57.394 16.1577ZM57.394 14.8794C57.9585 14.8794 58.4372 14.7466 58.8301 14.481C59.223 14.2153 59.5218 13.8335 59.7266 13.3354C59.9368 12.8374 60.042 12.237 60.042 11.5342V11.5176C60.042 10.8092 59.9368 10.2061 59.7266 9.70801C59.5218 9.20996 59.223 8.83089 58.8301 8.5708C58.4372 8.30518 57.9585 8.17236 57.394 8.17236C56.8296 8.17236 56.3509 8.30518 55.958 8.5708C55.5651 8.83089 55.2635 9.20996 55.0532 9.70801C54.8485 10.2061 54.7461 10.8092 54.7461 11.5176V11.5342C54.7461 12.237 54.8485 12.8374 55.0532 13.3354C55.2635 13.8335 55.5651 14.2153 55.958 14.481C56.3509 14.7466 56.8296 14.8794 57.394 14.8794ZM65.1553 16L62.6484 7.05176H64.0928L65.8525 14.207H65.9854L67.9858 7.05176H69.3555L71.356 14.207H71.4888L73.2485 7.05176H74.6846L72.1777 16H70.7251L68.7246 9.07715H68.5918L66.5996 16H65.1553ZM76.627 16V7.05176H78.0713V16H76.627ZM77.3574 5.3252C77.0863 5.3252 76.8511 5.22835 76.6519 5.03467C76.4582 4.83545 76.3613 4.60026 76.3613 4.3291C76.3613 4.05241 76.4582 3.81722 76.6519 3.62354C76.8511 3.42985 77.0863 3.33301 77.3574 3.33301C77.6341 3.33301 77.8693 3.42985 78.063 3.62354C78.2567 3.81722 78.3535 4.05241 78.3535 4.3291C78.3535 4.60026 78.2567 4.83545 78.063 5.03467C77.8693 5.22835 77.6341 5.3252 77.3574 5.3252ZM80.7939 16V7.05176H82.2383V8.39648H82.3711C82.598 7.92057 82.9245 7.55257 83.3506 7.29248C83.7767 7.02686 84.319 6.89404 84.9775 6.89404C85.9847 6.89404 86.7567 7.1818 87.2935 7.75732C87.8358 8.32731 88.1069 9.14355 88.1069 10.2061V16H86.6626V10.5547C86.6626 9.74674 86.491 9.14909 86.1479 8.76172C85.8104 8.36882 85.2847 8.17236 84.5708 8.17236C84.0949 8.17236 83.6826 8.27474 83.334 8.47949C82.9854 8.68424 82.7142 8.97477 82.5205 9.35107C82.3324 9.72738 82.2383 10.1784 82.2383 10.7041V16H80.7939ZM94.4072 19.1543C93.6878 19.1543 93.0597 19.0519 92.5229 18.8472C91.9862 18.6479 91.5573 18.363 91.2363 17.9922C90.9209 17.627 90.7244 17.2008 90.647 16.7139L90.6636 16.7056H92.1577L92.166 16.7139C92.2435 17.0514 92.4759 17.3281 92.8633 17.5439C93.2507 17.7653 93.7653 17.876 94.4072 17.876C95.2096 17.876 95.835 17.6934 96.2832 17.3281C96.737 16.9684 96.9639 16.4593 96.9639 15.8008V13.9912H96.8311C96.6429 14.3177 96.4077 14.5972 96.1255 14.8296C95.8433 15.062 95.5251 15.2391 95.1709 15.3608C94.8167 15.4771 94.4349 15.5352 94.0254 15.5352C93.2562 15.5352 92.5894 15.3525 92.0249 14.9873C91.466 14.6165 91.0343 14.1074 90.73 13.46C90.4256 12.8125 90.2734 12.071 90.2734 11.2354V11.2188C90.2734 10.3831 90.4256 9.6416 90.73 8.99414C91.0399 8.34115 91.4771 7.82926 92.0415 7.4585C92.606 7.08219 93.2783 6.89404 94.0586 6.89404C94.4792 6.89404 94.8665 6.96045 95.2207 7.09326C95.5749 7.22607 95.8875 7.41423 96.1587 7.65771C96.4354 7.9012 96.665 8.19173 96.8477 8.5293H96.9473V7.05176H98.3916V15.8755C98.3916 16.5396 98.2284 17.1178 97.9019 17.6104C97.5809 18.1029 97.1216 18.4819 96.5239 18.7476C95.9263 19.0187 95.2207 19.1543 94.4072 19.1543ZM94.3408 14.2568C94.8942 14.2568 95.3674 14.1296 95.7603 13.875C96.1587 13.6149 96.4631 13.258 96.6733 12.8042C96.8892 12.3504 96.9971 11.8275 96.9971 11.2354V11.2188C96.9971 10.6266 96.8892 10.1009 96.6733 9.6416C96.4631 9.18229 96.1587 8.82259 95.7603 8.5625C95.3674 8.30241 94.8942 8.17236 94.3408 8.17236C93.7874 8.17236 93.3171 8.30241 92.9297 8.5625C92.5479 8.82259 92.2546 9.18229 92.0498 9.6416C91.8506 10.1009 91.751 10.6266 91.751 11.2188V11.2354C91.751 11.8275 91.8506 12.3504 92.0498 12.8042C92.2546 13.258 92.5479 13.6149 92.9297 13.875C93.3171 14.1296 93.7874 14.2568 94.3408 14.2568Z" fill="#1C1C1E"/>
<path d="M107.212 16V14.3149L111.072 10.5049C111.636 9.96257 112.073 9.51709 112.383 9.16846C112.693 8.81429 112.909 8.50716 113.031 8.24707C113.153 7.98145 113.213 7.70752 113.213 7.42529V7.40039C113.213 7.05729 113.139 6.7557 112.989 6.49561C112.845 6.23551 112.635 6.03353 112.358 5.88965C112.082 5.74023 111.752 5.66553 111.371 5.66553C110.983 5.66553 110.64 5.74854 110.341 5.91455C110.042 6.07503 109.81 6.29915 109.644 6.58691C109.478 6.86914 109.395 7.20117 109.395 7.58301V7.62451H107.079L107.071 7.58301C107.071 6.81934 107.256 6.14697 107.627 5.56592C108.003 4.98486 108.521 4.53109 109.179 4.20459C109.843 3.87809 110.612 3.71484 111.487 3.71484C112.311 3.71484 113.036 3.86149 113.662 4.15479C114.292 4.44808 114.785 4.85482 115.139 5.375C115.499 5.89518 115.679 6.50114 115.679 7.19287V7.21777C115.679 7.67155 115.59 8.11702 115.413 8.5542C115.236 8.98584 114.937 9.45345 114.517 9.95703C114.096 10.4606 113.521 11.05 112.79 11.7251L109.901 14.4229L110.574 13.3271V14.4229L109.901 13.9829H115.853V16H107.212ZM121.083 16V6.3877H120.933L117.995 8.42969V6.17188L121.091 4.02197H123.589V16H121.083ZM131.458 16.3071C130.473 16.3071 129.624 16.0526 128.91 15.5435C128.202 15.0288 127.657 14.3011 127.275 13.3604C126.893 12.4196 126.702 11.3045 126.702 10.0151V9.99854C126.702 8.70361 126.893 7.58854 127.275 6.65332C127.657 5.71257 128.202 4.98763 128.91 4.47852C129.624 3.9694 130.473 3.71484 131.458 3.71484C132.449 3.71484 133.299 3.9694 134.007 4.47852C134.715 4.98763 135.26 5.71257 135.642 6.65332C136.024 7.58854 136.215 8.70361 136.215 9.99854V10.0151C136.215 11.3045 136.024 12.4196 135.642 13.3604C135.26 14.3011 134.715 15.0288 134.007 15.5435C133.299 16.0526 132.449 16.3071 131.458 16.3071ZM131.458 14.3232C131.934 14.3232 132.336 14.1517 132.662 13.8086C132.994 13.4655 133.246 12.973 133.417 12.3311C133.595 11.6891 133.683 10.9172 133.683 10.0151V9.99854C133.683 9.09098 133.595 8.31901 133.417 7.68262C133.246 7.04069 132.994 6.55094 132.662 6.21338C132.336 5.87028 131.934 5.69873 131.458 5.69873C130.988 5.69873 130.587 5.87028 130.255 6.21338C129.928 6.55094 129.677 7.04069 129.5 7.68262C129.328 8.31901 129.242 9.09098 129.242 9.99854V10.0151C129.242 10.9172 129.328 11.6891 129.5 12.3311C129.677 12.973 129.928 13.4655 130.255 13.8086C130.587 14.1517 130.988 14.3232 131.458 14.3232Z" fill="#1C1C1E"/>
<path d="M141.802 12.5303L141.71 9.40088H142.109L146.533 4.02197H149.322L144.798 9.45898L143.304 10.7207L141.802 12.5303ZM139.453 16V4.02197H141.959V16H139.453ZM146.625 16L143.014 10.7041L144.815 9.06055L149.629 16H146.625Z" fill="#1C1C1E"/>
<line x1="159.5" y1="2.75" x2="159.5" y2="17.25" stroke="#1C1C1E"/>
<path d="M179.75 12.1699C181.498 12.5818 182.75 13.693 182.75 14.9992" stroke="#1C1C1E" stroke-width="1.5" stroke-linecap="round" stroke-linejoin="round"/>
<path d="M169.25 15C169.25 13.3431 171.265 12 173.75 12C176.235 12 178.25 13.3431 178.25 15" stroke="#1C1C1E" stroke-width="1.5" stroke-linecap="round" stroke-linejoin="round"/>
<path d="M178.25 9.75C179.907 9.75 181.25 8.40685 181.25 6.75C181.25 5.09315 179.907 3.75 178.25 3.75" stroke="#1C1C1E" stroke-width="1.5" stroke-linecap="round" stroke-linejoin="round"/>
<path d="M173.75 9.75C175.407 9.75 176.75 8.40685 176.75 6.75C176.75 5.09315 175.407 3.75 173.75 3.75C172.093 3.75 170.75 5.09315 170.75 6.75C170.75 8.40685 172.093 9.75 173.75 9.75Z" stroke="#1C1C1E" stroke-width="1.5" stroke-linecap="round" stroke-linejoin="round"/>
<path d="M192.527 16V4.02197H199.799V5.3667H194.021V9.48389H199.326V10.812H194.021V16H192.527ZM205.75 16.1577C204.904 16.1577 204.171 15.9723 203.551 15.6016C202.937 15.2253 202.461 14.6912 202.123 13.9995C201.791 13.3078 201.625 12.486 201.625 11.5342V11.5176C201.625 10.5602 201.791 9.73568 202.123 9.04395C202.461 8.35221 202.937 7.82096 203.551 7.4502C204.171 7.07943 204.904 6.89404 205.75 6.89404C206.603 6.89404 207.336 7.07943 207.95 7.4502C208.564 7.82096 209.038 8.35221 209.37 9.04395C209.707 9.73568 209.876 10.5602 209.876 11.5176V11.5342C209.876 12.486 209.707 13.3078 209.37 13.9995C209.038 14.6912 208.564 15.2253 207.95 15.6016C207.336 15.9723 206.603 16.1577 205.75 16.1577ZM205.75 14.8794C206.315 14.8794 206.794 14.7466 207.187 14.481C207.579 14.2153 207.878 13.8335 208.083 13.3354C208.293 12.8374 208.398 12.237 208.398 11.5342V11.5176C208.398 10.8092 208.293 10.2061 208.083 9.70801C207.878 9.20996 207.579 8.83089 207.187 8.5708C206.794 8.30518 206.315 8.17236 205.75 8.17236C205.186 8.17236 204.707 8.30518 204.314 8.5708C203.922 8.83089 203.62 9.20996 203.41 9.70801C203.205 10.2061 203.103 10.8092 203.103 11.5176V11.5342C203.103 12.237 203.205 12.8374 203.41 13.3354C203.62 13.8335 203.922 14.2153 204.314 14.481C204.707 14.7466 205.186 14.8794 205.75 14.8794ZM212.2 16V3.49902H213.645V16H212.2ZM216.5 16V3.49902H217.944V16H216.5ZM224.394 16.1577C223.547 16.1577 222.814 15.9723 222.194 15.6016C221.58 15.2253 221.104 14.6912 220.767 13.9995C220.435 13.3078 220.269 12.486 220.269 11.5342V11.5176C220.269 10.5602 220.435 9.73568 220.767 9.04395C221.104 8.35221 221.58 7.82096 222.194 7.4502C222.814 7.07943 223.547 6.89404 224.394 6.89404C225.246 6.89404 225.979 7.07943 226.594 7.4502C227.208 7.82096 227.681 8.35221 228.013 9.04395C228.351 9.73568 228.52 10.5602 228.52 11.5176V11.5342C228.52 12.486 228.351 13.3078 228.013 13.9995C227.681 14.6912 227.208 15.2253 226.594 15.6016C225.979 15.9723 225.246 16.1577 224.394 16.1577ZM224.394 14.8794C224.958 14.8794 225.437 14.7466 225.83 14.481C226.223 14.2153 226.522 13.8335 226.727 13.3354C226.937 12.8374 227.042 12.237 227.042 11.5342V11.5176C227.042 10.8092 226.937 10.2061 226.727 9.70801C226.522 9.20996 226.223 8.83089 225.83 8.5708C225.437 8.30518 224.958 8.17236 224.394 8.17236C223.83 8.17236 223.351 8.30518 222.958 8.5708C222.565 8.83089 222.264 9.20996 222.053 9.70801C221.848 10.2061 221.746 10.8092 221.746 11.5176V11.5342C221.746 12.237 221.848 12.8374 222.053 13.3354C222.264 13.8335 222.565 14.2153 222.958 14.481C223.351 14.7466 223.83 14.8794 224.394 14.8794ZM232.155 16L229.648 7.05176H231.093L232.853 14.207H232.985L234.986 7.05176H236.355L238.356 14.207H238.489L240.249 7.05176H241.685L239.178 16H237.725L235.725 9.07715H235.592L233.6 16H232.155Z" fill="#1C1C1E"/>
<path d="M255.765 16V13.8003H249.896V11.833C250.201 11.2907 250.508 10.7539 250.818 10.2227C251.128 9.68587 251.44 9.15462 251.756 8.62891C252.077 8.09766 252.395 7.57471 252.71 7.06006C253.031 6.53988 253.352 6.02799 253.673 5.52441C253.994 5.0153 254.315 4.51449 254.636 4.02197H258.156V11.7915H259.716V13.8003H258.156V16H255.765ZM252.154 11.8579H255.815V5.92285H255.682C255.45 6.28255 255.212 6.65055 254.968 7.02686C254.73 7.40316 254.49 7.78776 254.246 8.18066C254.008 8.57357 253.767 8.96924 253.524 9.36768C253.286 9.76058 253.051 10.1562 252.818 10.5547C252.591 10.9476 252.37 11.3377 252.154 11.7251V11.8579ZM266.44 16.3071C265.588 16.3071 264.841 16.1522 264.199 15.8423C263.557 15.5324 263.048 15.1118 262.671 14.5806C262.301 14.0438 262.09 13.4434 262.041 12.7793L262.032 12.6631H264.307L264.323 12.7212C264.384 13.0145 264.509 13.2829 264.697 13.5264C264.89 13.7643 265.137 13.9552 265.436 14.0991C265.734 14.2375 266.072 14.3066 266.448 14.3066C266.88 14.3066 267.259 14.2126 267.585 14.0244C267.912 13.8363 268.167 13.5789 268.349 13.2524C268.537 12.9204 268.631 12.5413 268.631 12.1152V12.0986C268.631 11.6725 268.537 11.2962 268.349 10.9697C268.167 10.6432 267.912 10.3887 267.585 10.2061C267.259 10.0234 266.883 9.93213 266.457 9.93213C266.158 9.93213 265.881 9.9764 265.626 10.0649C265.372 10.1479 265.142 10.2752 264.938 10.4468C264.827 10.5353 264.722 10.6377 264.622 10.7539C264.528 10.8646 264.448 10.9836 264.381 11.1108H262.231L262.788 4.02197H270.275V6.01416H264.738L264.439 9.42578H264.589C264.827 9.02181 265.167 8.70361 265.61 8.47119C266.058 8.23877 266.57 8.12256 267.146 8.12256C267.893 8.12256 268.554 8.29134 269.129 8.62891C269.71 8.96647 270.164 9.43132 270.491 10.0234C270.823 10.61 270.989 11.2852 270.989 12.0488V12.0654C270.989 12.9066 270.795 13.6453 270.408 14.2817C270.026 14.9181 269.492 15.4162 268.806 15.7759C268.125 16.13 267.336 16.3071 266.44 16.3071ZM277.961 16.3071C277.264 16.3071 276.617 16.1826 276.019 15.9336C275.421 15.6846 274.896 15.3055 274.442 14.7964C273.994 14.2873 273.642 13.6453 273.388 12.8706C273.139 12.0959 273.014 11.18 273.014 10.123V10.1064C273.014 8.77279 273.213 7.63005 273.612 6.67822C274.016 5.72087 274.589 4.98763 275.33 4.47852C276.072 3.9694 276.951 3.71484 277.97 3.71484C278.744 3.71484 279.442 3.85596 280.062 4.13818C280.681 4.42041 281.19 4.80501 281.589 5.29199C281.993 5.77897 282.256 6.33512 282.377 6.96045L282.394 7.04346H279.945L279.912 6.96875C279.818 6.71419 279.68 6.49561 279.497 6.31299C279.32 6.12484 279.104 5.97819 278.85 5.87305C278.595 5.7679 278.305 5.71533 277.978 5.71533C277.403 5.71533 276.929 5.88688 276.559 6.22998C276.188 6.57308 275.908 7.03792 275.72 7.62451C275.538 8.2111 275.43 8.86686 275.396 9.5918C275.391 9.6748 275.388 9.75781 275.388 9.84082C275.388 9.91829 275.388 10.0013 275.388 10.0898L275.762 12.0903C275.762 12.5109 275.859 12.89 276.052 13.2275C276.246 13.5651 276.509 13.8335 276.841 14.0327C277.173 14.2264 277.541 14.3232 277.945 14.3232C278.349 14.3232 278.714 14.2264 279.041 14.0327C279.373 13.839 279.635 13.5789 279.829 13.2524C280.028 12.9204 280.128 12.5496 280.128 12.1401V12.1235C280.128 11.703 280.034 11.3322 279.846 11.0112C279.658 10.6847 279.4 10.4274 279.074 10.2393C278.753 10.0511 278.382 9.95703 277.961 9.95703C277.552 9.95703 277.181 10.0483 276.849 10.231C276.517 10.4136 276.251 10.6654 276.052 10.9863C275.859 11.3018 275.762 11.667 275.762 12.082V12.0903H275.264V9.86572H275.554C275.704 9.55583 275.914 9.26807 276.185 9.00244C276.456 8.73682 276.797 8.52376 277.206 8.36328C277.616 8.19727 278.094 8.11426 278.642 8.11426C279.422 8.11426 280.106 8.28304 280.692 8.62061C281.279 8.95817 281.736 9.42301 282.062 10.0151C282.389 10.6073 282.552 11.2824 282.552 12.0405V12.0571C282.552 12.8706 282.355 13.5983 281.962 14.2402C281.575 14.8822 281.035 15.3885 280.344 15.7593C279.658 16.1245 278.863 16.3071 277.961 16.3071Z" fill="#1C1C1E"/>
<path d="M287.802 12.5303L287.71 9.40088H288.109L292.533 4.02197H295.322L290.798 9.45898L289.304 10.7207L287.802 12.5303ZM285.453 16V4.02197H287.959V16H285.453ZM292.625 16L289.014 10.7041L290.815 9.06055L295.629 16H292.625Z" fill="#1C1C1E"/>
</svg>
