<svg width="150" height="44" viewBox="0 0 150 44" fill="none" xmlns="http://www.w3.org/2000/svg">
<rect width="150" height="44" rx="12" fill="#F4F4F5"/>
<path d="M26.5273 28V16.022H33.7988V17.3667H28.0215V21.4839H33.3257V22.812H28.0215V28H26.5273ZM39.6655 28.1577C38.8188 28.1577 38.0856 27.9723 37.4658 27.6016C36.8515 27.2253 36.3756 26.6912 36.038 25.9995C35.706 25.3078 35.54 24.486 35.54 23.5342V23.5176C35.54 22.5602 35.706 21.7357 36.038 21.0439C36.3756 20.3522 36.8515 19.821 37.4658 19.4502C38.0856 19.0794 38.8188 18.894 39.6655 18.894C40.5177 18.894 41.2509 19.0794 41.8652 19.4502C42.4795 19.821 42.9526 20.3522 43.2846 21.0439C43.6222 21.7357 43.791 22.5602 43.791 23.5176V23.5342C43.791 24.486 43.6222 25.3078 43.2846 25.9995C42.9526 26.6912 42.4795 27.2253 41.8652 27.6016C41.2509 27.9723 40.5177 28.1577 39.6655 28.1577ZM39.6655 26.8794C40.2299 26.8794 40.7086 26.7466 41.1015 26.481C41.4944 26.2153 41.7933 25.8335 41.998 25.3354C42.2083 24.8374 42.3134 24.237 42.3134 23.5342V23.5176C42.3134 22.8092 42.2083 22.2061 41.998 21.708C41.7933 21.21 41.4944 20.8309 41.1015 20.5708C40.7086 20.3052 40.2299 20.1724 39.6655 20.1724C39.101 20.1724 38.6224 20.3052 38.2295 20.5708C37.8365 20.8309 37.535 21.21 37.3247 21.708C37.1199 22.2061 37.0175 22.8092 37.0175 23.5176V23.5342C37.0175 24.237 37.1199 24.8374 37.3247 25.3354C37.535 25.8335 37.8365 26.2153 38.2295 26.481C38.6224 26.7466 39.101 26.8794 39.6655 26.8794ZM46.0302 28V15.499H47.4745V28H46.0302ZM50.245 28V15.499H51.6893V28H50.245ZM58.054 28.1577C57.2074 28.1577 56.4741 27.9723 55.8543 27.6016C55.2401 27.2253 54.7642 26.6912 54.4266 25.9995C54.0946 25.3078 53.9286 24.486 53.9286 23.5342V23.5176C53.9286 22.5602 54.0946 21.7357 54.4266 21.0439C54.7642 20.3522 55.2401 19.821 55.8543 19.4502C56.4741 19.0794 57.2074 18.894 58.054 18.894C58.9063 18.894 59.6395 19.0794 60.2537 19.4502C60.868 19.821 61.3412 20.3522 61.6732 21.0439C62.0107 21.7357 62.1795 22.5602 62.1795 23.5176V23.5342C62.1795 24.486 62.0107 25.3078 61.6732 25.9995C61.3412 26.6912 60.868 27.2253 60.2537 27.6016C59.6395 27.9723 58.9063 28.1577 58.054 28.1577ZM58.054 26.8794C58.6185 26.8794 59.0972 26.7466 59.4901 26.481C59.883 26.2153 60.1818 25.8335 60.3866 25.3354C60.5968 24.8374 60.702 24.237 60.702 23.5342V23.5176C60.702 22.8092 60.5968 22.2061 60.3866 21.708C60.1818 21.21 59.883 20.8309 59.4901 20.5708C59.0972 20.3052 58.6185 20.1724 58.054 20.1724C57.4896 20.1724 57.0109 20.3052 56.618 20.5708C56.2251 20.8309 55.9235 21.21 55.7132 21.708C55.5085 22.2061 55.4061 22.8092 55.4061 23.5176V23.5342C55.4061 24.237 55.5085 24.8374 55.7132 25.3354C55.9235 25.8335 56.2251 26.2153 56.618 26.481C57.0109 26.7466 57.4896 26.8794 58.054 26.8794ZM65.7303 28L63.2234 19.0518H64.6678L66.4275 26.207H66.5604L68.5608 19.0518H69.9305L71.931 26.207H72.0638L73.8235 19.0518H75.2596L72.7527 28H71.3001L69.2996 21.0771H69.1668L67.1746 28H65.7303ZM77.117 28V19.0518H78.5613V28H77.117ZM77.8474 17.3252C77.5763 17.3252 77.3411 17.2284 77.1419 17.0347C76.9482 16.8354 76.8513 16.6003 76.8513 16.3291C76.8513 16.0524 76.9482 15.8172 77.1419 15.6235C77.3411 15.4299 77.5763 15.333 77.8474 15.333C78.1241 15.333 78.3593 15.4299 78.553 15.6235C78.7467 15.8172 78.8435 16.0524 78.8435 16.3291C78.8435 16.6003 78.7467 16.8354 78.553 17.0347C78.3593 17.2284 78.1241 17.3252 77.8474 17.3252ZM81.1989 28V19.0518H82.6433V20.3965H82.7761C83.003 19.9206 83.3295 19.5526 83.7556 19.2925C84.1817 19.0269 84.724 18.894 85.3825 18.894C86.3897 18.894 87.1617 19.1818 87.6985 19.7573C88.2408 20.3273 88.5119 21.1436 88.5119 22.2061V28H87.0676V22.5547C87.0676 21.7467 86.896 21.1491 86.5529 20.7617C86.2154 20.3688 85.6897 20.1724 84.9758 20.1724C84.4999 20.1724 84.0876 20.2747 83.739 20.4795C83.3904 20.6842 83.1192 20.9748 82.9255 21.3511C82.7374 21.7274 82.6433 22.1784 82.6433 22.7041V28H81.1989ZM94.7272 31.1543C94.0078 31.1543 93.3797 31.0519 92.8429 30.8472C92.3062 30.6479 91.8773 30.363 91.5563 29.9922C91.2409 29.627 91.0444 29.2008 90.967 28.7139L90.9836 28.7056H92.4777L92.486 28.7139C92.5635 29.0514 92.7959 29.3281 93.1833 29.5439C93.5707 29.7653 94.0853 29.876 94.7272 29.876C95.5296 29.876 96.155 29.6934 96.6032 29.3281C97.057 28.9684 97.2839 28.4593 97.2839 27.8008V25.9912H97.1511C96.9629 26.3177 96.7277 26.5972 96.4455 26.8296C96.1633 27.062 95.8451 27.2391 95.4909 27.3608C95.1367 27.4771 94.7549 27.5352 94.3454 27.5352C93.5762 27.5352 92.9094 27.3525 92.3449 26.9873C91.786 26.6165 91.3543 26.1074 91.05 25.46C90.7456 24.8125 90.5934 24.071 90.5934 23.2354V23.2188C90.5934 22.3831 90.7456 21.6416 91.05 20.9941C91.3599 20.3411 91.7971 19.8293 92.3615 19.4585C92.926 19.0822 93.5983 18.894 94.3786 18.894C94.7992 18.894 95.1865 18.9604 95.5407 19.0933C95.8949 19.2261 96.2075 19.4142 96.4787 19.6577C96.7554 19.9012 96.985 20.1917 97.1677 20.5293H97.2673V19.0518H98.7116V27.8755C98.7116 28.5396 98.5484 29.1178 98.2219 29.6104C97.9009 30.1029 97.4416 30.4819 96.8439 30.7476C96.2463 31.0187 95.5407 31.1543 94.7272 31.1543ZM94.6608 26.2568C95.2142 26.2568 95.6873 26.1296 96.0803 25.875C96.4787 25.6149 96.7831 25.258 96.9933 24.8042C97.2092 24.3504 97.3171 23.8275 97.3171 23.2354V23.2188C97.3171 22.6266 97.2092 22.1009 96.9933 21.6416C96.7831 21.1823 96.4787 20.8226 96.0803 20.5625C95.6873 20.3024 95.2142 20.1724 94.6608 20.1724C94.1074 20.1724 93.6371 20.3024 93.2497 20.5625C92.8679 20.8226 92.5746 21.1823 92.3698 21.6416C92.1706 22.1009 92.071 22.6266 92.071 23.2188V23.2354C92.071 23.8275 92.1706 24.3504 92.3698 24.8042C92.5746 25.258 92.8679 25.6149 93.2497 25.875C93.6371 26.1296 94.1074 26.2568 94.6608 26.2568Z" fill="#18181B"/>
<path d="M122.531 20.5307L117.531 25.5307C117.461 25.6007 117.378 25.6561 117.287 25.694C117.196 25.7318 117.098 25.7513 116.999 25.7513C116.901 25.7513 116.803 25.7318 116.712 25.694C116.621 25.6561 116.538 25.6007 116.468 25.5307L111.468 20.5307C111.327 20.3898 111.248 20.1987 111.248 19.9995C111.248 19.8002 111.327 19.6091 111.468 19.4682C111.609 19.3273 111.8 19.2482 111.999 19.2482C112.199 19.2482 112.39 19.3273 112.531 19.4682L117 23.9376L121.469 19.4676C121.61 19.3267 121.801 19.2476 122.001 19.2476C122.2 19.2476 122.391 19.3267 122.532 19.4676C122.673 19.6085 122.752 19.7996 122.752 19.9989C122.752 20.1981 122.673 20.3892 122.532 20.5301L122.531 20.5307Z" fill="black"/>
</svg>
