<svg width="18" height="20" viewBox="0 0 18 20" fill="none" xmlns="http://www.w3.org/2000/svg">
<path d="M17.75 1.75045V19.0005C17.75 19.1994 17.671 19.3901 17.5303 19.5308C17.3897 19.6714 17.1989 19.7505 17 19.7505C16.8011 19.7505 16.6103 19.6714 16.4697 19.5308C16.329 19.3901 16.25 19.1994 16.25 19.0005V14.5005H11.75C11.5511 14.5005 11.3603 14.4214 11.2197 14.2808C11.079 14.1401 11 13.9494 11 13.7505C11.0348 11.9539 11.2617 10.1662 11.6769 8.41795C12.5938 4.62201 14.3319 2.07764 16.7047 1.06139C16.8187 1.01253 16.9431 0.992738 17.0667 1.00377C17.1903 1.01481 17.3092 1.05633 17.4128 1.12461C17.5164 1.1929 17.6014 1.28581 17.6603 1.39504C17.7191 1.50426 17.7499 1.62638 17.75 1.75045ZM8.73969 1.62764C8.725 1.52916 8.69085 1.43459 8.63923 1.34944C8.5876 1.2643 8.51954 1.19029 8.43902 1.13173C8.35849 1.07316 8.26711 1.03122 8.17021 1.00834C8.0733 0.985468 7.97281 0.982117 7.87459 0.998486C7.77638 1.01485 7.68241 1.05062 7.59816 1.10369C7.51391 1.15675 7.44107 1.22607 7.38389 1.30758C7.32671 1.3891 7.28634 1.48118 7.26512 1.57846C7.2439 1.67575 7.24227 1.77628 7.26031 1.8742L7.98969 6.25045H5.75V1.75045C5.75 1.55154 5.67098 1.36077 5.53033 1.22012C5.38968 1.07947 5.19891 1.00045 5 1.00045C4.80109 1.00045 4.61032 1.07947 4.46967 1.22012C4.32902 1.36077 4.25 1.55154 4.25 1.75045V6.25045H2.01031L2.73969 1.8742C2.75773 1.77628 2.7561 1.67575 2.73488 1.57846C2.71366 1.48118 2.67329 1.3891 2.61611 1.30758C2.55893 1.22607 2.48609 1.15675 2.40184 1.10369C2.31759 1.05062 2.22362 1.01485 2.12541 0.998486C2.02719 0.982117 1.9267 0.985468 1.82979 1.00834C1.73289 1.03122 1.64151 1.07316 1.56098 1.13173C1.48045 1.19029 1.4124 1.2643 1.36077 1.34944C1.30915 1.43459 1.275 1.52916 1.26031 1.62764L0.510313 6.12764C0.503582 6.16823 0.500133 6.2093 0.5 6.25045C0.501499 7.3134 0.878673 8.3416 1.56488 9.15338C2.25108 9.96516 3.20214 10.5083 4.25 10.6867V19.0005C4.25 19.1994 4.32902 19.3901 4.46967 19.5308C4.61032 19.6714 4.80109 19.7505 5 19.7505C5.19891 19.7505 5.38968 19.6714 5.53033 19.5308C5.67098 19.3901 5.75 19.1994 5.75 19.0005V10.6867C6.79786 10.5083 7.74892 9.96516 8.43512 9.15338C9.12133 8.3416 9.4985 7.3134 9.5 6.25045C9.49987 6.2093 9.49642 6.16823 9.48969 6.12764L8.73969 1.62764Z" fill="#A1A1AA"/>
</svg>
