<svg width="36" height="36" viewBox="0 0 36 36" fill="none" xmlns="http://www.w3.org/2000/svg">
<path d="M32.4753 30.9374C32.3766 31.1085 32.2345 31.2505 32.0634 31.3493C31.8924 31.448 31.6983 31.5 31.5008 31.4999H4.5008C4.30342 31.4997 4.10957 31.4476 3.9387 31.3488C3.76784 31.2499 3.62599 31.1079 3.52739 30.9369C3.42878 30.7659 3.3769 30.572 3.37695 30.3746C3.377 30.1773 3.42898 29.9834 3.52767 29.8124C5.66939 26.1098 8.96986 23.4548 12.8216 22.1962C10.9163 21.062 9.4361 19.3337 8.60816 17.2768C7.78021 15.2199 7.65036 12.9481 8.23853 10.8103C8.8267 8.67242 10.1004 6.78675 11.864 5.44284C13.6275 4.09894 15.7835 3.37109 18.0008 3.37109C20.2181 3.37109 22.3741 4.09894 24.1376 5.44284C25.9012 6.78675 27.1749 8.67242 27.7631 10.8103C28.3512 12.9481 28.2214 15.2199 27.3934 17.2768C26.5655 19.3337 25.0853 21.062 23.18 22.1962C27.0317 23.4548 30.3322 26.1098 32.4739 29.8124C32.5729 29.9833 32.6251 30.1773 32.6254 30.3747C32.6256 30.5722 32.5739 30.7663 32.4753 30.9374Z" fill="white"/>
<circle cx="33" cy="3" r="3" fill="#FFC10E"/>
</svg>
