<svg width="30" height="31" viewBox="0 0 30 31" fill="none" xmlns="http://www.w3.org/2000/svg">
<path d="M28.5 7.74902C28.2352 7.88615 27.9268 7.91253 27.6425 7.82235C27.3582 7.73216 27.1214 7.5328 26.9841 7.26808C25.9103 5.14674 24.2849 3.35379 22.2788 2.07761C22.1538 1.99876 22.0455 1.89605 21.9602 1.77535C21.8748 1.65466 21.8141 1.51834 21.7815 1.37417C21.7488 1.23001 21.7449 1.08083 21.7699 0.935148C21.7949 0.789466 21.8484 0.650136 21.9272 0.525113C22.0061 0.400091 22.1088 0.291824 22.2295 0.206495C22.3502 0.121166 22.4865 0.0604445 22.6307 0.0277989C22.7748 -0.00484669 22.924 -0.00877764 23.0697 0.0162305C23.2154 0.0412387 23.3547 0.0946963 23.4797 0.173551C25.8177 1.67055 27.7162 3.76169 28.981 6.23308C29.1181 6.4979 29.1445 6.80634 29.0543 7.0906C28.9641 7.37486 28.7647 7.61169 28.5 7.74902ZM2.02175 7.87558C2.22785 7.8755 2.42997 7.81879 2.60604 7.71166C2.78212 7.60453 2.92538 7.45109 3.02018 7.26808C4.094 5.14674 5.71937 3.35379 7.7255 2.07761C7.97799 1.91836 8.15688 1.66532 8.22281 1.37417C8.28874 1.08302 8.23631 0.777608 8.07706 0.525113C7.9178 0.272619 7.66477 0.0937297 7.37362 0.0277989C7.08247 -0.0381319 6.77705 0.0142967 6.52456 0.173551C4.18653 1.67055 2.28806 3.76169 1.02331 6.23308C0.934486 6.40453 0.891288 6.59596 0.897871 6.78893C0.904454 6.98191 0.960596 7.16995 1.06089 7.33495C1.16119 7.49995 1.30227 7.63635 1.47055 7.73104C1.63883 7.82572 1.82865 7.8755 2.02175 7.87558ZM28.1921 22.4921C28.3914 22.8339 28.497 23.2222 28.4984 23.6179C28.4997 24.0135 28.3968 24.4025 28.1998 24.7456C28.0028 25.0888 27.7189 25.3739 27.3766 25.5723C27.0342 25.7707 26.6457 25.8753 26.25 25.8756H20.5125C20.2543 27.1472 19.5645 28.2904 18.5598 29.1115C17.5552 29.9326 16.2976 30.3812 15 30.3812C13.7025 30.3812 12.4449 29.9326 11.4402 29.1115C10.4356 28.2904 9.74573 27.1472 9.48753 25.8756H3.75003C3.35462 25.8748 2.9664 25.7698 2.62447 25.5713C2.28255 25.3727 1.99899 25.0875 1.80237 24.7444C1.60575 24.4014 1.503 24.0126 1.50448 23.6172C1.50596 23.2217 1.61162 22.8337 1.81081 22.4921C3.07784 20.3054 3.75003 17.1962 3.75003 13.5006C3.75003 10.5169 4.93529 7.65542 7.04508 5.54563C9.15486 3.43585 12.0163 2.25058 15 2.25058C17.9837 2.25058 20.8452 3.43585 22.955 5.54563C25.0648 7.65542 26.25 10.5169 26.25 13.5006C26.25 17.1948 26.9222 20.304 28.1921 22.4921ZM18.181 25.8756H11.8191C12.0522 26.5329 12.4831 27.1018 13.0527 27.5042C13.6224 27.9066 14.3026 28.1226 15 28.1226C15.6974 28.1226 16.3777 27.9066 16.9473 27.5042C17.5169 27.1018 17.9479 26.5329 18.181 25.8756Z" fill="#FFC10E"/>
</svg>
