<svg width="150" height="44" viewBox="0 0 150 44" fill="none" xmlns="http://www.w3.org/2000/svg">
<rect width="150" height="44" rx="12" fill="#FFC10E"/>
<path d="M37.4775 28V16.022H45.1143V17.8232H39.6191V21.3677H44.6411V23.1108H39.6191V28H37.4775ZM51.1054 28.1826C50.2034 28.1826 49.4259 27.9945 48.7729 27.6182C48.1199 27.2363 47.6163 26.694 47.2622 25.9912C46.9135 25.2884 46.7392 24.4473 46.7392 23.4678V23.4512C46.7392 22.4827 46.9163 21.6471 47.2705 20.9443C47.6246 20.236 48.1254 19.6937 48.7729 19.3174C49.4259 18.9411 50.2034 18.7529 51.1054 18.7529C52.0074 18.7529 52.7822 18.9411 53.4296 19.3174C54.0826 19.6937 54.5862 20.2332 54.9404 20.936C55.2946 21.6388 55.4716 22.4772 55.4716 23.4512V23.4678C55.4716 24.4473 55.2946 25.2884 54.9404 25.9912C54.5918 26.694 54.0909 27.2363 53.4379 27.6182C52.7905 27.9945 52.013 28.1826 51.1054 28.1826ZM51.1054 26.5059C51.5813 26.5059 51.9853 26.3869 52.3173 26.1489C52.6549 25.9054 52.9122 25.5596 53.0893 25.1113C53.2664 24.6576 53.3549 24.1125 53.3549 23.4761V23.4595C53.3549 22.8175 53.2664 22.2725 53.0893 21.8242C52.9122 21.3704 52.6549 21.0246 52.3173 20.7866C51.9853 20.5431 51.5813 20.4214 51.1054 20.4214C50.6295 20.4214 50.2228 20.5431 49.8852 20.7866C49.5476 21.0246 49.2903 21.3704 49.1132 21.8242C48.9362 22.2725 48.8476 22.8175 48.8476 23.4595V23.4761C48.8476 24.1125 48.9362 24.6576 49.1132 25.1113C49.2903 25.5651 49.5449 25.911 49.8769 26.1489C50.2145 26.3869 50.624 26.5059 51.1054 26.5059ZM57.5448 28V15.416H59.6117V28H57.5448ZM62.2079 28V15.416H64.2748V28H62.2079ZM70.7059 28.1826C69.8039 28.1826 69.0264 27.9945 68.3734 27.6182C67.7204 27.2363 67.2168 26.694 66.8626 25.9912C66.514 25.2884 66.3397 24.4473 66.3397 23.4678V23.4512C66.3397 22.4827 66.5168 21.6471 66.8709 20.9443C67.2251 20.236 67.7259 19.6937 68.3734 19.3174C69.0264 18.9411 69.8039 18.7529 70.7059 18.7529C71.6079 18.7529 72.3827 18.9411 73.0301 19.3174C73.6831 19.6937 74.1867 20.2332 74.5409 20.936C74.895 21.6388 75.0721 22.4772 75.0721 23.4512V23.4678C75.0721 24.4473 74.895 25.2884 74.5409 25.9912C74.1922 26.694 73.6914 27.2363 73.0384 27.6182C72.391 27.9945 71.6135 28.1826 70.7059 28.1826ZM70.7059 26.5059C71.1818 26.5059 71.5858 26.3869 71.9178 26.1489C72.2554 25.9054 72.5127 25.5596 72.6898 25.1113C72.8669 24.6576 72.9554 24.1125 72.9554 23.4761V23.4595C72.9554 22.8175 72.8669 22.2725 72.6898 21.8242C72.5127 21.3704 72.2554 21.0246 71.9178 20.7866C71.5858 20.5431 71.1818 20.4214 70.7059 20.4214C70.23 20.4214 69.8232 20.5431 69.4857 20.7866C69.1481 21.0246 68.8908 21.3704 68.7137 21.8242C68.5366 22.2725 68.4481 22.8175 68.4481 23.4595V23.4761C68.4481 24.1125 68.5366 24.6576 68.7137 25.1113C68.8908 25.5651 69.1454 25.911 69.4774 26.1489C69.8149 26.3869 70.2245 26.5059 70.7059 26.5059ZM78.4319 28L75.9666 18.9272H78.0418L79.5442 25.7505H79.6937L81.4368 18.9272H83.4041L85.1556 25.7505H85.305L86.8074 18.9272H88.8577L86.3924 28H84.2342L82.4661 21.4258H82.325L80.5652 28H78.4319Z" fill="white"/>
<path d="M112.25 22C112.25 22.1989 112.171 22.3897 112.03 22.5303C111.89 22.671 111.699 22.75 111.5 22.75H106.75V27.5C106.75 27.6989 106.671 27.8897 106.53 28.0303C106.39 28.171 106.199 28.25 106 28.25C105.801 28.25 105.61 28.171 105.47 28.0303C105.329 27.8897 105.25 27.6989 105.25 27.5V22.75H100.5C100.301 22.75 100.11 22.671 99.9697 22.5303C99.829 22.3897 99.75 22.1989 99.75 22C99.75 21.8011 99.829 21.6103 99.9697 21.4697C100.11 21.329 100.301 21.25 100.5 21.25H105.25V16.5C105.25 16.3011 105.329 16.1103 105.47 15.9697C105.61 15.829 105.801 15.75 106 15.75C106.199 15.75 106.39 15.829 106.53 15.9697C106.671 16.1103 106.75 16.3011 106.75 16.5V21.25H111.5C111.699 21.25 111.89 21.329 112.03 21.4697C112.171 21.6103 112.25 21.8011 112.25 22Z" fill="white"/>
</svg>
