<svg width="30" height="31" viewBox="0 0 30 31" fill="none" xmlns="http://www.w3.org/2000/svg">
<path d="M28.5 7.99804C28.2352 8.13518 27.9268 8.16155 27.6425 8.07137C27.3582 7.98119 27.1214 7.78183 26.9841 7.51711C25.9103 5.39576 24.2849 3.60281 22.2788 2.32664C22.1538 2.24778 22.0455 2.14507 21.9602 2.02438C21.8748 1.90368 21.8141 1.76736 21.7815 1.6232C21.7488 1.47904 21.7449 1.32985 21.7699 1.18417C21.7949 1.03849 21.8484 0.899159 21.9272 0.774137C22.0061 0.649114 22.1088 0.540848 22.2295 0.455518C22.3502 0.370189 22.4865 0.309468 22.6307 0.276822C22.7748 0.244177 22.924 0.240246 23.0697 0.265254C23.2154 0.290262 23.3547 0.34372 23.4797 0.422574C25.8177 1.91958 27.7162 4.01071 28.981 6.48211C29.1181 6.74693 29.1445 7.05537 29.0543 7.33963C28.9641 7.62389 28.7647 7.86071 28.5 7.99804ZM2.02175 8.12461C2.22785 8.12452 2.42997 8.06782 2.60604 7.96068C2.78212 7.85355 2.92538 7.70011 3.02018 7.51711C4.094 5.39576 5.71937 3.60281 7.7255 2.32664C7.97799 2.16738 8.15688 1.91435 8.22281 1.6232C8.28874 1.33205 8.23631 1.02663 8.07706 0.774137C7.9178 0.521643 7.66477 0.342753 7.37362 0.276822C7.08247 0.210892 6.77705 0.26332 6.52456 0.422574C4.18653 1.91958 2.28806 4.01071 1.02331 6.48211C0.934486 6.65355 0.891288 6.84498 0.897871 7.03796C0.904454 7.23094 0.960596 7.41897 1.06089 7.58397C1.16119 7.74897 1.30227 7.88537 1.47055 7.98006C1.63883 8.07475 1.82865 8.12452 2.02175 8.12461ZM28.1921 22.7412C28.3914 23.0829 28.497 23.4712 28.4984 23.8669C28.4997 24.2625 28.3968 24.6515 28.1998 24.9947C28.0028 25.3378 27.7189 25.6229 27.3766 25.8213C27.0342 26.0197 26.6457 26.1243 26.25 26.1246H20.5125C20.2543 27.3962 19.5645 28.5394 18.5598 29.3605C17.5552 30.1817 16.2976 30.6302 15 30.6302C13.7025 30.6302 12.4449 30.1817 11.4402 29.3605C10.4356 28.5394 9.74573 27.3962 9.48753 26.1246H3.75003C3.35462 26.1238 2.9664 26.0189 2.62447 25.8203C2.28255 25.6217 1.99899 25.3365 1.80237 24.9935C1.60575 24.6504 1.503 24.2616 1.50448 23.8662C1.50596 23.4708 1.61162 23.0827 1.81081 22.7412C3.07784 20.5544 3.75003 17.4452 3.75003 13.7496C3.75003 10.7659 4.93529 7.90444 7.04508 5.79465C9.15486 3.68487 12.0163 2.49961 15 2.49961C17.9837 2.49961 20.8452 3.68487 22.955 5.79465C25.0648 7.90444 26.25 10.7659 26.25 13.7496C26.25 17.4438 26.9222 20.553 28.1921 22.7412ZM18.181 26.1246H11.8191C12.0522 26.7819 12.4831 27.3509 13.0527 27.7532C13.6224 28.1556 14.3026 28.3717 15 28.3717C15.6974 28.3717 16.3777 28.1556 16.9473 27.7532C17.5169 27.3509 17.9479 26.7819 18.181 26.1246Z" fill="white"/>
</svg>
