<svg width="320" height="85" viewBox="0 0 320 85" fill="none" xmlns="http://www.w3.org/2000/svg">
<rect x="0.476074" width="319.164" height="84.2221" rx="24.7712" fill="white"/>
<path d="M81.6461 41.0263C80.5693 41.0263 79.6123 40.8418 78.7748 40.4729C77.9424 40.1041 77.2844 39.5907 76.8009 38.9327C76.3174 38.2747 76.0607 37.5145 76.0307 36.6521H78.8421C78.8671 37.0659 79.0041 37.4273 79.2534 37.7363C79.5026 38.0404 79.8341 38.2772 80.2478 38.4467C80.6616 38.6161 81.1251 38.7009 81.6386 38.7009C82.1869 38.7009 82.6729 38.6062 83.0966 38.4167C83.5203 38.2223 83.8518 37.9532 84.0911 37.6092C84.3303 37.2653 84.4475 36.869 84.4425 36.4204C84.4475 35.9568 84.3278 35.548 84.0836 35.1941C83.8393 34.8402 83.4854 34.5635 83.0218 34.3642C82.5632 34.1648 82.0099 34.0651 81.3619 34.0651H80.0086V31.9266H81.3619C81.8953 31.9266 82.3614 31.8344 82.7601 31.65C83.1639 31.4655 83.4804 31.2063 83.7097 30.8724C83.939 30.5334 84.0512 30.1421 84.0462 29.6984C84.0512 29.2648 83.954 28.8884 83.7546 28.5694C83.5602 28.2454 83.2835 27.9937 82.9246 27.8142C82.5707 27.6348 82.1545 27.545 81.676 27.545C81.2074 27.545 80.7737 27.6298 80.3749 27.7993C79.9762 27.9687 79.6547 28.2105 79.4104 28.5245C79.1661 28.8336 79.0365 29.2025 79.0216 29.6312H76.3523C76.3722 28.7738 76.6189 28.0211 77.0925 27.3731C77.571 26.7201 78.2091 26.2116 79.0066 25.8477C79.8042 25.4789 80.699 25.2944 81.6909 25.2944C82.7128 25.2944 83.6001 25.4863 84.3528 25.8702C85.1104 26.249 85.6961 26.7599 86.1099 27.403C86.5236 28.046 86.7305 28.7563 86.7305 29.534C86.7355 30.3963 86.4812 31.1191 85.9678 31.7023C85.4594 32.2855 84.7914 32.6669 83.964 32.8463V32.9659C85.0407 33.1155 85.8656 33.5143 86.4389 34.1623C87.0171 34.8053 87.3037 35.6054 87.2987 36.5624C87.2987 37.4198 87.0545 38.1874 86.566 38.8654C86.0825 39.5383 85.4145 40.0667 84.5621 40.4505C83.7147 40.8343 82.7427 41.0263 81.6461 41.0263ZM95.5254 41.1085C94.2942 41.1085 93.2374 40.797 92.3551 40.1739C91.4778 39.5458 90.8024 38.6411 90.3288 37.4597C89.8603 36.2733 89.626 34.8452 89.626 33.1753C89.631 31.5054 89.8677 30.0848 90.3363 28.9134C90.8099 27.737 91.4853 26.8397 92.3626 26.2216C93.2449 25.6035 94.2992 25.2944 95.5254 25.2944C96.7517 25.2944 97.8059 25.6035 98.6882 26.2216C99.5705 26.8397 100.246 27.737 100.715 28.9134C101.188 30.0897 101.425 31.5104 101.425 33.1753C101.425 34.8502 101.188 36.2808 100.715 37.4672C100.246 38.6485 99.5705 39.5508 98.6882 40.1739C97.8109 40.797 96.7566 41.1085 95.5254 41.1085ZM95.5254 38.7682C96.4825 38.7682 97.2377 38.2971 97.791 37.355C98.3493 36.4079 98.6284 35.0147 98.6284 33.1753C98.6284 31.959 98.5013 30.9372 98.2471 30.1097C97.9929 29.2822 97.634 28.6591 97.1704 28.2404C96.7068 27.8167 96.1585 27.6049 95.5254 27.6049C94.5733 27.6049 93.8206 28.0784 93.2673 29.0255C92.714 29.9676 92.4349 31.3509 92.4299 33.1753C92.4249 34.3966 92.547 35.4234 92.7963 36.2559C93.0505 37.0883 93.4094 37.7164 93.873 38.1401C94.3366 38.5588 94.8874 38.7682 95.5254 38.7682ZM109.569 41.1085C108.338 41.1085 107.281 40.797 106.399 40.1739C105.522 39.5458 104.846 38.6411 104.373 37.4597C103.904 36.2733 103.67 34.8452 103.67 33.1753C103.675 31.5054 103.912 30.0848 104.38 28.9134C104.854 27.737 105.529 26.8397 106.406 26.2216C107.289 25.6035 108.343 25.2944 109.569 25.2944C110.796 25.2944 111.85 25.6035 112.732 26.2216C113.614 26.8397 114.29 27.737 114.758 28.9134C115.232 30.0897 115.469 31.5104 115.469 33.1753C115.469 34.8502 115.232 36.2808 114.758 37.4672C114.29 38.6485 113.614 39.5508 112.732 40.1739C111.855 40.797 110.801 41.1085 109.569 41.1085ZM109.569 38.7682C110.526 38.7682 111.282 38.2971 111.835 37.355C112.393 36.4079 112.672 35.0147 112.672 33.1753C112.672 31.959 112.545 30.9372 112.291 30.1097C112.037 29.2822 111.678 28.6591 111.214 28.2404C110.751 27.8167 110.202 27.6049 109.569 27.6049C108.617 27.6049 107.865 28.0784 107.311 29.0255C106.758 29.9676 106.479 31.3509 106.474 33.1753C106.469 34.3966 106.591 35.4234 106.84 36.2559C107.094 37.0883 107.453 37.7164 107.917 38.1401C108.38 38.5588 108.931 38.7682 109.569 38.7682ZM123.613 41.1085C122.382 41.1085 121.325 40.797 120.443 40.1739C119.566 39.5458 118.89 38.6411 118.417 37.4597C117.948 36.2733 117.714 34.8452 117.714 33.1753C117.719 31.5054 117.955 30.0848 118.424 28.9134C118.898 27.737 119.573 26.8397 120.45 26.2216C121.333 25.6035 122.387 25.2944 123.613 25.2944C124.839 25.2944 125.894 25.6035 126.776 26.2216C127.658 26.8397 128.334 27.737 128.802 28.9134C129.276 30.0897 129.513 31.5104 129.513 33.1753C129.513 34.8502 129.276 36.2808 128.802 37.4672C128.334 38.6485 127.658 39.5508 126.776 40.1739C125.899 40.797 124.844 41.1085 123.613 41.1085ZM123.613 38.7682C124.57 38.7682 125.325 38.2971 125.879 37.355C126.437 36.4079 126.716 35.0147 126.716 33.1753C126.716 31.959 126.589 30.9372 126.335 30.1097C126.081 29.2822 125.722 28.6591 125.258 28.2404C124.795 27.8167 124.246 27.6049 123.613 27.6049C122.661 27.6049 121.908 28.0784 121.355 29.0255C120.802 29.9676 120.523 31.3509 120.518 33.1753C120.513 34.3966 120.635 35.4234 120.884 36.2559C121.138 37.0883 121.497 37.7164 121.961 38.1401C122.424 38.5588 122.975 38.7682 123.613 38.7682ZM144.57 35.9867V29.3321H147.276V40.8169H144.652V38.7756H144.532C144.273 39.4187 143.847 39.9446 143.254 40.3533C142.665 40.7621 141.94 40.9664 141.078 40.9664C140.325 40.9664 139.66 40.7994 139.081 40.4655C138.508 40.1265 138.06 39.6355 137.736 38.9925C137.412 38.3445 137.25 37.5619 137.25 36.6447V29.3321H139.956V36.226C139.956 36.9537 140.156 37.532 140.554 37.9606C140.953 38.3893 141.477 38.6037 142.125 38.6037C142.523 38.6037 142.91 38.5065 143.284 38.3121C143.657 38.1177 143.964 37.8285 144.203 37.4447C144.447 37.0559 144.57 36.5699 144.57 35.9867ZM159.137 32.3678L156.669 32.6369C156.6 32.3877 156.477 32.1534 156.303 31.9341C156.134 31.7148 155.904 31.5378 155.615 31.4032C155.326 31.2686 154.972 31.2013 154.553 31.2013C153.99 31.2013 153.517 31.3235 153.133 31.5677C152.754 31.812 152.567 32.1285 152.572 32.5173C152.567 32.8513 152.689 33.123 152.938 33.3323C153.193 33.5417 153.611 33.7136 154.194 33.8482L156.153 34.267C157.24 34.5012 158.048 34.8726 158.576 35.381C159.109 35.8895 159.379 36.5549 159.384 37.3774C159.379 38.1002 159.167 38.7383 158.748 39.2916C158.334 39.8399 157.759 40.2686 157.021 40.5776C156.283 40.8867 155.436 41.0412 154.479 41.0412C153.073 41.0412 151.941 40.7471 151.084 40.1589C150.227 39.5657 149.716 38.7408 149.551 37.684L152.191 37.4298C152.31 37.9482 152.564 38.3395 152.953 38.6037C153.342 38.8679 153.848 39 154.471 39C155.114 39 155.63 38.8679 156.019 38.6037C156.413 38.3395 156.61 38.013 156.61 37.6242C156.61 37.2952 156.482 37.0235 156.228 36.8092C155.979 36.5948 155.59 36.4303 155.062 36.3157L153.103 35.9044C152.001 35.6751 151.186 35.2888 150.658 34.7455C150.129 34.1972 149.868 33.5043 149.873 32.6669C149.868 31.959 150.06 31.3459 150.448 30.8275C150.842 30.3041 151.388 29.9003 152.086 29.6162C152.789 29.3271 153.599 29.1825 154.516 29.1825C155.862 29.1825 156.921 29.4691 157.694 30.0424C158.471 30.6156 158.952 31.3908 159.137 32.3678ZM165.877 41.0188C164.975 41.0188 164.168 40.787 163.455 40.3234C162.742 39.8598 162.179 39.1869 161.765 38.3046C161.351 37.4223 161.144 36.3506 161.144 35.0894C161.144 33.8133 161.354 32.7366 161.773 31.8593C162.196 30.977 162.767 30.3116 163.485 29.8629C164.203 29.4093 165.003 29.1825 165.885 29.1825C166.558 29.1825 167.111 29.2972 167.545 29.5265C167.979 29.7508 168.322 30.0225 168.577 30.3415C168.831 30.6555 169.028 30.9521 169.167 31.2313H169.28V25.5038H171.994V40.8169H169.332V39.0074H169.167C169.028 39.2866 168.826 39.5832 168.562 39.8972C168.298 40.2063 167.949 40.4705 167.515 40.6898C167.081 40.9091 166.535 41.0188 165.877 41.0188ZM166.633 38.7981C167.206 38.7981 167.694 38.6436 168.098 38.3345C168.502 38.0205 168.808 37.5843 169.018 37.026C169.227 36.4677 169.332 35.8172 169.332 35.0745C169.332 34.3318 169.227 33.6862 169.018 33.1379C168.813 32.5896 168.509 32.1634 168.106 31.8593C167.707 31.5553 167.216 31.4032 166.633 31.4032C166.029 31.4032 165.526 31.5602 165.122 31.8743C164.718 32.1883 164.414 32.622 164.21 33.1753C164.006 33.7286 163.903 34.3617 163.903 35.0745C163.903 35.7923 164.006 36.4328 164.21 36.9961C164.419 37.5544 164.726 37.9955 165.13 38.3195C165.538 38.6386 166.039 38.7981 166.633 38.7981ZM179.888 41.0412C178.741 41.0412 177.757 40.7895 176.934 40.286C176.117 39.7826 175.486 39.0872 175.043 38.1999C174.604 37.3076 174.385 36.2808 174.385 35.1193C174.385 33.9529 174.609 32.9236 175.057 32.0313C175.506 31.134 176.139 30.4362 176.957 29.9377C177.779 29.4343 178.751 29.1825 179.873 29.1825C180.805 29.1825 181.63 29.3545 182.348 29.6984C183.07 30.0374 183.646 30.5184 184.075 31.1415C184.504 31.7596 184.748 32.4824 184.808 33.3099H182.221C182.116 32.7566 181.867 32.2955 181.473 31.9266C181.084 31.5528 180.563 31.3658 179.91 31.3658C179.357 31.3658 178.871 31.5154 178.452 31.8145C178.033 32.1086 177.707 32.5323 177.473 33.0856C177.243 33.6389 177.129 34.3018 177.129 35.0745C177.129 35.8571 177.243 36.53 177.473 37.0933C177.702 37.6516 178.023 38.0828 178.437 38.3868C178.856 38.6859 179.347 38.8355 179.91 38.8355C180.309 38.8355 180.665 38.7607 180.979 38.6112C181.298 38.4566 181.565 38.2348 181.779 37.9457C181.994 37.6566 182.141 37.3051 182.221 36.8914H184.808C184.743 37.7039 184.504 38.4242 184.09 39.0523C183.676 39.6754 183.113 40.1639 182.4 40.5178C181.687 40.8667 180.85 41.0412 179.888 41.0412Z" fill="black"/>
<path d="M78.6984 48.5468H80.2739V50.0925C80.2739 53.2731 78.9808 56.3794 76.3947 57.5536L75.28 55.993C77.5837 54.9675 78.6984 52.4259 78.6984 50.0925V48.5468ZM79.1443 48.5468H80.7049V50.0925C80.7049 52.3219 81.8048 54.6999 84.1085 55.6511L83.0384 57.2117C80.4225 56.0822 79.1443 53.1542 79.1443 50.0925V48.5468ZM75.8299 47.6996H83.5437V49.3196H75.8299V47.6996ZM84.8219 46.3768H86.8135V60.1397H84.8219V46.3768ZM90.6122 46.9862H99.3366V48.5616H90.6122V46.9862ZM89.0962 51.9355H101.551V53.5109H89.0962V51.9355ZM98.1476 46.9862H100.095V48.086C100.095 49.275 100.095 50.5532 99.6785 52.3368L97.7166 52.307C98.1476 50.5235 98.1476 49.2602 98.1476 48.086V46.9862ZM90.5528 54.9526H100.035V59.991H90.5528V54.9526ZM98.0882 56.4834H92.4849V58.4305H98.0882V56.4834ZM106.505 53.392H118.96V54.9526H106.505V53.392ZM111.737 51.3855H113.713V54.1203H111.737V51.3855ZM108.006 50.4789H117.593V52.0544H108.006V50.4789ZM108.006 47.0308H117.474V48.6062H109.983V51.222H108.006V47.0308ZM107.976 58.3264H117.682V59.9019H107.976V58.3264ZM107.976 55.8741H109.938V58.8169H107.976V55.8741ZM133.441 46.3768H135.417V53.2434H133.441V46.3768ZM130.676 49.1115H134.184V50.687H130.676V49.1115ZM127.704 46.7484C129.784 46.7484 131.33 48.0563 131.33 49.9141C131.33 51.7571 129.784 53.0799 127.704 53.0799C125.623 53.0799 124.062 51.7571 124.062 49.9141C124.062 48.0563 125.623 46.7484 127.704 46.7484ZM127.704 48.3535C126.693 48.3535 125.95 48.9332 125.95 49.9141C125.95 50.9099 126.693 51.4896 127.704 51.4896C128.714 51.4896 129.443 50.9099 129.443 49.9141C129.443 48.9332 128.714 48.3535 127.704 48.3535ZM126.321 53.8379H135.417V57.5833H128.298V59.2628H126.336V56.1565H133.456V55.3539H126.321V53.8379ZM126.336 58.4602H135.804V59.991H126.336V58.4602ZM138.012 47.6699H144.596V56.7956H138.012V47.6699ZM142.649 49.2156H139.959V55.235H142.649V49.2156ZM146.395 46.3768H148.386V60.1397H146.395V46.3768ZM147.941 51.5639H150.378V53.1988H147.941V51.5639Z" fill="#9098A3"/>
<g clip-path="url(#clip0_6_589)">
<path d="M33.0912 49.5429H30.2012C29.7471 49.5429 29.3755 49.1713 29.3755 48.7172V40.4601C29.3755 40.006 29.7471 39.6344 30.2012 39.6344H33.0912C33.5453 39.6344 33.9169 40.006 33.9169 40.4601V48.7172C33.9169 49.1713 33.5453 49.5429 33.0912 49.5429ZM39.0775 34.6802H36.1876C35.7334 34.6802 35.3619 35.0517 35.3619 35.5059V48.7172C35.3619 49.1713 35.7334 49.5429 36.1876 49.5429H39.0775C39.5317 49.5429 39.9032 49.1713 39.9032 48.7172V35.5059C39.9032 35.0517 39.5317 34.6802 39.0775 34.6802ZM45.0639 41.2858H42.1739C41.7198 41.2858 41.3482 41.6574 41.3482 42.1115V48.7172C41.3482 49.1713 41.7198 49.5429 42.1739 49.5429H45.0639C45.518 49.5429 45.8896 49.1713 45.8896 48.7172V42.1115C45.8896 41.6574 45.518 41.2858 45.0639 41.2858Z" fill="url(#paint0_linear_6_589)"/>
</g>
<defs>
<linearGradient id="paint0_linear_6_589" x1="37.6326" y1="34.6802" x2="37.6326" y2="49.5429" gradientUnits="userSpaceOnUse">
<stop stop-color="#967CFD"/>
<stop offset="1" stop-color="#3177FF"/>
</linearGradient>
<clipPath id="clip0_6_589">
<rect width="19.817" height="19.817" fill="white" transform="translate(27.7246 32.2026)"/>
</clipPath>
</defs>
</svg>
