<svg width="490" height="180" viewBox="0 0 490 180" fill="none" xmlns="http://www.w3.org/2000/svg">
<path d="M18.9714 169.228V168.056H21.9597C22.7165 168.056 23.3024 167.861 23.7175 167.47C24.1325 167.075 24.34 166.53 24.34 165.837V165.822C24.34 165.124 24.1325 164.58 23.7175 164.189C23.3024 163.798 22.7165 163.603 21.9597 163.603H18.9714V162.431H22.2966C22.9606 162.431 23.5466 162.573 24.0544 162.856C24.5622 163.139 24.9602 163.535 25.2482 164.042C25.5412 164.55 25.6877 165.139 25.6877 165.808V165.822C25.6877 166.491 25.5412 167.082 25.2482 167.595C24.9602 168.107 24.5622 168.508 24.0544 168.796C23.5466 169.084 22.9606 169.228 22.2966 169.228H18.9714ZM18.3122 173V162.431H19.6306V173H18.3122ZM27.6122 173V165.104H28.8866V166.276H29.0038C29.1552 165.861 29.4115 165.539 29.7729 165.31C30.1342 165.08 30.581 164.965 31.1132 164.965C31.2353 164.965 31.3549 164.973 31.4721 164.987C31.5941 164.997 31.6869 165.007 31.7504 165.017V166.254C31.6186 166.23 31.4892 166.213 31.3622 166.203C31.2401 166.188 31.1083 166.181 30.9667 166.181C30.5614 166.181 30.2025 166.262 29.89 166.423C29.5775 166.584 29.331 166.809 29.1503 167.097C28.9745 167.385 28.8866 167.722 28.8866 168.107V173H27.6122ZM36.275 173.139C35.5279 173.139 34.881 172.976 34.3341 172.648C33.7921 172.316 33.3722 171.845 33.0743 171.235C32.7814 170.625 32.6349 169.899 32.6349 169.06V169.045C32.6349 168.2 32.7814 167.473 33.0743 166.862C33.3722 166.252 33.7921 165.783 34.3341 165.456C34.881 165.129 35.5279 164.965 36.275 164.965C37.027 164.965 37.6739 165.129 38.2159 165.456C38.7579 165.783 39.1754 166.252 39.4684 166.862C39.7662 167.473 39.9151 168.2 39.9151 169.045V169.06C39.9151 169.899 39.7662 170.625 39.4684 171.235C39.1754 171.845 38.7579 172.316 38.2159 172.648C37.6739 172.976 37.027 173.139 36.275 173.139ZM36.275 172.011C36.7731 172.011 37.1954 171.894 37.5421 171.66C37.8888 171.425 38.1524 171.088 38.3331 170.649C38.5187 170.209 38.6114 169.68 38.6114 169.06V169.045C38.6114 168.42 38.5187 167.888 38.3331 167.448C38.1524 167.009 37.8888 166.674 37.5421 166.445C37.1954 166.21 36.7731 166.093 36.275 166.093C35.777 166.093 35.3546 166.21 35.0079 166.445C34.6612 166.674 34.3951 167.009 34.2096 167.448C34.0289 167.888 33.9386 168.42 33.9386 169.045V169.06C33.9386 169.68 34.0289 170.209 34.2096 170.649C34.3951 171.088 34.6612 171.425 35.0079 171.66C35.3546 171.894 35.777 172.011 36.275 172.011ZM43.7586 173L40.8362 165.104H42.1839L44.3445 171.608H44.4617L46.6224 165.104H47.97L45.0477 173H43.7586ZM49.6089 173V165.104H50.8833V173H49.6089ZM50.2534 163.581C50.0142 163.581 49.8066 163.496 49.6309 163.325C49.46 163.149 49.3745 162.941 49.3745 162.702C49.3745 162.458 49.46 162.25 49.6309 162.08C49.8066 161.909 50.0142 161.823 50.2534 161.823C50.4976 161.823 50.7051 161.909 50.876 162.08C51.0469 162.25 51.1323 162.458 51.1323 162.702C51.1323 162.941 51.0469 163.149 50.876 163.325C50.7051 163.496 50.4976 163.581 50.2534 163.581ZM56.1257 173.139C55.4616 173.139 54.8806 172.971 54.3825 172.634C53.8845 172.297 53.4987 171.823 53.2253 171.213C52.9519 170.598 52.8151 169.88 52.8151 169.06V169.045C52.8151 168.22 52.9519 167.502 53.2253 166.892C53.4987 166.281 53.882 165.808 54.3752 165.471C54.8732 165.134 55.4567 164.965 56.1257 164.965C56.487 164.965 56.8264 165.024 57.1438 165.141C57.466 165.253 57.7517 165.412 58.0007 165.617C58.2497 165.822 58.445 166.066 58.5866 166.35H58.7038V161.97H59.9782V173H58.7038V171.74H58.5866C58.4255 172.033 58.2229 172.285 57.9787 172.495C57.7346 172.7 57.4563 172.858 57.1438 172.971C56.8313 173.083 56.4919 173.139 56.1257 173.139ZM56.4187 172.011C56.8972 172.011 57.3098 171.892 57.6564 171.652C58.0031 171.413 58.2692 171.074 58.4548 170.634C58.6403 170.19 58.7331 169.665 58.7331 169.06V169.045C58.7331 168.435 58.6403 167.91 58.4548 167.47C58.2692 167.031 58.0031 166.691 57.6564 166.452C57.3098 166.213 56.8972 166.093 56.4187 166.093C55.9401 166.093 55.5275 166.213 55.1809 166.452C54.8391 166.687 54.5754 167.023 54.3898 167.463C54.2092 167.902 54.1189 168.43 54.1189 169.045V169.06C54.1189 169.67 54.2092 170.197 54.3898 170.642C54.5754 171.081 54.8391 171.42 55.1809 171.66C55.5275 171.894 55.9401 172.011 56.4187 172.011ZM65.5722 173.139C64.8202 173.139 64.1732 172.973 63.6313 172.641C63.0941 172.309 62.6791 171.84 62.3861 171.235C62.098 170.625 61.954 169.907 61.954 169.082V169.074C61.954 168.259 62.098 167.543 62.3861 166.928C62.6791 166.313 63.0917 165.832 63.6239 165.485C64.1562 165.139 64.7787 164.965 65.4916 164.965C66.2094 164.965 66.8246 165.131 67.3373 165.463C67.8549 165.795 68.2504 166.259 68.5238 166.855C68.8022 167.446 68.9413 168.134 68.9413 168.92V169.418H62.6132V168.4H68.2895L67.6596 169.331V168.825C67.6596 168.205 67.5668 167.695 67.3813 167.294C67.1957 166.894 66.9394 166.596 66.6122 166.401C66.2851 166.201 65.9091 166.101 65.4843 166.101C65.0595 166.101 64.6786 166.206 64.3417 166.416C64.0097 166.621 63.746 166.926 63.5507 167.331C63.3554 167.736 63.2577 168.234 63.2577 168.825V169.331C63.2577 169.892 63.3529 170.373 63.5434 170.773C63.7338 171.169 64.0048 171.474 64.3563 171.689C64.7079 171.899 65.123 172.004 65.6015 172.004C65.9579 172.004 66.268 171.955 66.5316 171.857C66.7953 171.76 67.0126 171.635 67.1835 171.484C67.3544 171.333 67.474 171.179 67.5424 171.022L67.5717 170.957H68.8461L68.8314 171.015C68.7631 171.284 68.641 171.545 68.4652 171.799C68.2943 172.048 68.0722 172.275 67.7987 172.48C67.5253 172.68 67.2006 172.841 66.8246 172.963C66.4535 173.081 66.036 173.139 65.5722 173.139ZM75.6614 175.769C75.5784 175.769 75.4856 175.764 75.3831 175.754C75.2806 175.749 75.1854 175.739 75.0975 175.725V174.677C75.1756 174.692 75.261 174.702 75.3538 174.707C75.4466 174.711 75.5369 174.714 75.6248 174.714C75.9861 174.714 76.2815 174.621 76.511 174.436C76.7454 174.25 76.9334 173.93 77.075 173.476L77.2215 173.007L74.2991 165.104H75.6614L78.0931 172.399L77.5877 171.601H78.1883L77.6829 172.399L80.1072 165.104H81.4476L78.3641 173.483C78.1492 174.074 77.9222 174.536 77.6829 174.868C77.4437 175.2 77.1629 175.432 76.8406 175.563C76.5232 175.7 76.1302 175.769 75.6614 175.769ZM86.0088 173.139C85.2617 173.139 84.6147 172.976 84.0679 172.648C83.5259 172.316 83.106 171.845 82.8081 171.235C82.5151 170.625 82.3687 169.899 82.3687 169.06V169.045C82.3687 168.2 82.5151 167.473 82.8081 166.862C83.106 166.252 83.5259 165.783 84.0679 165.456C84.6147 165.129 85.2617 164.965 86.0088 164.965C86.7607 164.965 87.4077 165.129 87.9497 165.456C88.4917 165.783 88.9092 166.252 89.2021 166.862C89.5 167.473 89.6489 168.2 89.6489 169.045V169.06C89.6489 169.899 89.5 170.625 89.2021 171.235C88.9092 171.845 88.4917 172.316 87.9497 172.648C87.4077 172.976 86.7607 173.139 86.0088 173.139ZM86.0088 172.011C86.5068 172.011 86.9292 171.894 87.2759 171.66C87.6226 171.425 87.8862 171.088 88.0669 170.649C88.2524 170.209 88.3452 169.68 88.3452 169.06V169.045C88.3452 168.42 88.2524 167.888 88.0669 167.448C87.8862 167.009 87.6226 166.674 87.2759 166.445C86.9292 166.21 86.5068 166.093 86.0088 166.093C85.5107 166.093 85.0884 166.21 84.7417 166.445C84.395 166.674 84.1289 167.009 83.9434 167.448C83.7627 167.888 83.6724 168.42 83.6724 169.045V169.06C83.6724 169.68 83.7627 170.209 83.9434 170.649C84.1289 171.088 84.395 171.425 84.7417 171.66C85.0884 171.894 85.5107 172.011 86.0088 172.011ZM94.1955 173.139C93.5998 173.139 93.0993 173.027 92.694 172.802C92.2888 172.573 91.9836 172.241 91.7785 171.806C91.5783 171.367 91.4782 170.837 91.4782 170.217V165.104H92.7526V169.909C92.7526 170.617 92.8894 171.145 93.1628 171.491C93.4411 171.838 93.8952 172.011 94.5251 172.011C94.8718 172.011 95.177 171.96 95.4406 171.857C95.7092 171.755 95.9338 171.608 96.1145 171.418C96.2951 171.223 96.4294 170.988 96.5173 170.715C96.6101 170.437 96.6564 170.124 96.6564 169.777V165.104H97.9309V173H96.6564V171.821H96.5393C96.4123 172.099 96.239 172.338 96.0192 172.539C95.7995 172.734 95.5358 172.883 95.2282 172.985C94.9255 173.088 94.5813 173.139 94.1955 173.139ZM100.236 173V165.104H101.511V166.276H101.628C101.779 165.861 102.036 165.539 102.397 165.31C102.758 165.08 103.205 164.965 103.737 164.965C103.859 164.965 103.979 164.973 104.096 164.987C104.218 164.997 104.311 165.007 104.374 165.017V166.254C104.243 166.23 104.113 166.213 103.986 166.203C103.864 166.188 103.732 166.181 103.591 166.181C103.185 166.181 102.827 166.262 102.514 166.423C102.202 166.584 101.955 166.809 101.774 167.097C101.599 167.385 101.511 167.722 101.511 168.107V173H100.236ZM113.263 173.139C112.515 173.139 111.868 172.976 111.322 172.648C110.78 172.316 110.36 171.845 110.062 171.235C109.769 170.625 109.622 169.899 109.622 169.06V169.045C109.622 168.2 109.769 167.473 110.062 166.862C110.36 166.252 110.78 165.783 111.322 165.456C111.868 165.129 112.515 164.965 113.263 164.965C114.014 164.965 114.661 165.129 115.203 165.456C115.745 165.783 116.163 166.252 116.456 166.862C116.754 167.473 116.903 168.2 116.903 169.045V169.06C116.903 169.899 116.754 170.625 116.456 171.235C116.163 171.845 115.745 172.316 115.203 172.648C114.661 172.976 114.014 173.139 113.263 173.139ZM113.263 172.011C113.761 172.011 114.183 171.894 114.53 171.66C114.876 171.425 115.14 171.088 115.321 170.649C115.506 170.209 115.599 169.68 115.599 169.06V169.045C115.599 168.42 115.506 167.888 115.321 167.448C115.14 167.009 114.876 166.674 114.53 166.445C114.183 166.21 113.761 166.093 113.263 166.093C112.764 166.093 112.342 166.21 111.995 166.445C111.649 166.674 111.383 167.009 111.197 167.448C111.016 167.888 110.926 168.42 110.926 169.045V169.06C110.926 169.68 111.016 170.209 111.197 170.649C111.383 171.088 111.649 171.425 111.995 171.66C112.342 171.894 112.764 172.011 113.263 172.011ZM118.805 173V165.104H120.08V166.276H120.197C120.348 165.861 120.604 165.539 120.966 165.31C121.327 165.08 121.774 164.965 122.306 164.965C122.428 164.965 122.548 164.973 122.665 164.987C122.787 164.997 122.88 165.007 122.943 165.017V166.254C122.812 166.23 122.682 166.213 122.555 166.203C122.433 166.188 122.301 166.181 122.16 166.181C121.754 166.181 121.396 166.262 121.083 166.423C120.771 166.584 120.524 166.809 120.343 167.097C120.167 167.385 120.08 167.722 120.08 168.107V173H118.805ZM127.138 173.139C126.474 173.139 125.893 172.971 125.395 172.634C124.897 172.297 124.511 171.823 124.238 171.213C123.965 170.598 123.828 169.88 123.828 169.06V169.045C123.828 168.22 123.965 167.502 124.238 166.892C124.511 166.281 124.895 165.808 125.388 165.471C125.886 165.134 126.469 164.965 127.138 164.965C127.5 164.965 127.839 165.024 128.156 165.141C128.479 165.253 128.764 165.412 129.013 165.617C129.262 165.822 129.458 166.066 129.599 166.35H129.717V161.97H130.991V173H129.717V171.74H129.599C129.438 172.033 129.236 172.285 128.991 172.495C128.747 172.7 128.469 172.858 128.156 172.971C127.844 173.083 127.505 173.139 127.138 173.139ZM127.431 172.011C127.91 172.011 128.322 171.892 128.669 171.652C129.016 171.413 129.282 171.074 129.467 170.634C129.653 170.19 129.746 169.665 129.746 169.06V169.045C129.746 168.435 129.653 167.91 129.467 167.47C129.282 167.031 129.016 166.691 128.669 166.452C128.322 166.213 127.91 166.093 127.431 166.093C126.953 166.093 126.54 166.213 126.194 166.452C125.852 166.687 125.588 167.023 125.403 167.463C125.222 167.902 125.132 168.43 125.132 169.045V169.06C125.132 169.67 125.222 170.197 125.403 170.642C125.588 171.081 125.852 171.42 126.194 171.66C126.54 171.894 126.953 172.011 127.431 172.011ZM136.585 173.139C135.833 173.139 135.186 172.973 134.644 172.641C134.107 172.309 133.692 171.84 133.399 171.235C133.111 170.625 132.967 169.907 132.967 169.082V169.074C132.967 168.259 133.111 167.543 133.399 166.928C133.692 166.313 134.104 165.832 134.637 165.485C135.169 165.139 135.791 164.965 136.504 164.965C137.222 164.965 137.837 165.131 138.35 165.463C138.868 165.795 139.263 166.259 139.537 166.855C139.815 167.446 139.954 168.134 139.954 168.92V169.418H133.626V168.4H139.302L138.672 169.331V168.825C138.672 168.205 138.579 167.695 138.394 167.294C138.208 166.894 137.952 166.596 137.625 166.401C137.298 166.201 136.922 166.101 136.497 166.101C136.072 166.101 135.691 166.206 135.354 166.416C135.022 166.621 134.759 166.926 134.563 167.331C134.368 167.736 134.27 168.234 134.27 168.825V169.331C134.27 169.892 134.366 170.373 134.556 170.773C134.746 171.169 135.017 171.474 135.369 171.689C135.721 171.899 136.136 172.004 136.614 172.004C136.971 172.004 137.281 171.955 137.544 171.857C137.808 171.76 138.025 171.635 138.196 171.484C138.367 171.333 138.487 171.179 138.555 171.022L138.584 170.957H139.859L139.844 171.015C139.776 171.284 139.654 171.545 139.478 171.799C139.307 172.048 139.085 172.275 138.811 172.48C138.538 172.68 138.213 172.841 137.837 172.963C137.466 173.081 137.049 173.139 136.585 173.139ZM141.857 173V165.104H143.131V166.276H143.248C143.4 165.861 143.656 165.539 144.017 165.31C144.379 165.08 144.825 164.965 145.358 164.965C145.48 164.965 145.599 164.973 145.716 164.987C145.838 164.997 145.931 165.007 145.995 165.017V166.254C145.863 166.23 145.733 166.213 145.607 166.203C145.484 166.188 145.353 166.181 145.211 166.181C144.806 166.181 144.447 166.262 144.134 166.423C143.822 166.584 143.575 166.809 143.395 167.097C143.219 167.385 143.131 167.722 143.131 168.107V173H141.857ZM151.638 173V165.104H152.913V166.291H153.03C153.23 165.871 153.518 165.546 153.894 165.317C154.27 165.083 154.749 164.965 155.33 164.965C156.218 164.965 156.899 165.219 157.373 165.727C157.852 166.23 158.091 166.95 158.091 167.888V173H156.816V168.195C156.816 167.482 156.665 166.955 156.362 166.613C156.064 166.267 155.601 166.093 154.971 166.093C154.551 166.093 154.187 166.184 153.879 166.364C153.572 166.545 153.333 166.801 153.162 167.133C152.996 167.465 152.913 167.863 152.913 168.327V173H151.638ZM162.967 173.139C162.371 173.139 161.871 173.027 161.466 172.802C161.06 172.573 160.755 172.241 160.55 171.806C160.35 171.367 160.25 170.837 160.25 170.217V165.104H161.524V169.909C161.524 170.617 161.661 171.145 161.934 171.491C162.213 171.838 162.667 172.011 163.297 172.011C163.643 172.011 163.948 171.96 164.212 171.857C164.481 171.755 164.705 171.608 164.886 171.418C165.067 171.223 165.201 170.988 165.289 170.715C165.382 170.437 165.428 170.124 165.428 169.777V165.104H166.702V173H165.428V171.821H165.311C165.184 172.099 165.01 172.338 164.791 172.539C164.571 172.734 164.307 172.883 164 172.985C163.697 173.088 163.353 173.139 162.967 173.139ZM169.008 173V165.104H170.282V166.306H170.399C170.575 165.881 170.844 165.551 171.205 165.317C171.571 165.083 172.013 164.965 172.531 164.965C172.887 164.965 173.207 165.024 173.49 165.141C173.773 165.258 174.017 165.422 174.223 165.632C174.428 165.837 174.591 166.076 174.713 166.35H174.83C174.972 166.071 175.163 165.83 175.402 165.625C175.641 165.415 175.917 165.253 176.229 165.141C176.547 165.024 176.886 164.965 177.247 164.965C177.785 164.965 178.239 165.065 178.61 165.266C178.986 165.466 179.271 165.759 179.467 166.145C179.662 166.525 179.76 166.992 179.76 167.543V173H178.485V167.836C178.485 167.446 178.424 167.124 178.302 166.87C178.185 166.611 178.004 166.418 177.76 166.291C177.516 166.159 177.208 166.093 176.837 166.093C176.471 166.093 176.151 166.176 175.878 166.342C175.604 166.508 175.392 166.73 175.241 167.009C175.089 167.282 175.014 167.587 175.014 167.924V173H173.739V167.639C173.739 167.326 173.671 167.055 173.534 166.826C173.402 166.591 173.212 166.411 172.963 166.284C172.719 166.157 172.431 166.093 172.099 166.093C171.757 166.093 171.447 166.184 171.168 166.364C170.895 166.545 170.678 166.789 170.517 167.097C170.36 167.399 170.282 167.736 170.282 168.107V173H169.008ZM185.91 173.139C185.544 173.139 185.205 173.083 184.892 172.971C184.58 172.858 184.301 172.7 184.057 172.495C183.813 172.285 183.61 172.033 183.449 171.74H183.332V173H182.058V161.97H183.332V166.35H183.449C183.596 166.066 183.791 165.822 184.035 165.617C184.284 165.412 184.567 165.253 184.885 165.141C185.207 165.024 185.549 164.965 185.91 164.965C186.579 164.965 187.16 165.134 187.653 165.471C188.151 165.808 188.537 166.281 188.811 166.892C189.084 167.502 189.221 168.22 189.221 169.045V169.06C189.221 169.88 189.084 170.598 188.811 171.213C188.537 171.823 188.151 172.297 187.653 172.634C187.16 172.971 186.579 173.139 185.91 173.139ZM185.617 172.011C186.101 172.011 186.513 171.894 186.855 171.66C187.197 171.42 187.458 171.081 187.639 170.642C187.824 170.197 187.917 169.67 187.917 169.06V169.045C187.917 168.43 187.824 167.902 187.639 167.463C187.458 167.023 187.197 166.687 186.855 166.452C186.513 166.213 186.101 166.093 185.617 166.093C185.139 166.093 184.726 166.213 184.38 166.452C184.033 166.691 183.767 167.031 183.581 167.47C183.396 167.91 183.303 168.435 183.303 169.045V169.06C183.303 169.665 183.396 170.19 183.581 170.634C183.767 171.074 184.033 171.413 184.38 171.652C184.726 171.892 185.139 172.011 185.617 172.011ZM194.346 173.139C193.594 173.139 192.947 172.973 192.405 172.641C191.868 172.309 191.453 171.84 191.16 171.235C190.872 170.625 190.728 169.907 190.728 169.082V169.074C190.728 168.259 190.872 167.543 191.16 166.928C191.453 166.313 191.866 165.832 192.398 165.485C192.93 165.139 193.553 164.965 194.265 164.965C194.983 164.965 195.598 165.131 196.111 165.463C196.629 165.795 197.024 166.259 197.298 166.855C197.576 167.446 197.715 168.134 197.715 168.92V169.418H191.387V168.4H197.063L196.433 169.331V168.825C196.433 168.205 196.341 167.695 196.155 167.294C195.97 166.894 195.713 166.596 195.386 166.401C195.059 166.201 194.683 166.101 194.258 166.101C193.833 166.101 193.452 166.206 193.116 166.416C192.783 166.621 192.52 166.926 192.325 167.331C192.129 167.736 192.032 168.234 192.032 168.825V169.331C192.032 169.892 192.127 170.373 192.317 170.773C192.508 171.169 192.779 171.474 193.13 171.689C193.482 171.899 193.897 172.004 194.375 172.004C194.732 172.004 195.042 171.955 195.305 171.857C195.569 171.76 195.786 171.635 195.957 171.484C196.128 171.333 196.248 171.179 196.316 171.022L196.346 170.957H197.62L197.605 171.015C197.537 171.284 197.415 171.545 197.239 171.799C197.068 172.048 196.846 172.275 196.573 172.48C196.299 172.68 195.974 172.841 195.598 172.963C195.227 173.081 194.81 173.139 194.346 173.139ZM199.618 173V165.104H200.892V166.276H201.009C201.161 165.861 201.417 165.539 201.778 165.31C202.14 165.08 202.586 164.965 203.119 164.965C203.241 164.965 203.36 164.973 203.478 164.987C203.6 164.997 203.692 165.007 203.756 165.017V166.254C203.624 166.23 203.495 166.213 203.368 166.203C203.246 166.188 203.114 166.181 202.972 166.181C202.567 166.181 202.208 166.262 201.896 166.423C201.583 166.584 201.336 166.809 201.156 167.097C200.98 167.385 200.892 167.722 200.892 168.107V173H199.618ZM212.644 173.139C211.897 173.139 211.25 172.976 210.703 172.648C210.161 172.316 209.741 171.845 209.443 171.235C209.15 170.625 209.004 169.899 209.004 169.06V169.045C209.004 168.2 209.15 167.473 209.443 166.862C209.741 166.252 210.161 165.783 210.703 165.456C211.25 165.129 211.897 164.965 212.644 164.965C213.396 164.965 214.043 165.129 214.585 165.456C215.127 165.783 215.544 166.252 215.837 166.862C216.135 167.473 216.284 168.2 216.284 169.045V169.06C216.284 169.899 216.135 170.625 215.837 171.235C215.544 171.845 215.127 172.316 214.585 172.648C214.043 172.976 213.396 173.139 212.644 173.139ZM212.644 172.011C213.142 172.011 213.564 171.894 213.911 171.66C214.258 171.425 214.521 171.088 214.702 170.649C214.888 170.209 214.98 169.68 214.98 169.06V169.045C214.98 168.42 214.888 167.888 214.702 167.448C214.521 167.009 214.258 166.674 213.911 166.445C213.564 166.21 213.142 166.093 212.644 166.093C212.146 166.093 211.724 166.21 211.377 166.445C211.03 166.674 210.764 167.009 210.579 167.448C210.398 167.888 210.308 168.42 210.308 169.045V169.06C210.308 169.68 210.398 170.209 210.579 170.649C210.764 171.088 211.03 171.425 211.377 171.66C211.724 171.894 212.146 172.011 212.644 172.011ZM218.187 173V165.104H219.461V166.276H219.578C219.73 165.861 219.986 165.539 220.347 165.31C220.709 165.08 221.155 164.965 221.688 164.965C221.81 164.965 221.929 164.973 222.046 164.987C222.169 164.997 222.261 165.007 222.325 165.017V166.254C222.193 166.23 222.064 166.213 221.937 166.203C221.815 166.188 221.683 166.181 221.541 166.181C221.136 166.181 220.777 166.262 220.464 166.423C220.152 166.584 219.905 166.809 219.725 167.097C219.549 167.385 219.461 167.722 219.461 168.107V173H218.187ZM230.678 173.139C230.092 173.139 229.575 173.051 229.125 172.875C228.676 172.695 228.315 172.443 228.042 172.121C227.773 171.799 227.614 171.42 227.565 170.986H228.869C228.977 171.313 229.187 171.577 229.499 171.777C229.812 171.977 230.219 172.077 230.722 172.077C231.079 172.077 231.391 172.026 231.66 171.923C231.933 171.816 232.148 171.672 232.304 171.491C232.46 171.306 232.539 171.093 232.539 170.854V170.839C232.539 170.571 232.431 170.344 232.216 170.158C232.001 169.968 231.65 169.814 231.162 169.697L229.938 169.404C229.445 169.287 229.04 169.135 228.723 168.95C228.405 168.759 228.171 168.527 228.02 168.254C227.868 167.976 227.792 167.648 227.792 167.272V167.265C227.792 166.826 227.919 166.433 228.173 166.086C228.432 165.739 228.784 165.466 229.228 165.266C229.672 165.065 230.173 164.965 230.729 164.965C231.281 164.965 231.77 165.053 232.194 165.229C232.624 165.4 232.968 165.644 233.227 165.961C233.491 166.279 233.652 166.652 233.71 167.082H232.458C232.375 166.77 232.185 166.516 231.887 166.32C231.589 166.125 231.201 166.027 230.722 166.027C230.41 166.027 230.131 166.079 229.887 166.181C229.643 166.279 229.45 166.416 229.309 166.591C229.167 166.767 229.096 166.972 229.096 167.207V167.221C229.096 167.397 229.143 167.553 229.235 167.69C229.328 167.827 229.472 167.946 229.667 168.049C229.863 168.151 230.114 168.242 230.422 168.32L231.638 168.613C232.38 168.793 232.932 169.052 233.293 169.389C233.659 169.726 233.842 170.178 233.842 170.744V170.759C233.842 171.228 233.703 171.643 233.425 172.004C233.146 172.36 232.768 172.639 232.29 172.839C231.816 173.039 231.279 173.139 230.678 173.139ZM238.975 173.139C238.238 173.139 237.598 172.971 237.056 172.634C236.514 172.297 236.094 171.821 235.796 171.206C235.498 170.59 235.349 169.865 235.349 169.03V169.016C235.349 168.195 235.496 167.482 235.789 166.877C236.087 166.271 236.507 165.803 237.049 165.471C237.591 165.134 238.23 164.965 238.967 164.965C239.607 164.965 240.159 165.078 240.623 165.302C241.087 165.527 241.458 165.83 241.736 166.21C242.014 166.586 242.193 167.009 242.271 167.478L242.278 167.521H241.011L241.004 167.5C240.906 167.109 240.684 166.777 240.337 166.503C239.99 166.23 239.534 166.093 238.967 166.093C238.494 166.093 238.084 166.213 237.737 166.452C237.39 166.691 237.122 167.031 236.931 167.47C236.746 167.905 236.653 168.42 236.653 169.016V169.03C236.653 169.636 236.748 170.163 236.939 170.612C237.129 171.057 237.398 171.401 237.744 171.645C238.091 171.889 238.499 172.011 238.967 172.011C239.5 172.011 239.934 171.896 240.271 171.667C240.608 171.438 240.85 171.103 240.996 170.664L241.011 170.62L242.271 170.612L242.256 170.693C242.149 171.167 241.958 171.589 241.685 171.96C241.411 172.326 241.05 172.614 240.601 172.824C240.152 173.034 239.61 173.139 238.975 173.139ZM246.231 173.139C245.733 173.139 245.284 173.044 244.884 172.854C244.488 172.663 244.173 172.392 243.939 172.041C243.709 171.689 243.595 171.274 243.595 170.795V170.781C243.595 170.312 243.707 169.912 243.932 169.58C244.156 169.243 244.483 168.979 244.913 168.789C245.343 168.598 245.863 168.486 246.473 168.452L249.373 168.276V169.294L246.627 169.47C246.026 169.504 245.587 169.628 245.309 169.843C245.035 170.058 244.898 170.361 244.898 170.751V170.766C244.898 171.167 245.05 171.479 245.352 171.704C245.655 171.923 246.036 172.033 246.495 172.033C246.93 172.033 247.315 171.948 247.652 171.777C247.989 171.601 248.253 171.364 248.443 171.066C248.639 170.769 248.736 170.432 248.736 170.056V167.595C248.736 167.106 248.587 166.735 248.289 166.481C247.996 166.223 247.555 166.093 246.964 166.093C246.49 166.093 246.102 166.179 245.799 166.35C245.496 166.516 245.294 166.752 245.191 167.06L245.184 167.082H243.91L243.917 167.038C243.985 166.623 244.156 166.262 244.43 165.954C244.708 165.642 245.067 165.4 245.506 165.229C245.946 165.053 246.446 164.965 247.008 164.965C247.652 164.965 248.197 165.07 248.641 165.28C249.09 165.49 249.43 165.793 249.659 166.188C249.893 166.579 250.011 167.048 250.011 167.595V173H248.736V171.835H248.619C248.453 172.114 248.25 172.351 248.011 172.546C247.777 172.741 247.511 172.89 247.213 172.993C246.915 173.09 246.588 173.139 246.231 173.139ZM252.265 173V165.104H253.539V166.291H253.656C253.857 165.871 254.145 165.546 254.521 165.317C254.897 165.083 255.375 164.965 255.956 164.965C256.845 164.965 257.526 165.219 258 165.727C258.478 166.23 258.717 166.95 258.717 167.888V173H257.443V168.195C257.443 167.482 257.292 166.955 256.989 166.613C256.691 166.267 256.227 166.093 255.597 166.093C255.177 166.093 254.814 166.184 254.506 166.364C254.198 166.545 253.959 166.801 253.788 167.133C253.622 167.465 253.539 167.863 253.539 168.327V173H252.265ZM267.898 173.059C267.088 173.059 266.5 172.895 266.133 172.568C265.772 172.241 265.591 171.701 265.591 170.949V166.159H264.346V165.104H265.591V163.061H266.91V165.104H268.638V166.159H266.91V170.627C266.91 171.091 266.998 171.425 267.173 171.63C267.349 171.831 267.642 171.931 268.052 171.931C268.165 171.931 268.26 171.928 268.338 171.923C268.421 171.918 268.521 171.911 268.638 171.901V172.985C268.516 173.005 268.394 173.022 268.272 173.037C268.15 173.051 268.025 173.059 267.898 173.059ZM270.541 173V161.97H271.815V166.291H271.932C272.133 165.871 272.421 165.546 272.797 165.317C273.173 165.083 273.651 164.965 274.232 164.965C274.823 164.965 275.323 165.08 275.734 165.31C276.144 165.534 276.456 165.864 276.671 166.298C276.886 166.733 276.993 167.263 276.993 167.888V173H275.719V168.195C275.719 167.482 275.568 166.955 275.265 166.613C274.967 166.267 274.503 166.093 273.873 166.093C273.453 166.093 273.09 166.184 272.782 166.364C272.474 166.545 272.235 166.801 272.064 167.133C271.898 167.465 271.815 167.863 271.815 168.327V173H270.541ZM282.448 173.139C281.696 173.139 281.049 172.973 280.507 172.641C279.97 172.309 279.555 171.84 279.262 171.235C278.974 170.625 278.83 169.907 278.83 169.082V169.074C278.83 168.259 278.974 167.543 279.262 166.928C279.555 166.313 279.968 165.832 280.5 165.485C281.032 165.139 281.655 164.965 282.368 164.965C283.085 164.965 283.701 165.131 284.213 165.463C284.731 165.795 285.126 166.259 285.4 166.855C285.678 167.446 285.817 168.134 285.817 168.92V169.418H279.489V168.4H285.165L284.536 169.331V168.825C284.536 168.205 284.443 167.695 284.257 167.294C284.072 166.894 283.815 166.596 283.488 166.401C283.161 166.201 282.785 166.101 282.36 166.101C281.935 166.101 281.555 166.206 281.218 166.416C280.886 166.621 280.622 166.926 280.427 167.331C280.231 167.736 280.134 168.234 280.134 168.825V169.331C280.134 169.892 280.229 170.373 280.419 170.773C280.61 171.169 280.881 171.474 281.232 171.689C281.584 171.899 281.999 172.004 282.477 172.004C282.834 172.004 283.144 171.955 283.408 171.857C283.671 171.76 283.889 171.635 284.059 171.484C284.23 171.333 284.35 171.179 284.418 171.022L284.448 170.957H285.722L285.707 171.015C285.639 171.284 285.517 171.545 285.341 171.799C285.17 172.048 284.948 172.275 284.675 172.48C284.401 172.68 284.077 172.841 283.701 172.963C283.329 173.081 282.912 173.139 282.448 173.139ZM295.789 173.139C295.423 173.139 295.084 173.083 294.771 172.971C294.459 172.858 294.18 172.7 293.936 172.495C293.692 172.285 293.49 172.033 293.328 171.74H293.211V173H291.937V161.97H293.211V166.35H293.328C293.475 166.066 293.67 165.822 293.914 165.617C294.163 165.412 294.447 165.253 294.764 165.141C295.086 165.024 295.428 164.965 295.789 164.965C296.458 164.965 297.039 165.134 297.533 165.471C298.031 165.808 298.416 166.281 298.69 166.892C298.963 167.502 299.1 168.22 299.1 169.045V169.06C299.1 169.88 298.963 170.598 298.69 171.213C298.416 171.823 298.031 172.297 297.533 172.634C297.039 172.971 296.458 173.139 295.789 173.139ZM295.496 172.011C295.98 172.011 296.392 171.894 296.734 171.66C297.076 171.42 297.337 171.081 297.518 170.642C297.703 170.197 297.796 169.67 297.796 169.06V169.045C297.796 168.43 297.703 167.902 297.518 167.463C297.337 167.023 297.076 166.687 296.734 166.452C296.392 166.213 295.98 166.093 295.496 166.093C295.018 166.093 294.605 166.213 294.259 166.452C293.912 166.691 293.646 167.031 293.46 167.47C293.275 167.91 293.182 168.435 293.182 169.045V169.06C293.182 169.665 293.275 170.19 293.46 170.634C293.646 171.074 293.912 171.413 294.259 171.652C294.605 171.892 295.018 172.011 295.496 172.011ZM303.17 173.139C302.672 173.139 302.223 173.044 301.823 172.854C301.427 172.663 301.112 172.392 300.878 172.041C300.648 171.689 300.534 171.274 300.534 170.795V170.781C300.534 170.312 300.646 169.912 300.871 169.58C301.095 169.243 301.422 168.979 301.852 168.789C302.282 168.598 302.802 168.486 303.412 168.452L306.312 168.276V169.294L303.566 169.47C302.965 169.504 302.526 169.628 302.248 169.843C301.974 170.058 301.837 170.361 301.837 170.751V170.766C301.837 171.167 301.989 171.479 302.292 171.704C302.594 171.923 302.975 172.033 303.434 172.033C303.869 172.033 304.254 171.948 304.591 171.777C304.928 171.601 305.192 171.364 305.382 171.066C305.578 170.769 305.675 170.432 305.675 170.056V167.595C305.675 167.106 305.526 166.735 305.229 166.481C304.936 166.223 304.494 166.093 303.903 166.093C303.429 166.093 303.041 166.179 302.738 166.35C302.436 166.516 302.233 166.752 302.13 167.06L302.123 167.082H300.849L300.856 167.038C300.924 166.623 301.095 166.262 301.369 165.954C301.647 165.642 302.006 165.4 302.445 165.229C302.885 165.053 303.385 164.965 303.947 164.965C304.591 164.965 305.136 165.07 305.58 165.28C306.029 165.49 306.369 165.793 306.598 166.188C306.833 166.579 306.95 167.048 306.95 167.595V173H305.675V171.835H305.558C305.392 172.114 305.189 172.351 304.95 172.546C304.716 172.741 304.45 172.89 304.152 172.993C303.854 173.09 303.527 173.139 303.17 173.139ZM309.204 173V165.104H310.478V166.276H310.595C310.747 165.861 311.003 165.539 311.364 165.31C311.726 165.08 312.173 164.965 312.705 164.965C312.827 164.965 312.946 164.973 313.064 164.987C313.186 164.997 313.279 165.007 313.342 165.017V166.254C313.21 166.23 313.081 166.213 312.954 166.203C312.832 166.188 312.7 166.181 312.558 166.181C312.153 166.181 311.794 166.262 311.482 166.423C311.169 166.584 310.923 166.809 310.742 167.097C310.566 167.385 310.478 167.722 310.478 168.107V173H309.204ZM317.852 173.139C317.115 173.139 316.475 172.971 315.933 172.634C315.391 172.297 314.971 171.821 314.673 171.206C314.375 170.59 314.226 169.865 314.226 169.03V169.016C314.226 168.195 314.373 167.482 314.666 166.877C314.964 166.271 315.384 165.803 315.926 165.471C316.468 165.134 317.107 164.965 317.845 164.965C318.484 164.965 319.036 165.078 319.5 165.302C319.964 165.527 320.335 165.83 320.613 166.21C320.891 166.586 321.07 167.009 321.148 167.478L321.155 167.521H319.888L319.881 167.5C319.783 167.109 319.561 166.777 319.214 166.503C318.868 166.23 318.411 166.093 317.845 166.093C317.371 166.093 316.961 166.213 316.614 166.452C316.267 166.691 315.999 167.031 315.808 167.47C315.623 167.905 315.53 168.42 315.53 169.016V169.03C315.53 169.636 315.625 170.163 315.816 170.612C316.006 171.057 316.275 171.401 316.621 171.645C316.968 171.889 317.376 172.011 317.845 172.011C318.377 172.011 318.811 171.896 319.148 171.667C319.485 171.438 319.727 171.103 319.873 170.664L319.888 170.62L321.148 170.612L321.133 170.693C321.026 171.167 320.835 171.589 320.562 171.96C320.288 172.326 319.927 172.614 319.478 172.824C319.029 173.034 318.487 173.139 317.852 173.139ZM326.185 173.139C325.438 173.139 324.791 172.976 324.244 172.648C323.702 172.316 323.282 171.845 322.984 171.235C322.692 170.625 322.545 169.899 322.545 169.06V169.045C322.545 168.2 322.692 167.473 322.984 166.862C323.282 166.252 323.702 165.783 324.244 165.456C324.791 165.129 325.438 164.965 326.185 164.965C326.937 164.965 327.584 165.129 328.126 165.456C328.668 165.783 329.086 166.252 329.379 166.862C329.676 167.473 329.825 168.2 329.825 169.045V169.06C329.825 169.899 329.676 170.625 329.379 171.235C329.086 171.845 328.668 172.316 328.126 172.648C327.584 172.976 326.937 173.139 326.185 173.139ZM326.185 172.011C326.683 172.011 327.106 171.894 327.452 171.66C327.799 171.425 328.063 171.088 328.243 170.649C328.429 170.209 328.522 169.68 328.522 169.06V169.045C328.522 168.42 328.429 167.888 328.243 167.448C328.063 167.009 327.799 166.674 327.452 166.445C327.106 166.21 326.683 166.093 326.185 166.093C325.687 166.093 325.265 166.21 324.918 166.445C324.571 166.674 324.305 167.009 324.12 167.448C323.939 167.888 323.849 168.42 323.849 169.045V169.06C323.849 169.68 323.939 170.209 324.12 170.649C324.305 171.088 324.571 171.425 324.918 171.66C325.265 171.894 325.687 172.011 326.185 172.011ZM334.643 173.139C333.979 173.139 333.398 172.971 332.9 172.634C332.402 172.297 332.016 171.823 331.742 171.213C331.469 170.598 331.332 169.88 331.332 169.06V169.045C331.332 168.22 331.469 167.502 331.742 166.892C332.016 166.281 332.399 165.808 332.892 165.471C333.39 165.134 333.974 164.965 334.643 164.965C335.004 164.965 335.344 165.024 335.661 165.141C335.983 165.253 336.269 165.412 336.518 165.617C336.767 165.822 336.962 166.066 337.104 166.35H337.221V161.97H338.495V173H337.221V171.74H337.104C336.943 172.033 336.74 172.285 336.496 172.495C336.252 172.7 335.973 172.858 335.661 172.971C335.348 173.083 335.009 173.139 334.643 173.139ZM334.936 172.011C335.414 172.011 335.827 171.892 336.174 171.652C336.52 171.413 336.786 171.074 336.972 170.634C337.158 170.19 337.25 169.665 337.25 169.06V169.045C337.25 168.435 337.158 167.91 336.972 167.47C336.786 167.031 336.52 166.691 336.174 166.452C335.827 166.213 335.414 166.093 334.936 166.093C334.457 166.093 334.045 166.213 333.698 166.452C333.356 166.687 333.093 167.023 332.907 167.463C332.726 167.902 332.636 168.43 332.636 169.045V169.06C332.636 169.67 332.726 170.197 332.907 170.642C333.093 171.081 333.356 171.42 333.698 171.66C334.045 171.894 334.457 172.011 334.936 172.011ZM344.089 173.139C343.337 173.139 342.69 172.973 342.148 172.641C341.611 172.309 341.196 171.84 340.903 171.235C340.615 170.625 340.471 169.907 340.471 169.082V169.074C340.471 168.259 340.615 167.543 340.903 166.928C341.196 166.313 341.609 165.832 342.141 165.485C342.673 165.139 343.296 164.965 344.009 164.965C344.727 164.965 345.342 165.131 345.854 165.463C346.372 165.795 346.768 166.259 347.041 166.855C347.319 167.446 347.458 168.134 347.458 168.92V169.418H341.13V168.4H346.807L346.177 169.331V168.825C346.177 168.205 346.084 167.695 345.898 167.294C345.713 166.894 345.457 166.596 345.129 166.401C344.802 166.201 344.426 166.101 344.001 166.101C343.577 166.101 343.196 166.206 342.859 166.416C342.527 166.621 342.263 166.926 342.068 167.331C341.873 167.736 341.775 168.234 341.775 168.825V169.331C341.775 169.892 341.87 170.373 342.061 170.773C342.251 171.169 342.522 171.474 342.874 171.689C343.225 171.899 343.64 172.004 344.119 172.004C344.475 172.004 344.785 171.955 345.049 171.857C345.312 171.76 345.53 171.635 345.701 171.484C345.872 171.333 345.991 171.179 346.06 171.022L346.089 170.957H347.363L347.349 171.015C347.28 171.284 347.158 171.545 346.982 171.799C346.812 172.048 346.589 172.275 346.316 172.48C346.042 172.68 345.718 172.841 345.342 172.963C344.971 173.081 344.553 173.139 344.089 173.139ZM355.673 173.139C355.175 173.139 354.725 173.044 354.325 172.854C353.93 172.663 353.615 172.392 353.38 172.041C353.151 171.689 353.036 171.274 353.036 170.795V170.781C353.036 170.312 353.148 169.912 353.373 169.58C353.598 169.243 353.925 168.979 354.354 168.789C354.784 168.598 355.304 168.486 355.914 168.452L358.815 168.276V169.294L356.068 169.47C355.468 169.504 355.028 169.628 354.75 169.843C354.476 170.058 354.34 170.361 354.34 170.751V170.766C354.34 171.167 354.491 171.479 354.794 171.704C355.097 171.923 355.477 172.033 355.936 172.033C356.371 172.033 356.757 171.948 357.094 171.777C357.431 171.601 357.694 171.364 357.885 171.066C358.08 170.769 358.178 170.432 358.178 170.056V167.595C358.178 167.106 358.029 166.735 357.731 166.481C357.438 166.223 356.996 166.093 356.405 166.093C355.932 166.093 355.543 166.179 355.241 166.35C354.938 166.516 354.735 166.752 354.633 167.06L354.625 167.082H353.351L353.358 167.038C353.427 166.623 353.598 166.262 353.871 165.954C354.149 165.642 354.508 165.4 354.948 165.229C355.387 165.053 355.888 164.965 356.449 164.965C357.094 164.965 357.638 165.07 358.082 165.28C358.532 165.49 358.871 165.793 359.1 166.188C359.335 166.579 359.452 167.048 359.452 167.595V173H358.178V171.835H358.06C357.894 172.114 357.692 172.351 357.453 172.546C357.218 172.741 356.952 172.89 356.654 172.993C356.356 173.09 356.029 173.139 355.673 173.139ZM364.511 173.059C363.701 173.059 363.112 172.895 362.746 172.568C362.385 172.241 362.204 171.701 362.204 170.949V166.159H360.959V165.104H362.204V163.061H363.523V165.104H365.251V166.159H363.523V170.627C363.523 171.091 363.61 171.425 363.786 171.63C363.962 171.831 364.255 171.931 364.665 171.931C364.777 171.931 364.873 171.928 364.951 171.923C365.034 171.918 365.134 171.911 365.251 171.901V172.985C365.129 173.005 365.007 173.022 364.885 173.037C364.763 173.051 364.638 173.059 364.511 173.059ZM374.029 173.059C373.219 173.059 372.63 172.895 372.264 172.568C371.903 172.241 371.722 171.701 371.722 170.949V166.159H370.477V165.104H371.722V163.061H373.041V165.104H374.769V166.159H373.041V170.627C373.041 171.091 373.128 171.425 373.304 171.63C373.48 171.831 373.773 171.931 374.183 171.931C374.295 171.931 374.391 171.928 374.469 171.923C374.552 171.918 374.652 171.911 374.769 171.901V172.985C374.647 173.005 374.525 173.022 374.403 173.037C374.281 173.051 374.156 173.059 374.029 173.059ZM376.672 173V161.97H377.946V166.291H378.063C378.263 165.871 378.551 165.546 378.927 165.317C379.303 165.083 379.782 164.965 380.363 164.965C380.954 164.965 381.454 165.08 381.864 165.31C382.275 165.534 382.587 165.864 382.802 166.298C383.017 166.733 383.124 167.263 383.124 167.888V173H381.85V168.195C381.85 167.482 381.698 166.955 381.396 166.613C381.098 166.267 380.634 166.093 380.004 166.093C379.584 166.093 379.22 166.184 378.913 166.364C378.605 166.545 378.366 166.801 378.195 167.133C378.029 167.465 377.946 167.863 377.946 168.327V173H376.672ZM388.579 173.139C387.827 173.139 387.18 172.973 386.638 172.641C386.101 172.309 385.686 171.84 385.393 171.235C385.105 170.625 384.961 169.907 384.961 169.082V169.074C384.961 168.259 385.105 167.543 385.393 166.928C385.686 166.313 386.099 165.832 386.631 165.485C387.163 165.139 387.786 164.965 388.498 164.965C389.216 164.965 389.831 165.131 390.344 165.463C390.862 165.795 391.257 166.259 391.531 166.855C391.809 167.446 391.948 168.134 391.948 168.92V169.418H385.62V168.4H391.296L390.666 169.331V168.825C390.666 168.205 390.574 167.695 390.388 167.294C390.203 166.894 389.946 166.596 389.619 166.401C389.292 166.201 388.916 166.101 388.491 166.101C388.066 166.101 387.685 166.206 387.349 166.416C387.016 166.621 386.753 166.926 386.557 167.331C386.362 167.736 386.265 168.234 386.265 168.825V169.331C386.265 169.892 386.36 170.373 386.55 170.773C386.741 171.169 387.012 171.474 387.363 171.689C387.715 171.899 388.13 172.004 388.608 172.004C388.965 172.004 389.275 171.955 389.538 171.857C389.802 171.76 390.019 171.635 390.19 171.484C390.361 171.333 390.481 171.179 390.549 171.022L390.578 170.957H391.853L391.838 171.015C391.77 171.284 391.648 171.545 391.472 171.799C391.301 172.048 391.079 172.275 390.806 172.48C390.532 172.68 390.207 172.841 389.831 172.963C389.46 173.081 389.043 173.139 388.579 173.139ZM397.994 173V165.104H399.269V166.276H399.386C399.537 165.861 399.794 165.539 400.155 165.31C400.516 165.08 400.963 164.965 401.495 164.965C401.617 164.965 401.737 164.973 401.854 164.987C401.976 164.997 402.069 165.007 402.133 165.017V166.254C402.001 166.23 401.871 166.213 401.744 166.203C401.622 166.188 401.491 166.181 401.349 166.181C400.944 166.181 400.585 166.262 400.272 166.423C399.96 166.584 399.713 166.809 399.533 167.097C399.357 167.385 399.269 167.722 399.269 168.107V173H397.994ZM406.635 173.139C405.883 173.139 405.236 172.973 404.694 172.641C404.157 172.309 403.742 171.84 403.449 171.235C403.161 170.625 403.017 169.907 403.017 169.082V169.074C403.017 168.259 403.161 167.543 403.449 166.928C403.742 166.313 404.155 165.832 404.687 165.485C405.219 165.139 405.842 164.965 406.555 164.965C407.272 164.965 407.888 165.131 408.4 165.463C408.918 165.795 409.313 166.259 409.587 166.855C409.865 167.446 410.004 168.134 410.004 168.92V169.418H403.676V168.4H409.353L408.723 169.331V168.825C408.723 168.205 408.63 167.695 408.444 167.294C408.259 166.894 408.002 166.596 407.675 166.401C407.348 166.201 406.972 166.101 406.547 166.101C406.123 166.101 405.742 166.206 405.405 166.416C405.073 166.621 404.809 166.926 404.614 167.331C404.418 167.736 404.321 168.234 404.321 168.825V169.331C404.321 169.892 404.416 170.373 404.606 170.773C404.797 171.169 405.068 171.474 405.419 171.689C405.771 171.899 406.186 172.004 406.665 172.004C407.021 172.004 407.331 171.955 407.595 171.857C407.858 171.76 408.076 171.635 408.247 171.484C408.417 171.333 408.537 171.179 408.605 171.022L408.635 170.957H409.909L409.895 171.015C409.826 171.284 409.704 171.545 409.528 171.799C409.357 172.048 409.135 172.275 408.862 172.48C408.588 172.68 408.264 172.841 407.888 172.963C407.517 173.081 407.099 173.139 406.635 173.139ZM414.617 173.139C414.031 173.139 413.513 173.051 413.064 172.875C412.615 172.695 412.254 172.443 411.98 172.121C411.712 171.799 411.553 171.42 411.504 170.986H412.808C412.915 171.313 413.125 171.577 413.438 171.777C413.75 171.977 414.158 172.077 414.661 172.077C415.017 172.077 415.33 172.026 415.598 171.923C415.872 171.816 416.087 171.672 416.243 171.491C416.399 171.306 416.477 171.093 416.477 170.854V170.839C416.477 170.571 416.37 170.344 416.155 170.158C415.94 169.968 415.589 169.814 415.1 169.697L413.877 169.404C413.384 169.287 412.979 169.135 412.661 168.95C412.344 168.759 412.11 168.527 411.958 168.254C411.807 167.976 411.731 167.648 411.731 167.272V167.265C411.731 166.826 411.858 166.433 412.112 166.086C412.371 165.739 412.722 165.466 413.167 165.266C413.611 165.065 414.112 164.965 414.668 164.965C415.22 164.965 415.708 165.053 416.133 165.229C416.563 165.4 416.907 165.644 417.166 165.961C417.429 166.279 417.591 166.652 417.649 167.082H416.397C416.314 166.77 416.123 166.516 415.825 166.32C415.528 166.125 415.139 166.027 414.661 166.027C414.348 166.027 414.07 166.079 413.826 166.181C413.582 166.279 413.389 166.416 413.247 166.591C413.106 166.767 413.035 166.972 413.035 167.207V167.221C413.035 167.397 413.081 167.553 413.174 167.69C413.267 167.827 413.411 167.946 413.606 168.049C413.801 168.151 414.053 168.242 414.361 168.32L415.576 168.613C416.319 168.793 416.87 169.052 417.232 169.389C417.598 169.726 417.781 170.178 417.781 170.744V170.759C417.781 171.228 417.642 171.643 417.363 172.004C417.085 172.36 416.707 172.639 416.228 172.839C415.755 173.039 415.217 173.139 414.617 173.139ZM422.415 173.059C421.605 173.059 421.016 172.895 420.65 172.568C420.289 172.241 420.108 171.701 420.108 170.949V166.159H418.863V165.104H420.108V163.061H421.427V165.104H423.155V166.159H421.427V170.627C421.427 171.091 421.515 171.425 421.69 171.63C421.866 171.831 422.159 171.931 422.569 171.931C422.682 171.931 422.777 171.928 422.855 171.923C422.938 171.918 423.038 171.911 423.155 171.901V172.985C423.033 173.005 422.911 173.022 422.789 173.037C422.667 173.051 422.542 173.059 422.415 173.059ZM427.152 173.139C426.654 173.139 426.205 173.044 425.805 172.854C425.409 172.663 425.094 172.392 424.86 172.041C424.63 171.689 424.516 171.274 424.516 170.795V170.781C424.516 170.312 424.628 169.912 424.853 169.58C425.077 169.243 425.404 168.979 425.834 168.789C426.264 168.598 426.784 168.486 427.394 168.452L430.295 168.276V169.294L427.548 169.47C426.947 169.504 426.508 169.628 426.23 169.843C425.956 170.058 425.819 170.361 425.819 170.751V170.766C425.819 171.167 425.971 171.479 426.274 171.704C426.576 171.923 426.957 172.033 427.416 172.033C427.851 172.033 428.236 171.948 428.573 171.777C428.91 171.601 429.174 171.364 429.364 171.066C429.56 170.769 429.657 170.432 429.657 170.056V167.595C429.657 167.106 429.508 166.735 429.211 166.481C428.918 166.223 428.476 166.093 427.885 166.093C427.411 166.093 427.023 166.179 426.72 166.35C426.418 166.516 426.215 166.752 426.112 167.06L426.105 167.082H424.831L424.838 167.038C424.906 166.623 425.077 166.262 425.351 165.954C425.629 165.642 425.988 165.4 426.427 165.229C426.867 165.053 427.367 164.965 427.929 164.965C428.573 164.965 429.118 165.07 429.562 165.28C430.011 165.49 430.351 165.793 430.58 166.188C430.815 166.579 430.932 167.048 430.932 167.595V173H429.657V171.835H429.54C429.374 172.114 429.172 172.351 428.932 172.546C428.698 172.741 428.432 172.89 428.134 172.993C427.836 173.09 427.509 173.139 427.152 173.139ZM435.83 173.139C435.234 173.139 434.734 173.027 434.328 172.802C433.923 172.573 433.618 172.241 433.413 171.806C433.213 171.367 433.113 170.837 433.113 170.217V165.104H434.387V169.909C434.387 170.617 434.524 171.145 434.797 171.491C435.076 171.838 435.53 172.011 436.159 172.011C436.506 172.011 436.811 171.96 437.075 171.857C437.344 171.755 437.568 171.608 437.749 171.418C437.93 171.223 438.064 170.988 438.152 170.715C438.244 170.437 438.291 170.124 438.291 169.777V165.104H439.565V173H438.291V171.821H438.174C438.047 172.099 437.873 172.338 437.654 172.539C437.434 172.734 437.17 172.883 436.863 172.985C436.56 173.088 436.216 173.139 435.83 173.139ZM441.871 173V165.104H443.145V166.276H443.262C443.414 165.861 443.67 165.539 444.031 165.31C444.393 165.08 444.839 164.965 445.372 164.965C445.494 164.965 445.613 164.973 445.73 164.987C445.853 164.997 445.945 165.007 446.009 165.017V166.254C445.877 166.23 445.748 166.213 445.621 166.203C445.499 166.188 445.367 166.181 445.225 166.181C444.82 166.181 444.461 166.262 444.148 166.423C443.836 166.584 443.589 166.809 443.409 167.097C443.233 167.385 443.145 167.722 443.145 168.107V173H441.871ZM449.676 173.139C449.178 173.139 448.729 173.044 448.329 172.854C447.933 172.663 447.618 172.392 447.384 172.041C447.154 171.689 447.04 171.274 447.04 170.795V170.781C447.04 170.312 447.152 169.912 447.377 169.58C447.601 169.243 447.928 168.979 448.358 168.789C448.788 168.598 449.308 168.486 449.918 168.452L452.819 168.276V169.294L450.072 169.47C449.471 169.504 449.032 169.628 448.754 169.843C448.48 170.058 448.343 170.361 448.343 170.751V170.766C448.343 171.167 448.495 171.479 448.798 171.704C449.1 171.923 449.481 172.033 449.94 172.033C450.375 172.033 450.76 171.948 451.097 171.777C451.434 171.601 451.698 171.364 451.888 171.066C452.084 170.769 452.181 170.432 452.181 170.056V167.595C452.181 167.106 452.032 166.735 451.735 166.481C451.442 166.223 451 166.093 450.409 166.093C449.935 166.093 449.547 166.179 449.244 166.35C448.942 166.516 448.739 166.752 448.636 167.06L448.629 167.082H447.355L447.362 167.038C447.43 166.623 447.601 166.262 447.875 165.954C448.153 165.642 448.512 165.4 448.951 165.229C449.391 165.053 449.891 164.965 450.453 164.965C451.097 164.965 451.642 165.07 452.086 165.28C452.535 165.49 452.875 165.793 453.104 166.188C453.339 166.579 453.456 167.048 453.456 167.595V173H452.181V171.835H452.064C451.898 172.114 451.695 172.351 451.456 172.546C451.222 172.741 450.956 172.89 450.658 172.993C450.36 173.09 450.033 173.139 449.676 173.139ZM455.71 173V165.104H456.984V166.291H457.101C457.302 165.871 457.59 165.546 457.966 165.317C458.342 165.083 458.82 164.965 459.401 164.965C460.29 164.965 460.971 165.219 461.445 165.727C461.923 166.23 462.162 166.95 462.162 167.888V173H460.888V168.195C460.888 167.482 460.737 166.955 460.434 166.613C460.136 166.267 459.672 166.093 459.042 166.093C458.622 166.093 458.259 166.184 457.951 166.364C457.643 166.545 457.404 166.801 457.233 167.133C457.067 167.465 456.984 167.863 456.984 168.327V173H455.71ZM467.2 173.059C466.389 173.059 465.801 172.895 465.435 172.568C465.073 172.241 464.893 171.701 464.893 170.949V166.159H463.648V165.104H464.893V163.061H466.211V165.104H467.94V166.159H466.211V170.627C466.211 171.091 466.299 171.425 466.475 171.63C466.651 171.831 466.943 171.931 467.354 171.931C467.466 171.931 467.561 171.928 467.639 171.923C467.722 171.918 467.822 171.911 467.94 171.901V172.985C467.818 173.005 467.695 173.022 467.573 173.037C467.451 173.051 467.327 173.059 467.2 173.059ZM470.809 173.073C470.55 173.073 470.326 172.98 470.135 172.795C469.95 172.604 469.857 172.38 469.857 172.121C469.857 171.857 469.95 171.633 470.135 171.447C470.326 171.262 470.55 171.169 470.809 171.169C471.073 171.169 471.297 171.262 471.483 171.447C471.668 171.633 471.761 171.857 471.761 172.121C471.761 172.38 471.668 172.604 471.483 172.795C471.297 172.98 471.073 173.073 470.809 173.073Z" fill="black"/>
<g clip-path="url(#clip0_183_1912)">
<path d="M477 0H14V140H477V0Z" fill="white"/>
<path d="M27.9699 10H23.9785V110H27.9699V10Z" fill="black"/>
<path d="M31.9615 10H29.9658V110H31.9615V10Z" fill="black"/>
<path d="M41.9402 10H35.9531V110H41.9402V10Z" fill="black"/>
<path d="M51.9177 10H45.9307V110H51.9177V10Z" fill="black"/>
<path d="M57.9054 10H53.9141V110H57.9054V10Z" fill="black"/>
<path d="M65.8884 10H59.9014V110H65.8884V10Z" fill="black"/>
<path d="M73.8709 10H67.8838V110H73.8709V10Z" fill="black"/>
<path d="M79.858 10H77.8623V110H79.858V10Z" fill="black"/>
<path d="M85.8449 10H81.8535V110H85.8449V10Z" fill="black"/>
<path d="M95.823 10H89.8359V110H95.823V10Z" fill="black"/>
<path d="M99.815 10H97.8193V110H99.815V10Z" fill="black"/>
<path d="M109.793 10H101.811V110H109.793V10Z" fill="black"/>
<path d="M115.78 10H111.789V110H115.78V10Z" fill="black"/>
<path d="M121.768 10H117.776V110H121.768V10Z" fill="black"/>
<path d="M129.75 10H125.759V110H129.75V10Z" fill="black"/>
<path d="M135.737 10H133.741V110H135.737V10Z" fill="black"/>
<path d="M143.719 10H137.732V110H143.719V10Z" fill="black"/>
<path d="M153.699 10H145.716V110H153.699V10Z" fill="black"/>
<path d="M159.686 10H155.694V110H159.686V10Z" fill="black"/>
<path d="M167.668 10H161.681V110H167.668V10Z" fill="black"/>
<path d="M173.655 10H171.659V110H173.655V10Z" fill="black"/>
<path d="M179.642 10H177.646V110H179.642V10Z" fill="black"/>
<path d="M187.625 10H183.634V110H187.625V10Z" fill="black"/>
<path d="M195.608 10H189.621V110H195.608V10Z" fill="black"/>
<path d="M205.587 10H199.6V110H205.587V10Z" fill="black"/>
<path d="M209.578 10H207.582V110H209.578V10Z" fill="black"/>
<path d="M219.556 10H211.573V110H219.556V10Z" fill="black"/>
<path d="M225.543 10H221.552V110H225.543V10Z" fill="black"/>
<path d="M231.53 10H227.539V110H231.53V10Z" fill="black"/>
<path d="M239.513 10H235.521V110H239.513V10Z" fill="black"/>
<path d="M245.5 10H243.504V110H245.5V10Z" fill="black"/>
<path d="M253.483 10H247.496V110H253.483V10Z" fill="black"/>
<path d="M263.461 10H255.479V110H263.461V10Z" fill="black"/>
<path d="M267.453 10H265.457V110H267.453V10Z" fill="black"/>
<path d="M273.44 10H271.444V110H273.44V10Z" fill="black"/>
<path d="M279.427 10H275.436V110H279.427V10Z" fill="black"/>
<path d="M289.405 10H287.409V110H289.405V10Z" fill="black"/>
<path d="M297.388 10H293.396V110H297.388V10Z" fill="black"/>
<path d="M305.371 10H299.384V110H305.371V10Z" fill="black"/>
<path d="M315.349 10H309.362V110H315.349V10Z" fill="black"/>
<path d="M319.34 10H317.345V110H319.34V10Z" fill="black"/>
<path d="M329.319 10H321.336V110H329.319V10Z" fill="black"/>
<path d="M335.306 10H331.314V110H335.306V10Z" fill="black"/>
<path d="M341.293 10H337.302V110H341.293V10Z" fill="black"/>
<path d="M349.276 10H345.284V110H349.276V10Z" fill="black"/>
<path d="M355.263 10H353.268V110H355.263V10Z" fill="black"/>
<path d="M363.246 10H357.259V110H363.246V10Z" fill="black"/>
<path d="M373.224 10H365.241V110H373.224V10Z" fill="black"/>
<path d="M377.215 10H375.22V110H377.215V10Z" fill="black"/>
<path d="M385.198 10H381.207V110H385.198V10Z" fill="black"/>
<path d="M395.176 10H393.181V110H395.176V10Z" fill="black"/>
<path d="M401.164 10H397.173V110H401.164V10Z" fill="black"/>
<path d="M411.142 10H405.155V110H411.142V10Z" fill="black"/>
<path d="M417.129 10H415.134V110H417.129V10Z" fill="black"/>
<path d="M421.121 10H419.125V110H421.121V10Z" fill="black"/>
<path d="M433.095 10H425.112V110H433.095V10Z" fill="black"/>
<path d="M437.087 10H435.091V110H437.087V10Z" fill="black"/>
<path d="M445.07 10H441.078V110H445.07V10Z" fill="black"/>
<path d="M457.043 10H451.056V110H457.043V10Z" fill="black"/>
<path d="M461.035 10H459.039V110H461.035V10Z" fill="black"/>
<path d="M467.022 10H463.03V110H467.022V10Z" fill="black"/>
<path d="M190.316 132V131.092L193.891 127.225C194.34 126.736 194.691 126.333 194.945 126.016C195.199 125.694 195.378 125.403 195.48 125.145C195.583 124.886 195.634 124.603 195.634 124.295V124.28C195.634 123.909 195.553 123.577 195.392 123.284C195.231 122.991 195.002 122.759 194.704 122.588C194.406 122.417 194.049 122.332 193.634 122.332C193.214 122.332 192.846 122.42 192.528 122.596C192.211 122.767 191.964 123.008 191.789 123.321C191.613 123.628 191.525 123.99 191.525 124.405L191.518 124.419L190.258 124.412L190.243 124.405C190.248 123.78 190.399 123.226 190.697 122.742C190.995 122.254 191.405 121.873 191.928 121.6C192.45 121.321 193.048 121.182 193.722 121.182C194.337 121.182 194.892 121.312 195.385 121.57C195.878 121.824 196.266 122.173 196.549 122.618C196.837 123.062 196.982 123.57 196.982 124.141V124.156C196.982 124.556 196.911 124.942 196.769 125.313C196.632 125.684 196.388 126.097 196.037 126.551C195.685 127 195.19 127.554 194.55 128.213L191.818 131.033L192.148 130.425V131.033L191.825 130.813H197.157V132H190.316ZM202.89 132.176C202.163 132.176 201.528 132.051 200.986 131.802C200.444 131.553 200.014 131.211 199.697 130.777C199.385 130.342 199.204 129.847 199.155 129.29L199.148 129.202H200.415L200.422 129.275C200.456 129.622 200.578 129.927 200.788 130.191C201.003 130.455 201.289 130.662 201.645 130.813C202.007 130.96 202.422 131.033 202.89 131.033C203.354 131.033 203.76 130.953 204.106 130.792C204.458 130.63 204.731 130.408 204.927 130.125C205.122 129.837 205.22 129.507 205.22 129.136V129.122C205.22 128.472 205.002 127.974 204.568 127.627C204.138 127.276 203.552 127.1 202.81 127.1H201.484V125.987H202.751C203.171 125.987 203.542 125.909 203.865 125.752C204.187 125.591 204.438 125.374 204.619 125.101C204.8 124.822 204.89 124.507 204.89 124.156V124.141C204.89 123.77 204.812 123.455 204.656 123.196C204.499 122.938 204.27 122.74 203.967 122.603C203.669 122.466 203.305 122.398 202.876 122.398C202.461 122.398 202.09 122.469 201.762 122.61C201.44 122.747 201.181 122.945 200.986 123.204C200.791 123.462 200.674 123.77 200.635 124.126L200.627 124.2H199.36L199.367 124.126C199.426 123.55 199.607 123.047 199.909 122.618C200.217 122.188 200.622 121.854 201.125 121.614C201.633 121.375 202.217 121.255 202.876 121.255C203.55 121.255 204.136 121.373 204.634 121.607C205.137 121.836 205.525 122.156 205.798 122.566C206.076 122.972 206.216 123.443 206.216 123.98V123.995C206.216 124.429 206.12 124.815 205.93 125.152C205.74 125.489 205.476 125.77 205.139 125.994C204.802 126.219 204.414 126.377 203.974 126.47V126.5C204.746 126.563 205.368 126.824 205.842 127.283C206.321 127.737 206.56 128.34 206.56 129.092V129.107C206.56 129.693 206.401 130.218 206.084 130.682C205.766 131.146 205.332 131.512 204.78 131.78C204.228 132.044 203.598 132.176 202.89 132.176ZM208.624 132V131.092L212.198 127.225C212.647 126.736 212.999 126.333 213.252 126.016C213.506 125.694 213.685 125.403 213.787 125.145C213.89 124.886 213.941 124.603 213.941 124.295V124.28C213.941 123.909 213.86 123.577 213.699 123.284C213.538 122.991 213.309 122.759 213.011 122.588C212.713 122.417 212.356 122.332 211.941 122.332C211.521 122.332 211.153 122.42 210.835 122.596C210.518 122.767 210.271 123.008 210.096 123.321C209.92 123.628 209.832 123.99 209.832 124.405L209.825 124.419L208.565 124.412L208.55 124.405C208.555 123.78 208.707 123.226 209.004 122.742C209.302 122.254 209.712 121.873 210.235 121.6C210.757 121.321 211.355 121.182 212.029 121.182C212.645 121.182 213.199 121.312 213.692 121.57C214.185 121.824 214.573 122.173 214.856 122.618C215.145 123.062 215.289 123.57 215.289 124.141V124.156C215.289 124.556 215.218 124.942 215.076 125.313C214.939 125.684 214.695 126.097 214.344 126.551C213.992 127 213.497 127.554 212.857 128.213L210.125 131.033L210.455 130.425V131.033L210.132 130.813H215.464V132H208.624ZM221.073 132.249C220.419 132.249 219.835 132.12 219.322 131.861C218.81 131.602 218.397 131.25 218.085 130.806C217.777 130.357 217.596 129.852 217.543 129.29L217.535 129.209H218.802L218.81 129.268C218.854 129.605 218.976 129.913 219.176 130.191C219.381 130.464 219.647 130.682 219.974 130.843C220.306 131.004 220.677 131.084 221.088 131.084C221.556 131.084 221.969 130.982 222.325 130.777C222.682 130.567 222.96 130.279 223.16 129.913C223.361 129.546 223.461 129.126 223.461 128.653V128.638C223.461 128.169 223.358 127.754 223.153 127.393C222.953 127.027 222.677 126.741 222.325 126.536C221.974 126.331 221.569 126.229 221.11 126.229C220.758 126.229 220.433 126.282 220.135 126.39C219.842 126.497 219.581 126.658 219.352 126.873C219.259 126.961 219.171 127.056 219.088 127.159C219.01 127.261 218.937 127.376 218.868 127.503H217.726L218.282 121.431H224.164V122.61H219.322L218.964 126.185H219.081C219.237 125.945 219.43 125.745 219.659 125.584C219.889 125.423 220.145 125.301 220.428 125.218C220.716 125.13 221.019 125.086 221.337 125.086C222.001 125.086 222.589 125.24 223.102 125.547C223.614 125.85 224.017 126.268 224.31 126.8C224.603 127.327 224.75 127.933 224.75 128.616V128.631C224.75 129.339 224.591 129.966 224.274 130.513C223.961 131.055 223.529 131.48 222.977 131.788C222.425 132.095 221.791 132.249 221.073 132.249ZM230.942 132V131.092L234.517 127.225C234.966 126.736 235.317 126.333 235.571 126.016C235.825 125.694 236.004 125.403 236.106 125.145C236.209 124.886 236.26 124.603 236.26 124.295V124.28C236.26 123.909 236.179 123.577 236.018 123.284C235.857 122.991 235.628 122.759 235.33 122.588C235.032 122.417 234.675 122.332 234.26 122.332C233.84 122.332 233.472 122.42 233.154 122.596C232.837 122.767 232.59 123.008 232.415 123.321C232.239 123.628 232.151 123.99 232.151 124.405L232.144 124.419L230.884 124.412L230.869 124.405C230.874 123.78 231.025 123.226 231.323 122.742C231.621 122.254 232.031 121.873 232.554 121.6C233.076 121.321 233.674 121.182 234.348 121.182C234.963 121.182 235.518 121.312 236.011 121.57C236.504 121.824 236.892 122.173 237.175 122.618C237.463 123.062 237.608 123.57 237.608 124.141V124.156C237.608 124.556 237.537 124.942 237.395 125.313C237.258 125.684 237.014 126.097 236.663 126.551C236.311 127 235.816 127.554 235.176 128.213L232.444 131.033L232.774 130.425V131.033L232.451 130.813H237.783V132H230.942ZM242.506 132V122.896H242.388L239.7 124.844V123.453L242.513 121.431H243.824V132H242.506ZM249.389 132V122.896H249.271L246.583 124.844V123.453L249.396 121.431H250.707V132H249.389ZM257.282 132.176C256.555 132.176 255.92 132.051 255.378 131.802C254.836 131.553 254.406 131.211 254.089 130.777C253.777 130.342 253.596 129.847 253.547 129.29L253.54 129.202H254.807L254.814 129.275C254.848 129.622 254.97 129.927 255.18 130.191C255.395 130.455 255.681 130.662 256.037 130.813C256.399 130.96 256.814 131.033 257.282 131.033C257.746 131.033 258.152 130.953 258.498 130.792C258.85 130.63 259.123 130.408 259.319 130.125C259.514 129.837 259.612 129.507 259.612 129.136V129.122C259.612 128.472 259.394 127.974 258.96 127.627C258.53 127.276 257.944 127.1 257.202 127.1H255.876V125.987H257.143C257.563 125.987 257.934 125.909 258.257 125.752C258.579 125.591 258.83 125.374 259.011 125.101C259.192 124.822 259.282 124.507 259.282 124.156V124.141C259.282 123.77 259.204 123.455 259.048 123.196C258.891 122.938 258.662 122.74 258.359 122.603C258.061 122.466 257.697 122.398 257.268 122.398C256.853 122.398 256.482 122.469 256.154 122.61C255.832 122.747 255.573 122.945 255.378 123.204C255.183 123.462 255.066 123.77 255.027 124.126L255.019 124.2H253.752L253.759 124.126C253.818 123.55 253.999 123.047 254.301 122.618C254.609 122.188 255.014 121.854 255.517 121.614C256.025 121.375 256.609 121.255 257.268 121.255C257.942 121.255 258.528 121.373 259.026 121.607C259.529 121.836 259.917 122.156 260.19 122.566C260.468 122.972 260.608 123.443 260.608 123.98V123.995C260.608 124.429 260.512 124.815 260.322 125.152C260.132 125.489 259.868 125.77 259.531 125.994C259.194 126.219 258.806 126.377 258.366 126.47V126.5C259.138 126.563 259.76 126.824 260.234 127.283C260.713 127.737 260.952 128.34 260.952 129.092V129.107C260.952 129.693 260.793 130.218 260.476 130.682C260.158 131.146 259.724 131.512 259.172 131.78C258.62 132.044 257.99 132.176 257.282 132.176ZM270.895 132.249C270.411 132.249 269.933 132.156 269.459 131.971C268.99 131.785 268.563 131.485 268.177 131.07C267.796 130.655 267.491 130.108 267.262 129.429C267.032 128.746 266.918 127.906 266.918 126.91V126.895C266.918 125.694 267.079 124.668 267.401 123.819C267.723 122.964 268.187 122.312 268.793 121.863C269.398 121.409 270.128 121.182 270.983 121.182C271.573 121.182 272.106 121.292 272.579 121.512C273.058 121.727 273.456 122.029 273.773 122.42C274.095 122.806 274.315 123.26 274.432 123.782L274.454 123.877H273.129L273.099 123.797C272.992 123.499 272.838 123.245 272.638 123.035C272.442 122.82 272.203 122.654 271.92 122.537C271.642 122.42 271.324 122.361 270.968 122.361C270.328 122.361 269.808 122.549 269.408 122.925C269.007 123.296 268.71 123.792 268.514 124.412C268.324 125.027 268.214 125.704 268.185 126.441C268.18 126.504 268.177 126.57 268.177 126.639C268.177 126.702 268.177 126.768 268.177 126.836L268.492 128.594C268.492 129.058 268.597 129.478 268.807 129.854C269.022 130.23 269.31 130.53 269.671 130.755C270.033 130.975 270.436 131.084 270.88 131.084C271.324 131.084 271.727 130.977 272.088 130.762C272.45 130.542 272.735 130.247 272.945 129.876C273.16 129.505 273.268 129.092 273.268 128.638V128.624C273.268 128.155 273.165 127.74 272.96 127.378C272.76 127.012 272.482 126.727 272.125 126.521C271.769 126.312 271.361 126.207 270.902 126.207C270.448 126.207 270.038 126.309 269.671 126.514C269.31 126.719 269.022 127.002 268.807 127.364C268.597 127.72 268.492 128.128 268.492 128.587V128.594H268.06V126.69H268.316C268.448 126.402 268.644 126.133 268.902 125.884C269.161 125.635 269.479 125.435 269.855 125.284C270.231 125.132 270.655 125.057 271.129 125.057C271.793 125.057 272.386 125.21 272.909 125.518C273.431 125.826 273.841 126.246 274.139 126.778C274.442 127.31 274.593 127.916 274.593 128.594V128.609C274.593 129.312 274.432 129.937 274.11 130.484C273.793 131.031 273.356 131.463 272.799 131.78C272.242 132.093 271.608 132.249 270.895 132.249ZM280.107 132.249C279.452 132.249 278.869 132.12 278.356 131.861C277.844 131.602 277.431 131.25 277.118 130.806C276.811 130.357 276.63 129.852 276.576 129.29L276.569 129.209H277.836L277.844 129.268C277.887 129.605 278.01 129.913 278.21 130.191C278.415 130.464 278.681 130.682 279.008 130.843C279.34 131.004 279.711 131.084 280.121 131.084C280.59 131.084 281.003 130.982 281.359 130.777C281.716 130.567 281.994 130.279 282.194 129.913C282.394 129.546 282.494 129.126 282.494 128.653V128.638C282.494 128.169 282.392 127.754 282.187 127.393C281.987 127.027 281.711 126.741 281.359 126.536C281.008 126.331 280.602 126.229 280.143 126.229C279.792 126.229 279.467 126.282 279.169 126.39C278.876 126.497 278.615 126.658 278.386 126.873C278.293 126.961 278.205 127.056 278.122 127.159C278.044 127.261 277.97 127.376 277.902 127.503H276.76L277.316 121.431H283.198V122.61H278.356L277.997 126.185H278.115C278.271 125.945 278.464 125.745 278.693 125.584C278.923 125.423 279.179 125.301 279.462 125.218C279.75 125.13 280.053 125.086 280.37 125.086C281.034 125.086 281.623 125.24 282.136 125.547C282.648 125.85 283.051 126.268 283.344 126.8C283.637 127.327 283.783 127.933 283.783 128.616V128.631C283.783 129.339 283.625 129.966 283.307 130.513C282.995 131.055 282.563 131.48 282.011 131.788C281.459 132.095 280.825 132.249 280.107 132.249ZM288.418 132V122.896H288.301L285.613 124.844V123.453L288.425 121.431H289.736V132H288.418ZM296.312 132.176C295.584 132.176 294.949 132.051 294.407 131.802C293.865 131.553 293.436 131.211 293.118 130.777C292.806 130.342 292.625 129.847 292.576 129.29L292.569 129.202H293.836L293.843 129.275C293.878 129.622 294 129.927 294.21 130.191C294.424 130.455 294.71 130.662 295.067 130.813C295.428 130.96 295.843 131.033 296.312 131.033C296.776 131.033 297.181 130.953 297.528 130.792C297.879 130.63 298.153 130.408 298.348 130.125C298.543 129.837 298.641 129.507 298.641 129.136V129.122C298.641 128.472 298.424 127.974 297.989 127.627C297.559 127.276 296.973 127.1 296.231 127.1H294.905V125.987H296.173C296.592 125.987 296.964 125.909 297.286 125.752C297.608 125.591 297.86 125.374 298.04 125.101C298.221 124.822 298.311 124.507 298.311 124.156V124.141C298.311 123.77 298.233 123.455 298.077 123.196C297.921 122.938 297.691 122.74 297.388 122.603C297.091 122.466 296.727 122.398 296.297 122.398C295.882 122.398 295.511 122.469 295.184 122.61C294.862 122.747 294.603 122.945 294.407 123.204C294.212 123.462 294.095 123.77 294.056 124.126L294.049 124.2H292.781L292.789 124.126C292.847 123.55 293.028 123.047 293.331 122.618C293.638 122.188 294.044 121.854 294.547 121.614C295.054 121.375 295.638 121.255 296.297 121.255C296.971 121.255 297.557 121.373 298.055 121.607C298.558 121.836 298.946 122.156 299.219 122.566C299.498 122.972 299.637 123.443 299.637 123.98V123.995C299.637 124.429 299.542 124.815 299.351 125.152C299.161 125.489 298.897 125.77 298.56 125.994C298.223 126.219 297.835 126.377 297.396 126.47V126.5C298.167 126.563 298.79 126.824 299.263 127.283C299.742 127.737 299.981 128.34 299.981 129.092V129.107C299.981 129.693 299.822 130.218 299.505 130.682C299.188 131.146 298.753 131.512 298.201 131.78C297.65 132.044 297.02 132.176 296.312 132.176ZM229.667 150L234.413 140.713V140.61H228.759V139.431H235.754V140.654L231.051 150H229.667ZM237.693 150V149.092L241.267 145.225C241.716 144.736 242.068 144.333 242.322 144.016C242.576 143.694 242.754 143.403 242.856 143.145C242.959 142.886 243.01 142.603 243.01 142.295V142.28C243.01 141.909 242.93 141.577 242.768 141.284C242.607 140.991 242.378 140.759 242.08 140.588C241.782 140.417 241.426 140.332 241.011 140.332C240.591 140.332 240.222 140.42 239.905 140.596C239.587 140.767 239.341 141.008 239.165 141.321C238.989 141.628 238.901 141.99 238.901 142.405L238.894 142.419L237.634 142.412L237.62 142.405C237.624 141.78 237.776 141.226 238.074 140.742C238.371 140.254 238.782 139.873 239.304 139.6C239.827 139.321 240.425 139.182 241.099 139.182C241.714 139.182 242.268 139.312 242.761 139.57C243.254 139.824 243.642 140.173 243.926 140.618C244.214 141.062 244.358 141.57 244.358 142.141V142.156C244.358 142.556 244.287 142.942 244.145 143.313C244.009 143.684 243.765 144.097 243.413 144.551C243.061 145 242.566 145.554 241.926 146.213L239.194 149.033L239.524 148.425V149.033L239.202 148.813H244.534V150H237.693ZM249.256 150V140.896H249.139L246.451 142.844V141.453L249.263 139.431H250.574V150H249.256ZM257.164 150.176C256.417 150.176 255.756 150.046 255.179 149.788C254.603 149.529 254.149 149.172 253.817 148.718C253.49 148.259 253.326 147.734 253.326 147.144V147.129C253.326 146.694 253.422 146.292 253.612 145.92C253.803 145.549 254.069 145.234 254.41 144.976C254.752 144.712 255.148 144.529 255.597 144.426V144.397C255.021 144.216 254.562 143.918 254.22 143.503C253.878 143.088 253.707 142.603 253.707 142.046V142.031C253.707 141.499 253.856 141.025 254.154 140.61C254.452 140.19 254.862 139.861 255.385 139.622C255.907 139.377 256.5 139.255 257.164 139.255C257.833 139.255 258.427 139.377 258.944 139.622C259.467 139.861 259.877 140.19 260.175 140.61C260.472 141.025 260.621 141.499 260.621 142.031V142.046C260.621 142.603 260.45 143.088 260.109 143.503C259.772 143.918 259.313 144.216 258.732 144.397V144.426C259.186 144.529 259.581 144.712 259.918 144.976C260.26 145.234 260.526 145.549 260.717 145.92C260.907 146.292 261.002 146.694 261.002 147.129V147.144C261.002 147.734 260.839 148.259 260.512 148.718C260.184 149.172 259.73 149.529 259.149 149.788C258.573 150.046 257.911 150.176 257.164 150.176ZM257.164 149.026C257.653 149.026 258.082 148.943 258.453 148.777C258.829 148.606 259.125 148.374 259.34 148.081C259.554 147.783 259.662 147.444 259.662 147.063V147.048C259.662 146.663 259.554 146.321 259.34 146.023C259.13 145.725 258.837 145.491 258.461 145.32C258.085 145.149 257.653 145.063 257.164 145.063C256.676 145.063 256.244 145.149 255.868 145.32C255.492 145.491 255.197 145.725 254.982 146.023C254.772 146.321 254.667 146.663 254.667 147.048V147.063C254.667 147.444 254.774 147.783 254.989 148.081C255.204 148.374 255.499 148.606 255.875 148.777C256.251 148.943 256.681 149.026 257.164 149.026ZM257.164 143.906C257.589 143.906 257.963 143.833 258.285 143.687C258.607 143.535 258.859 143.328 259.039 143.064C259.22 142.8 259.31 142.498 259.31 142.156V142.141C259.31 141.799 259.22 141.497 259.039 141.233C258.859 140.969 258.607 140.764 258.285 140.618C257.963 140.466 257.589 140.391 257.164 140.391C256.74 140.391 256.366 140.466 256.044 140.618C255.721 140.764 255.47 140.969 255.289 141.233C255.109 141.497 255.018 141.799 255.018 142.141V142.156C255.018 142.498 255.109 142.8 255.289 143.064C255.47 143.328 255.721 143.535 256.044 143.687C256.366 143.833 256.74 143.906 257.164 143.906Z" fill="black"/>
</g>
<defs>
<clipPath id="clip0_183_1912">
<rect width="463" height="140" fill="white" transform="translate(14)"/>
</clipPath>
</defs>
</svg>
