<svg width="150" height="44" viewBox="0 0 150 44" fill="none" xmlns="http://www.w3.org/2000/svg">
<rect width="150" height="44" rx="12" fill="#F4F4F5"/>
<path d="M40.5273 28V16.022H42.2622L46.3628 26.0161H46.4956L50.5962 16.022H52.3311V28H50.9365V18.8525H50.2061L51.8828 16.354L47.0601 28H45.7983L40.9839 16.354L42.6523 18.8525H41.9219V28H40.5273ZM58.7705 28.1577C57.9183 28.1577 57.185 27.9696 56.5708 27.5933C55.962 27.217 55.4917 26.6857 55.1596 25.9995C54.8331 25.3078 54.6699 24.4943 54.6699 23.5591V23.5508C54.6699 22.6266 54.8331 21.8159 55.1596 21.1187C55.4917 20.4214 55.9593 19.8763 56.5625 19.4834C57.1657 19.0905 57.8712 18.894 58.6792 18.894C59.4926 18.894 60.1899 19.0822 60.771 19.4585C61.3575 19.8348 61.8058 20.3605 62.1157 21.0356C62.4311 21.7052 62.5888 22.4855 62.5888 23.3765V23.9409H55.417V22.7871H61.8501L61.1362 23.8413V23.2686C61.1362 22.5658 61.031 21.9875 60.8208 21.5337C60.6105 21.0799 60.3199 20.7424 59.9492 20.521C59.5784 20.2941 59.1523 20.1807 58.6709 20.1807C58.1894 20.1807 57.7578 20.2996 57.3759 20.5376C56.9996 20.77 56.7008 21.1159 56.4795 21.5752C56.2581 22.0345 56.1474 22.599 56.1474 23.2686V23.8413C56.1474 24.4777 56.2553 25.0228 56.4712 25.4766C56.687 25.9248 56.9941 26.2707 57.3925 26.5142C57.791 26.7521 58.2614 26.8711 58.8037 26.8711C59.2076 26.8711 59.559 26.8158 59.8579 26.7051C60.1567 26.5944 60.403 26.4533 60.5966 26.2817C60.7903 26.1102 60.9259 25.9359 61.0034 25.7588L61.0366 25.6841H62.4809L62.4643 25.7505C62.3868 26.0549 62.2485 26.3509 62.0493 26.6387C61.8556 26.9209 61.6038 27.1782 61.2939 27.4106C60.984 27.6375 60.616 27.8201 60.1899 27.9585C59.7693 28.0913 59.2962 28.1577 58.7705 28.1577ZM67.8163 28.1577C67.1523 28.1577 66.5657 28.0581 66.0566 27.8589C65.5474 27.6541 65.1379 27.3691 64.828 27.0039C64.5237 26.6387 64.3438 26.2098 64.2885 25.7173H65.766C65.8878 26.0881 66.1257 26.3869 66.4799 26.6138C66.8341 26.8407 67.2961 26.9541 67.8661 26.9541C68.2701 26.9541 68.6243 26.896 68.9286 26.7798C69.2385 26.658 69.482 26.4948 69.6591 26.29C69.8362 26.0798 69.9247 25.839 69.9247 25.5679V25.5513C69.9247 25.2469 69.803 24.9896 69.5595 24.7793C69.316 24.5635 68.9176 24.3892 68.3642 24.2563L66.9779 23.9243C66.419 23.7915 65.9597 23.62 65.6 23.4097C65.2403 23.1938 64.9747 22.931 64.8031 22.6211C64.6316 22.3057 64.5458 21.9349 64.5458 21.5088V21.5005C64.5458 21.0024 64.6897 20.557 64.9775 20.1641C65.2708 19.7712 65.6692 19.4613 66.1728 19.2344C66.6764 19.0075 67.2436 18.894 67.8744 18.894C68.4998 18.894 69.0531 18.9937 69.5346 19.1929C70.0216 19.3866 70.4117 19.6632 70.705 20.0229C71.0038 20.3826 71.1864 20.806 71.2529 21.293H69.8334C69.7393 20.9388 69.5235 20.651 69.186 20.4297C68.8484 20.2083 68.4085 20.0977 67.8661 20.0977C67.512 20.0977 67.1965 20.1558 66.9198 20.272C66.6432 20.3826 66.4246 20.5376 66.2641 20.7368C66.1036 20.936 66.0234 21.1685 66.0234 21.4341V21.4507C66.0234 21.6499 66.0759 21.827 66.1811 21.9819C66.2862 22.1369 66.4495 22.2725 66.6708 22.3887C66.8922 22.5049 67.1772 22.6073 67.5258 22.6958L68.9037 23.0278C69.7449 23.2326 70.3702 23.5259 70.7797 23.9077C71.1947 24.2896 71.4023 24.8014 71.4023 25.4434V25.46C71.4023 25.9912 71.2446 26.4616 70.9291 26.8711C70.6137 27.2751 70.1848 27.5905 69.6425 27.8174C69.1057 28.0443 68.497 28.1577 67.8163 28.1577ZM76.4637 28.1577C75.7997 28.1577 75.2131 28.0581 74.704 27.8589C74.1949 27.6541 73.7854 27.3691 73.4755 27.0039C73.1711 26.6387 72.9913 26.2098 72.9359 25.7173H74.4135C74.5352 26.0881 74.7732 26.3869 75.1273 26.6138C75.4815 26.8407 75.9436 26.9541 76.5136 26.9541C76.9175 26.9541 77.2717 26.896 77.5761 26.7798C77.8859 26.658 78.1294 26.4948 78.3065 26.29C78.4836 26.0798 78.5721 25.839 78.5721 25.5679V25.5513C78.5721 25.2469 78.4504 24.9896 78.2069 24.7793C77.9634 24.5635 77.565 24.3892 77.0116 24.2563L75.6254 23.9243C75.0665 23.7915 74.6071 23.62 74.2474 23.4097C73.8877 23.1938 73.6221 22.931 73.4506 22.6211C73.279 22.3057 73.1932 21.9349 73.1932 21.5088V21.5005C73.1932 21.0024 73.3371 20.557 73.6249 20.1641C73.9182 19.7712 74.3166 19.4613 74.8202 19.2344C75.3238 19.0075 75.891 18.894 76.5219 18.894C77.1472 18.894 77.7006 18.9937 78.182 19.1929C78.669 19.3866 79.0591 19.6632 79.3524 20.0229C79.6512 20.3826 79.8339 20.806 79.9003 21.293H78.4808C78.3868 20.9388 78.1709 20.651 77.8334 20.4297C77.4958 20.2083 77.0559 20.0977 76.5136 20.0977C76.1594 20.0977 75.844 20.1558 75.5673 20.272C75.2906 20.3826 75.072 20.5376 74.9115 20.7368C74.751 20.936 74.6708 21.1685 74.6708 21.4341V21.4507C74.6708 21.6499 74.7234 21.827 74.8285 21.9819C74.9336 22.1369 75.0969 22.2725 75.3182 22.3887C75.5396 22.5049 75.8246 22.6073 76.1732 22.6958L77.5512 23.0278C78.3923 23.2326 79.0176 23.5259 79.4271 23.9077C79.8422 24.2896 80.0497 24.8014 80.0497 25.4434V25.46C80.0497 25.9912 79.892 26.4616 79.5765 26.8711C79.2611 27.2751 78.8322 27.5905 78.2899 27.8174C77.7531 28.0443 77.1444 28.1577 76.4637 28.1577ZM84.6629 28.1577C84.0985 28.1577 83.5894 28.0498 83.1356 27.834C82.6873 27.6182 82.3304 27.311 82.0648 26.9126C81.8047 26.5142 81.6746 26.0438 81.6746 25.5015V25.4849C81.6746 24.9536 81.8019 24.4998 82.0565 24.1235C82.311 23.7417 82.6818 23.4429 83.1688 23.2271C83.6558 23.0112 84.2451 22.884 84.9369 22.8452L88.224 22.646V23.7998L85.1112 23.999C84.4305 24.0378 83.9325 24.1789 83.617 24.4224C83.3071 24.6659 83.1522 25.009 83.1522 25.4517V25.4683C83.1522 25.922 83.3237 26.2762 83.6668 26.5308C84.0099 26.7798 84.4416 26.9043 84.9618 26.9043C85.4543 26.9043 85.8914 26.8075 86.2733 26.6138C86.6551 26.4146 86.9539 26.1462 87.1698 25.8086C87.3911 25.471 87.5018 25.0892 87.5018 24.6631V21.874C87.5018 21.3206 87.333 20.9001 86.9954 20.6123C86.6634 20.319 86.1626 20.1724 85.493 20.1724C84.9562 20.1724 84.5163 20.2692 84.1732 20.4629C83.8301 20.651 83.6004 20.9194 83.4842 21.2681L83.4759 21.293H82.0316L82.0399 21.2432C82.1174 20.7728 82.311 20.3633 82.6209 20.0146C82.9364 19.6605 83.3431 19.3866 83.8412 19.1929C84.3392 18.9937 84.9064 18.894 85.5428 18.894C86.2733 18.894 86.8903 19.013 87.3939 19.251C87.903 19.4889 88.2876 19.832 88.5477 20.2803C88.8133 20.723 88.9461 21.2542 88.9461 21.874V28H87.5018V26.6802H87.369C87.1808 26.9956 86.9512 27.264 86.68 27.4854C86.4144 27.7067 86.1128 27.8755 85.7752 27.9917C85.4377 28.1024 85.0669 28.1577 84.6629 28.1577ZM95.1863 31.1543C94.4669 31.1543 93.8388 31.0519 93.3021 30.8472C92.7653 30.6479 92.3364 30.363 92.0154 29.9922C91.7 29.627 91.5035 29.2008 91.4261 28.7139L91.4427 28.7056H92.9368L92.9451 28.7139C93.0226 29.0514 93.255 29.3281 93.6424 29.5439C94.0298 29.7653 94.5444 29.876 95.1863 29.876C95.9887 29.876 96.6141 29.6934 97.0623 29.3281C97.5161 28.9684 97.743 28.4593 97.743 27.8008V25.9912H97.6102C97.422 26.3177 97.1868 26.5972 96.9046 26.8296C96.6224 27.062 96.3042 27.2391 95.95 27.3608C95.5958 27.4771 95.214 27.5352 94.8045 27.5352C94.0353 27.5352 93.3685 27.3525 92.804 26.9873C92.2451 26.6165 91.8134 26.1074 91.5091 25.46C91.2047 24.8125 91.0525 24.071 91.0525 23.2354V23.2188C91.0525 22.3831 91.2047 21.6416 91.5091 20.9941C91.819 20.3411 92.2562 19.8293 92.8206 19.4585C93.3851 19.0822 94.0574 18.894 94.8377 18.894C95.2583 18.894 95.6456 18.9604 95.9998 19.0933C96.354 19.2261 96.6666 19.4142 96.9378 19.6577C97.2145 19.9012 97.4441 20.1917 97.6268 20.5293H97.7264V19.0518H99.1707V27.8755C99.1707 28.5396 99.0075 29.1178 98.681 29.6104C98.36 30.1029 97.9007 30.4819 97.303 30.7476C96.7054 31.0187 95.9998 31.1543 95.1863 31.1543ZM95.1199 26.2568C95.6733 26.2568 96.1465 26.1296 96.5394 25.875C96.9378 25.6149 97.2422 25.258 97.4524 24.8042C97.6683 24.3504 97.7762 23.8275 97.7762 23.2354V23.2188C97.7762 22.6266 97.6683 22.1009 97.4524 21.6416C97.2422 21.1823 96.9378 20.8226 96.5394 20.5625C96.1465 20.3024 95.6733 20.1724 95.1199 20.1724C94.5665 20.1724 94.0962 20.3024 93.7088 20.5625C93.327 20.8226 93.0337 21.1823 92.8289 21.6416C92.6297 22.1009 92.5301 22.6266 92.5301 23.2188V23.2354C92.5301 23.8275 92.6297 24.3504 92.8289 24.8042C93.0337 25.258 93.327 25.6149 93.7088 25.875C94.0962 26.1296 94.5665 26.2568 95.1199 26.2568ZM105.428 28.1577C104.575 28.1577 103.842 27.9696 103.228 27.5933C102.619 27.217 102.149 26.6857 101.817 25.9995C101.49 25.3078 101.327 24.4943 101.327 23.5591V23.5508C101.327 22.6266 101.49 21.8159 101.817 21.1187C102.149 20.4214 102.616 19.8763 103.219 19.4834C103.823 19.0905 104.528 18.894 105.336 18.894C106.15 18.894 106.847 19.0822 107.428 19.4585C108.015 19.8348 108.463 20.3605 108.773 21.0356C109.088 21.7052 109.246 22.4855 109.246 23.3765V23.9409H102.074V22.7871H108.507L107.793 23.8413V23.2686C107.793 22.5658 107.688 21.9875 107.478 21.5337C107.268 21.0799 106.977 20.7424 106.606 20.521C106.235 20.2941 105.809 20.1807 105.328 20.1807C104.846 20.1807 104.415 20.2996 104.033 20.5376C103.657 20.77 103.358 21.1159 103.136 21.5752C102.915 22.0345 102.804 22.599 102.804 23.2686V23.8413C102.804 24.4777 102.912 25.0228 103.128 25.4766C103.344 25.9248 103.651 26.2707 104.05 26.5142C104.448 26.7521 104.918 26.8711 105.461 26.8711C105.865 26.8711 106.216 26.8158 106.515 26.7051C106.814 26.5944 107.06 26.4533 107.254 26.2817C107.447 26.1102 107.583 25.9359 107.66 25.7588L107.694 25.6841H109.138L109.121 25.7505C109.044 26.0549 108.906 26.3509 108.706 26.6387C108.513 26.9209 108.261 27.1782 107.951 27.4106C107.641 27.6375 107.273 27.8201 106.847 27.9585C106.426 28.0913 105.953 28.1577 105.428 28.1577Z" fill="#18181B"/>
</svg>
