<svg width="320" height="85" viewBox="0 0 320 85" fill="none" xmlns="http://www.w3.org/2000/svg">
<rect width="319.515" height="84.2221" rx="24.7712" fill="white"/>
<path d="M83.4751 41.0263C82.4781 41.0263 81.5858 40.8393 80.7983 40.4655C80.0107 40.0866 79.3851 39.5682 78.9215 38.9102C78.4629 38.2522 78.2187 37.4996 78.1887 36.6521H80.8805C80.9303 37.2802 81.202 37.7937 81.6955 38.1924C82.189 38.5862 82.7822 38.7831 83.4751 38.7831C84.0184 38.7831 84.5019 38.6585 84.9256 38.4093C85.3493 38.16 85.6833 37.8136 85.9275 37.37C86.1718 36.9263 86.2914 36.4204 86.2864 35.8521C86.2914 35.2739 86.1693 34.7604 85.9201 34.3118C85.6708 33.8632 85.3294 33.5118 84.8957 33.2575C84.462 32.9983 83.9636 32.8687 83.4003 32.8687C82.9417 32.8638 82.4906 32.9485 82.0469 33.123C81.6033 33.2974 81.2519 33.5267 80.9927 33.8109L78.4878 33.3996L79.2879 25.5038H88.1707V27.8217H81.5833L81.1422 31.8818H81.2319C81.5161 31.5478 81.9173 31.2711 82.4357 31.0518C82.9542 30.8275 83.5224 30.7153 84.1405 30.7153C85.0677 30.7153 85.8951 30.9347 86.6229 31.3733C87.3507 31.807 87.9239 32.4052 88.3426 33.1678C88.7614 33.9305 88.9707 34.8028 88.9707 35.7848C88.9707 36.7967 88.7364 37.6989 88.2679 38.4915C87.8043 39.2791 87.1588 39.8997 86.3313 40.3533C85.5088 40.8019 84.5567 41.0263 83.4751 41.0263ZM96.7992 41.0263C95.8023 41.0263 94.91 40.8393 94.1224 40.4655C93.3349 40.0866 92.7093 39.5682 92.2457 38.9102C91.7871 38.2522 91.5428 37.4996 91.5129 36.6521H94.2047C94.2545 37.2802 94.5262 37.7937 95.0197 38.1924C95.5132 38.5862 96.1064 38.7831 96.7992 38.7831C97.3426 38.7831 97.8261 38.6585 98.2498 38.4093C98.6735 38.16 99.0075 37.8136 99.2517 37.37C99.496 36.9263 99.6156 36.4204 99.6106 35.8521C99.6156 35.2739 99.4935 34.7604 99.2443 34.3118C98.995 33.8632 98.6536 33.5118 98.2199 33.2575C97.7862 32.9983 97.2878 32.8687 96.7245 32.8687C96.2659 32.8638 95.8148 32.9485 95.3711 33.123C94.9275 33.2974 94.5761 33.5267 94.3168 33.8109L91.812 33.3996L92.6121 25.5038H101.495V27.8217H94.9075L94.4664 31.8818H94.5561C94.8402 31.5478 95.2415 31.2711 95.7599 31.0518C96.2783 30.8275 96.8466 30.7153 97.4647 30.7153C98.3919 30.7153 99.2193 30.9347 99.9471 31.3733C100.675 31.807 101.248 32.4052 101.667 33.1678C102.086 33.9305 102.295 34.8028 102.295 35.7848C102.295 36.7967 102.061 37.6989 101.592 38.4915C101.128 39.2791 100.483 39.8997 99.6555 40.3533C98.833 40.8019 97.8809 41.0263 96.7992 41.0263Z" fill="black"/>
<path d="M86.7395 48.0076V58.8169H84.9977L79.9045 51.4542H79.8148V58.8169H77.8567V48.0076H79.609L84.6969 55.3757H84.7919V48.0076H86.7395ZM88.8979 58.8169V48.0076H95.8225V49.6491H90.856V52.5836H95.3475V54.2251H90.856V58.8169H88.8979ZM97.1562 49.6491V48.0076H105.78V49.6491H102.439V58.8169H100.497V49.6491H97.1562ZM117.321 48.0414H120.799V49.5277H117.321V48.0414ZM117.321 50.6721H120.859V52.1584H117.321V50.6721ZM111.272 47.0902H117.797V53.1542H111.272V47.0902ZM115.865 48.6359H113.219V51.6233H115.865V48.6359ZM120.249 46.3768H122.226V54.1351H120.249V46.3768ZM116.563 55.9484H118.243V56.1267C118.243 58.0886 116.326 59.7681 112.833 60.0951L112.194 58.6385C115.196 58.371 116.563 57.1523 116.563 56.1267V55.9484ZM116.92 55.9484H118.6V56.1267C118.6 57.1077 119.982 58.3562 122.954 58.6385L122.33 60.0951C118.793 59.7681 116.92 58.0292 116.92 56.1267V55.9484ZM112.729 54.908H122.419V56.3645H112.729V54.908ZM116.578 53.8082H118.585V55.6363H116.578V53.8082ZM134.303 46.3768H136.191V60.1397H134.303V46.3768ZM132.564 51.5639H134.838V53.1393H132.564V51.5639ZM128.462 48.0563H130.35C130.35 51.9355 129.22 55.0715 125.371 57.3158L124.226 55.9484C127.363 54.0906 128.462 51.772 128.462 48.4724V48.0563ZM124.925 48.0563H129.042V49.6466H124.925V48.0563ZM131.257 46.7335H133.1V59.5452H131.257V46.7335Z" fill="#9098A3"/>
</svg>
