<svg width="220" height="222" viewBox="0 0 220 222" fill="none" xmlns="http://www.w3.org/2000/svg">
<g clip-path="url(#clip0_139_30584)">
<rect y="0.5" width="220" height="221" rx="16" fill="#EDF5FF"/>
<path d="M102.797 142.473H81.1416V162.516H102.797V142.473Z" fill="#4DFF6E" stroke="black" stroke-width="1.72222" stroke-miterlimit="10"/>
<path d="M100.143 174.14H71.5319C69.5703 174.14 68.2855 172.243 69.1483 170.615L69.8338 169.322C70.0973 168.824 70.5347 168.424 71.0755 168.187L77.9351 165.169C78.5586 164.896 79.0408 164.408 79.2819 163.811L80.379 161.081C80.7647 160.122 81.7567 159.484 82.8676 159.484H100.143C101.609 159.484 102.797 160.581 102.797 161.933V171.691C102.797 173.043 101.609 174.14 100.143 174.14Z" fill="#646464" stroke="black" stroke-width="1.72222" stroke-miterlimit="10"/>
<path d="M87.739 174.142C87.739 169.086 83.647 164.992 78.5889 164.992" stroke="black" stroke-width="1.72222" stroke-linecap="round" stroke-linejoin="round"/>
<path d="M113.078 162.516H134.733V142.472H113.078V162.516Z" fill="#4DFF6E" stroke="black" stroke-width="1.72222" stroke-miterlimit="10"/>
<path d="M115.731 174.14H144.342C146.304 174.14 147.589 172.243 146.726 170.615L146.04 169.322C145.777 168.824 145.34 168.424 144.799 168.187L137.939 165.169C137.316 164.896 136.833 164.408 136.592 163.811L135.495 161.081C135.11 160.122 134.118 159.484 133.007 159.484H115.731C114.265 159.484 113.077 160.581 113.077 161.933V171.691C113.077 173.043 114.265 174.14 115.731 174.14Z" fill="#646464" stroke="black" stroke-width="1.72222" stroke-miterlimit="10"/>
<path d="M128.136 174.142C128.136 169.086 132.228 164.992 137.286 164.992" stroke="black" stroke-width="1.72222" stroke-linecap="round" stroke-linejoin="round"/>
<path d="M89.2266 54.3516H126.649C132.527 54.3516 137.299 59.1238 137.299 65.0018V77.7514H78.5781V65.0018C78.5781 59.1238 83.3504 54.3516 89.2284 54.3516H89.2266Z" fill="#C8C8C8" stroke="black" stroke-width="1.72222" stroke-linecap="round" stroke-linejoin="round"/>
<path d="M147.554 111.887C151.413 117.646 164.981 113.984 165.825 115.428C167.089 117.589 162.256 125.119 154.997 127.049C151.423 128 148.237 127.325 146.358 126.736" fill="#4DFF6E"/>
<path d="M147.554 111.887C151.413 117.646 164.981 113.984 165.825 115.428C167.089 117.589 162.256 125.119 154.997 127.049C151.423 128 148.237 127.325 146.358 126.736" stroke="black" stroke-width="1.72222" stroke-miterlimit="10"/>
<path d="M140.119 73.0586H75.7559C71.2988 73.0586 67.6855 76.6718 67.6855 81.1289V134.402C67.6855 138.86 71.2988 142.473 75.7559 142.473H140.119C144.576 142.473 148.189 138.86 148.189 134.402V81.1289C148.189 76.6718 144.576 73.0586 140.119 73.0586Z" fill="#4DFF6E" stroke="black" stroke-width="1.72222" stroke-miterlimit="10"/>
<path d="M73.1912 153.51H150.159C153.417 153.51 155.663 150.24 154.492 147.198L148.189 130.832H73.1895V153.51H73.1912Z" fill="#646464" stroke="black" stroke-width="1.72222" stroke-miterlimit="10"/>
<path d="M148.189 123.191H67.6855V130.829H148.189V123.191Z" fill="#646464" stroke="black" stroke-width="1.72222" stroke-miterlimit="10"/>
<path d="M102.193 111.137C105.364 111.137 107.935 107.401 107.935 102.791C107.935 98.1819 105.364 94.4453 102.193 94.4453C99.0219 94.4453 96.4512 98.1819 96.4512 102.791C96.4512 107.401 99.0219 111.137 102.193 111.137Z" fill="white" stroke="black" stroke-width="1.72222" stroke-miterlimit="10"/>
<path d="M99.7184 107.527C101.518 107.527 102.977 105.406 102.977 102.791C102.977 100.175 101.518 98.0547 99.7184 98.0547C97.9188 98.0547 96.46 100.175 96.46 102.791C96.46 105.406 97.9188 107.527 99.7184 107.527Z" fill="black"/>
<path d="M113.679 111.137C116.851 111.137 119.421 107.401 119.421 102.791C119.421 98.1819 116.851 94.4453 113.679 94.4453C110.508 94.4453 107.938 98.1819 107.938 102.791C107.938 107.401 110.508 111.137 113.679 111.137Z" fill="white" stroke="black" stroke-width="1.72222" stroke-miterlimit="10"/>
<path d="M111.118 107.527C112.917 107.527 114.376 105.406 114.376 102.791C114.376 100.175 112.917 98.0547 111.118 98.0547C109.318 98.0547 107.859 100.175 107.859 102.791C107.859 105.406 109.318 107.527 111.118 107.527Z" fill="black"/>
<path d="M111.756 123.191H104.118V130.829H111.756V123.191Z" fill="#C8C8C8" stroke="black" stroke-width="1.72222" stroke-miterlimit="10"/>
<path d="M138.027 130.832L142.205 153.51" stroke="black" stroke-width="1.72222" stroke-miterlimit="10" stroke-linecap="round"/>
<path d="M107.936 130.832V153.51" stroke="black" stroke-width="1.72222" stroke-miterlimit="10" stroke-linecap="round"/>
<path d="M125.33 153.51L123.623 130.832" stroke="black" stroke-width="1.72222" stroke-miterlimit="10" stroke-linecap="round"/>
<path d="M91.1826 153.51L92.8893 130.832" stroke="black" stroke-width="1.72222" stroke-miterlimit="10" stroke-linecap="round"/>
<path d="M74.3404 156.13C85.9759 156.13 95.4083 144.802 95.4083 130.829C95.4083 116.855 85.9759 105.527 74.3404 105.527C62.7049 105.527 53.2725 116.855 53.2725 130.829C53.2725 144.802 62.7049 156.13 74.3404 156.13Z" fill="#C8C8C8" stroke="black" stroke-width="1.72222" stroke-miterlimit="10"/>
<path d="M71.3462 148.565C79.5023 148.565 86.1142 140.624 86.1142 130.829C86.1142 121.034 79.5023 113.094 71.3462 113.094C63.19 113.094 56.5781 121.034 56.5781 130.829C56.5781 140.624 63.19 148.565 71.3462 148.565Z" fill="#646464" stroke="black" stroke-width="1.72222" stroke-miterlimit="10"/>
<path d="M70.2585 143.602C76.1329 143.602 80.895 137.883 80.895 130.828C80.895 123.774 76.1329 118.055 70.2585 118.055C64.3842 118.055 59.6221 123.774 59.6221 130.828C59.6221 137.883 64.3842 143.602 70.2585 143.602Z" fill="#C8C8C8" stroke="black" stroke-width="1.72222" stroke-miterlimit="10"/>
<path d="M71.6693 118.055C64.5462 125.178 64.3688 136.531 71.2749 143.437" stroke="black" stroke-width="1.72222" stroke-miterlimit="10"/>
<path d="M156.307 109.48L161.555 110.778L160.009 117.029C159.651 118.477 158.185 119.362 156.737 119.004C155.289 118.646 154.404 117.18 154.762 115.732L156.308 109.481L156.307 109.48Z" fill="#646464" stroke="black" stroke-width="1.72222" stroke-miterlimit="10"/>
<path d="M166.068 111.035C166.425 109.593 163.505 107.63 159.547 106.651C155.588 105.672 152.09 106.048 151.734 107.49C151.377 108.932 154.297 110.895 158.255 111.874C162.214 112.853 165.712 112.477 166.068 111.035Z" fill="#646464" stroke="black" stroke-width="1.72222" stroke-miterlimit="10"/>
<path d="M163.073 108.429C165.417 107.75 166.864 105.386 166.368 102.997C166.363 102.973 166.358 102.95 166.353 102.926C165.836 100.557 165.188 96.7367 166.761 93.5782C171.192 84.6863 174.197 85.1978 175.561 82.0978C176.925 78.9978 176.171 77.0586 176.171 77.0586C176.171 77.0586 174.49 80.2137 172.249 80.8837C170.007 81.5536 158.158 80.7941 155.246 92.9495C153.973 98.2609 155.067 102.327 155.503 105.052C155.955 107.878 158.785 109.669 161.535 108.873L163.072 108.429H163.073Z" fill="#3FD106" stroke="black" stroke-width="1.72222" stroke-linecap="round" stroke-linejoin="round"/>
<path d="M107.858 115.671C110.362 115.671 112.391 113.642 112.391 111.138C112.391 108.635 110.362 106.605 107.858 106.605C105.355 106.605 103.325 108.635 103.325 111.138C103.325 113.642 105.355 115.671 107.858 115.671Z" fill="#FFE100" stroke="black" stroke-width="1.72222" stroke-miterlimit="10"/>
<path d="M107.936 84.2031H67.6846V73.3807L107.936 63.9688V84.2031Z" fill="#C8C8C8" stroke="black" stroke-width="1.72222" stroke-linecap="round" stroke-linejoin="round"/>
<path d="M102.828 79.8923H96.6094V71.5964L102.828 70.1445V79.8923Z" fill="black"/>
<path d="M93.7321 79.8926H88.3691V73.6444L93.7321 72.5508V79.8926Z" fill="black"/>
<path d="M84.76 79.8911H79.9912V75.2204L84.76 74.4023V79.8911Z" fill="black"/>
<path d="M76.3828 79.8921H72.2236V76.2444L76.3828 75.6055V79.8921Z" fill="black"/>
<path d="M107.938 84.2031H148.189V73.3807L107.938 63.9688V84.2031Z" fill="#C8C8C8" stroke="black" stroke-width="1.72222" stroke-linecap="round" stroke-linejoin="round"/>
<path d="M113.047 79.8923H119.264V71.5964L113.047 70.1445V79.8923Z" fill="black"/>
<path d="M122.144 79.8926H127.507V73.6444L122.144 72.5508V79.8926Z" fill="black"/>
<path d="M131.115 79.8911H135.882V75.2204L131.115 74.4023V79.8911Z" fill="black"/>
<path d="M139.492 79.8921H143.651V76.2444L139.492 75.6055V79.8921Z" fill="black"/>
<path d="M104.118 89.9141C100.97 89.9141 98.4229 87.367 98.4229 84.2188" stroke="black" stroke-width="1.72222" stroke-miterlimit="10" stroke-linecap="round"/>
<path d="M110.832 89.9141C113.98 89.9141 116.527 87.367 116.527 84.2188" stroke="black" stroke-width="1.72222" stroke-miterlimit="10" stroke-linecap="round"/>
<path d="M198 11.5C195.429 11.5 192.915 12.2624 190.778 13.6909C188.64 15.1194 186.974 17.1497 185.99 19.5251C185.006 21.9006 184.748 24.5144 185.25 27.0362C185.751 29.5579 186.99 31.8743 188.808 33.6924C190.626 35.5105 192.942 36.7486 195.464 37.2502C197.986 37.7518 200.599 37.4944 202.975 36.5104C205.35 35.5265 207.381 33.8603 208.809 31.7224C210.238 29.5846 211 27.0712 211 24.5C210.996 21.0533 209.626 17.7488 207.188 15.3116C204.751 12.8744 201.447 11.5036 198 11.5ZM203.708 22.2075L196.708 29.2075C196.615 29.3005 196.504 29.3742 196.383 29.4246C196.262 29.4749 196.131 29.5008 196 29.5008C195.869 29.5008 195.738 29.4749 195.617 29.4246C195.496 29.3742 195.385 29.3005 195.293 29.2075L192.293 26.2075C192.105 26.0199 191.999 25.7654 191.999 25.5C191.999 25.2346 192.105 24.9801 192.293 24.7925C192.48 24.6049 192.735 24.4994 193 24.4994C193.265 24.4994 193.52 24.6049 193.708 24.7925L196 27.0863L202.293 20.7925C202.385 20.6996 202.496 20.6259 202.617 20.5756C202.739 20.5253 202.869 20.4994 203 20.4994C203.131 20.4994 203.262 20.5253 203.383 20.5756C203.504 20.6259 203.615 20.6996 203.708 20.7925C203.8 20.8854 203.874 20.9957 203.924 21.1171C203.975 21.2385 204.001 21.3686 204.001 21.5C204.001 21.6314 203.975 21.7615 203.924 21.8829C203.874 22.0043 203.8 22.1146 203.708 22.2075Z" fill="#2CAE00"/>
</g>
<rect x="0.5" y="1" width="219" height="220" rx="15.5" stroke="#E4E4E7"/>
<defs>
<clipPath id="clip0_139_30584">
<rect y="0.5" width="220" height="221" rx="16" fill="white"/>
</clipPath>
</defs>
</svg>
