<svg width="234" height="221" viewBox="0 0 234 221" fill="none" xmlns="http://www.w3.org/2000/svg">
<g clip-path="url(#clip0_139_31484)">
<rect width="234" height="221" rx="16" fill="#EDF5FF"/>
<rect y="181" width="235" height="46" fill="#FAFAFA"/>
<path d="M10.9004 204L7.48926 194.136H9.43066L11.8711 201.963H11.9873L14.4346 194.136H16.376L12.958 204H10.9004ZM20.334 204.15C19.5911 204.15 18.9531 203.993 18.4199 203.679C17.8913 203.364 17.4834 202.918 17.1963 202.339C16.9092 201.76 16.7656 201.074 16.7656 200.281V200.274C16.7656 199.491 16.9069 198.807 17.1895 198.224C17.4766 197.64 17.8822 197.189 18.4062 196.87C18.9303 196.547 19.5456 196.385 20.252 196.385C20.9629 196.385 21.5736 196.542 22.084 196.856C22.599 197.166 22.9954 197.602 23.2734 198.162C23.5514 198.723 23.6904 199.379 23.6904 200.131V200.691H17.6201V199.55H22.8564L22.0498 200.616V199.939C22.0498 199.443 21.9746 199.03 21.8242 198.702C21.6738 198.374 21.4642 198.128 21.1953 197.964C20.931 197.8 20.6234 197.718 20.2725 197.718C19.9215 197.718 19.6094 197.804 19.3359 197.978C19.0671 198.146 18.8529 198.397 18.6934 198.729C18.5384 199.058 18.4609 199.461 18.4609 199.939V200.623C18.4609 201.083 18.5384 201.478 18.6934 201.806C18.8483 202.129 19.0671 202.38 19.3496 202.558C19.6367 202.731 19.9762 202.817 20.3682 202.817C20.6735 202.817 20.9355 202.774 21.1543 202.688C21.3776 202.596 21.5576 202.489 21.6943 202.366C21.8311 202.239 21.9268 202.118 21.9814 202.004L22.002 201.956H23.6152L23.6016 202.018C23.5423 202.259 23.4329 202.505 23.2734 202.756C23.1185 203.002 22.9066 203.232 22.6377 203.446C22.3734 203.656 22.0498 203.827 21.667 203.959C21.2842 204.087 20.8398 204.15 20.334 204.15ZM25.3926 204V196.528H27.0947V197.677H27.2109C27.3385 197.276 27.5664 196.964 27.8945 196.74C28.2272 196.517 28.6396 196.405 29.1318 196.405C29.2594 196.405 29.3848 196.414 29.5078 196.433C29.6354 196.446 29.7402 196.465 29.8223 196.487V198.012C29.6855 197.98 29.5465 197.957 29.4053 197.943C29.2686 197.925 29.125 197.916 28.9746 197.916C28.5964 197.916 28.266 197.987 27.9834 198.128C27.7008 198.269 27.4821 198.472 27.3271 198.736C27.1722 198.996 27.0947 199.304 27.0947 199.659V204H25.3926ZM31.2236 204V196.528H32.9189V204H31.2236ZM32.0781 195.277C31.8001 195.277 31.5609 195.179 31.3604 194.983C31.1598 194.787 31.0596 194.553 31.0596 194.279C31.0596 193.997 31.1598 193.76 31.3604 193.568C31.5609 193.372 31.8001 193.274 32.0781 193.274C32.3561 193.274 32.5931 193.372 32.7891 193.568C32.9896 193.76 33.0898 193.997 33.0898 194.279C33.0898 194.553 32.9896 194.787 32.7891 194.983C32.5931 195.179 32.3561 195.277 32.0781 195.277ZM35.5645 204V197.848H34.3408V196.528H35.5645V195.79C35.5645 195.289 35.6488 194.874 35.8174 194.546C35.9906 194.218 36.2572 193.974 36.6172 193.814C36.9772 193.65 37.4329 193.568 37.9844 193.568C38.1667 193.568 38.3353 193.575 38.4902 193.589C38.6452 193.598 38.7887 193.614 38.9209 193.637V194.826C38.8571 194.817 38.7751 194.81 38.6748 194.806C38.5745 194.797 38.4652 194.792 38.3467 194.792C37.9456 194.792 37.6608 194.885 37.4922 195.072C37.3236 195.255 37.2393 195.526 37.2393 195.886V196.528H38.8594V197.848H37.2666V204H35.5645ZM40.5205 204V196.528H42.2158V204H40.5205ZM41.375 195.277C41.097 195.277 40.8577 195.179 40.6572 194.983C40.4567 194.787 40.3564 194.553 40.3564 194.279C40.3564 193.997 40.4567 193.76 40.6572 193.568C40.8577 193.372 41.097 193.274 41.375 193.274C41.653 193.274 41.89 193.372 42.0859 193.568C42.2865 193.76 42.3867 193.997 42.3867 194.279C42.3867 194.553 42.2865 194.787 42.0859 194.983C41.89 195.179 41.653 195.277 41.375 195.277ZM47.5137 204.15C46.7708 204.15 46.1328 203.993 45.5996 203.679C45.071 203.364 44.6631 202.918 44.376 202.339C44.0889 201.76 43.9453 201.074 43.9453 200.281V200.274C43.9453 199.491 44.0866 198.807 44.3691 198.224C44.6562 197.64 45.0618 197.189 45.5859 196.87C46.11 196.547 46.7253 196.385 47.4316 196.385C48.1426 196.385 48.7533 196.542 49.2637 196.856C49.7786 197.166 50.1751 197.602 50.4531 198.162C50.7311 198.723 50.8701 199.379 50.8701 200.131V200.691H44.7998V199.55H50.0361L49.2295 200.616V199.939C49.2295 199.443 49.1543 199.03 49.0039 198.702C48.8535 198.374 48.6439 198.128 48.375 197.964C48.1107 197.8 47.8031 197.718 47.4521 197.718C47.1012 197.718 46.7891 197.804 46.5156 197.978C46.2467 198.146 46.0326 198.397 45.873 198.729C45.7181 199.058 45.6406 199.461 45.6406 199.939V200.623C45.6406 201.083 45.7181 201.478 45.873 201.806C46.028 202.129 46.2467 202.38 46.5293 202.558C46.8164 202.731 47.1559 202.817 47.5479 202.817C47.8532 202.817 48.1152 202.774 48.334 202.688C48.5573 202.596 48.7373 202.489 48.874 202.366C49.0107 202.239 49.1064 202.118 49.1611 202.004L49.1816 201.956H50.7949L50.7812 202.018C50.722 202.259 50.6126 202.505 50.4531 202.756C50.2982 203.002 50.0863 203.232 49.8174 203.446C49.5531 203.656 49.2295 203.827 48.8467 203.959C48.4639 204.087 48.0195 204.15 47.5137 204.15ZM55.2656 204.123C54.6458 204.123 54.1058 203.968 53.6455 203.658C53.1852 203.344 52.8298 202.897 52.5791 202.318C52.3285 201.74 52.2031 201.058 52.2031 200.274V200.261C52.2031 199.468 52.3262 198.784 52.5723 198.21C52.8229 197.631 53.1761 197.187 53.6318 196.877C54.0921 196.562 54.6367 196.405 55.2656 196.405C55.6074 196.405 55.9264 196.46 56.2227 196.569C56.5189 196.674 56.7786 196.825 57.002 197.021C57.2298 197.216 57.4076 197.449 57.5352 197.718H57.6582V193.637H59.3535V204H57.6582V202.831H57.5352C57.3984 203.1 57.2184 203.332 56.9951 203.528C56.7764 203.72 56.5212 203.868 56.2295 203.973C55.9378 204.073 55.6165 204.123 55.2656 204.123ZM55.7988 202.688C56.1862 202.688 56.5189 202.592 56.7969 202.4C57.0794 202.204 57.2959 201.926 57.4463 201.566C57.6012 201.202 57.6787 200.771 57.6787 200.274V200.261C57.6787 199.759 57.6012 199.329 57.4463 198.969C57.2959 198.609 57.0794 198.331 56.7969 198.135C56.5189 197.939 56.1862 197.841 55.7988 197.841C55.416 197.841 55.0833 197.939 54.8008 198.135C54.5228 198.326 54.3086 198.604 54.1582 198.969C54.0078 199.329 53.9326 199.759 53.9326 200.261V200.274C53.9326 200.776 54.0078 201.206 54.1582 201.566C54.3086 201.926 54.5228 202.204 54.8008 202.4C55.0788 202.592 55.4115 202.688 55.7988 202.688ZM68.0898 204L64.6787 194.136H66.6201L69.0605 201.963H69.1768L71.624 194.136H73.5654L70.1475 204H68.0898ZM77.5234 204.15C76.7806 204.15 76.1426 203.993 75.6094 203.679C75.0807 203.364 74.6729 202.918 74.3857 202.339C74.0986 201.76 73.9551 201.074 73.9551 200.281V200.274C73.9551 199.491 74.0964 198.807 74.3789 198.224C74.666 197.64 75.0716 197.189 75.5957 196.87C76.1198 196.547 76.735 196.385 77.4414 196.385C78.1523 196.385 78.763 196.542 79.2734 196.856C79.7884 197.166 80.1849 197.602 80.4629 198.162C80.7409 198.723 80.8799 199.379 80.8799 200.131V200.691H74.8096V199.55H80.0459L79.2393 200.616V199.939C79.2393 199.443 79.1641 199.03 79.0137 198.702C78.8633 198.374 78.6536 198.128 78.3848 197.964C78.1204 197.8 77.8128 197.718 77.4619 197.718C77.111 197.718 76.7988 197.804 76.5254 197.978C76.2565 198.146 76.0423 198.397 75.8828 198.729C75.7279 199.058 75.6504 199.461 75.6504 199.939V200.623C75.6504 201.083 75.7279 201.478 75.8828 201.806C76.0378 202.129 76.2565 202.38 76.5391 202.558C76.8262 202.731 77.1657 202.817 77.5576 202.817C77.863 202.817 78.125 202.774 78.3438 202.688C78.5671 202.596 78.7471 202.489 78.8838 202.366C79.0205 202.239 79.1162 202.118 79.1709 202.004L79.1914 201.956H80.8047L80.791 202.018C80.7318 202.259 80.6224 202.505 80.4629 202.756C80.3079 203.002 80.096 203.232 79.8271 203.446C79.5628 203.656 79.2393 203.827 78.8564 203.959C78.4736 204.087 78.0293 204.15 77.5234 204.15ZM85.7949 206.625C85.1387 206.625 84.5713 206.538 84.0928 206.365C83.6188 206.192 83.2451 205.946 82.9717 205.627C82.6982 205.312 82.5319 204.946 82.4727 204.526L82.4795 204.506H84.1748L84.1885 204.526C84.2432 204.763 84.4095 204.957 84.6875 205.107C84.9701 205.262 85.3483 205.34 85.8223 205.34C86.4056 205.34 86.8568 205.21 87.1758 204.95C87.4993 204.69 87.6611 204.321 87.6611 203.843V202.407H87.5449C87.4036 202.676 87.2191 202.904 86.9912 203.091C86.7679 203.278 86.5104 203.419 86.2188 203.515C85.9316 203.606 85.6149 203.651 85.2686 203.651C84.6396 203.651 84.0951 203.501 83.6348 203.2C83.1745 202.895 82.819 202.473 82.5684 201.936C82.3223 201.398 82.1992 200.776 82.1992 200.069V200.056C82.1992 199.336 82.3245 198.702 82.5752 198.155C82.8258 197.608 83.1813 197.18 83.6416 196.87C84.1064 196.56 84.6602 196.405 85.3027 196.405C85.6491 196.405 85.9658 196.46 86.2529 196.569C86.5446 196.679 86.7998 196.834 87.0186 197.034C87.2419 197.235 87.4242 197.476 87.5654 197.759H87.6543V196.528H89.3564V203.815C89.3564 204.39 89.2106 204.886 88.9189 205.306C88.6318 205.729 88.2217 206.055 87.6885 206.283C87.1553 206.511 86.5241 206.625 85.7949 206.625ZM85.7949 202.298C86.1868 202.298 86.5241 202.204 86.8066 202.018C87.0892 201.826 87.3057 201.564 87.4561 201.231C87.611 200.899 87.6885 200.511 87.6885 200.069V200.056C87.6885 199.614 87.611 199.226 87.4561 198.894C87.3057 198.556 87.0892 198.294 86.8066 198.107C86.5241 197.916 86.1868 197.82 85.7949 197.82C85.3984 197.82 85.0612 197.916 84.7832 198.107C84.5098 198.294 84.3001 198.556 84.1543 198.894C84.013 199.226 83.9424 199.614 83.9424 200.056V200.069C83.9424 200.507 84.013 200.894 84.1543 201.231C84.3001 201.564 84.5098 201.826 84.7832 202.018C85.0612 202.204 85.3984 202.298 85.7949 202.298ZM94.6406 204.15C93.8978 204.15 93.2598 203.993 92.7266 203.679C92.1979 203.364 91.79 202.918 91.5029 202.339C91.2158 201.76 91.0723 201.074 91.0723 200.281V200.274C91.0723 199.491 91.2135 198.807 91.4961 198.224C91.7832 197.64 92.1888 197.189 92.7129 196.87C93.237 196.547 93.8522 196.385 94.5586 196.385C95.2695 196.385 95.8802 196.542 96.3906 196.856C96.9056 197.166 97.3021 197.602 97.5801 198.162C97.8581 198.723 97.9971 199.379 97.9971 200.131V200.691H91.9268V199.55H97.1631L96.3564 200.616V199.939C96.3564 199.443 96.2812 199.03 96.1309 198.702C95.9805 198.374 95.7708 198.128 95.502 197.964C95.2376 197.8 94.93 197.718 94.5791 197.718C94.2282 197.718 93.916 197.804 93.6426 197.978C93.3737 198.146 93.1595 198.397 93 198.729C92.8451 199.058 92.7676 199.461 92.7676 199.939V200.623C92.7676 201.083 92.8451 201.478 93 201.806C93.1549 202.129 93.3737 202.38 93.6562 202.558C93.9434 202.731 94.2829 202.817 94.6748 202.817C94.9801 202.817 95.2422 202.774 95.4609 202.688C95.6842 202.596 95.8643 202.489 96.001 202.366C96.1377 202.239 96.2334 202.118 96.2881 202.004L96.3086 201.956H97.9219L97.9082 202.018C97.849 202.259 97.7396 202.505 97.5801 202.756C97.4251 203.002 97.2132 203.232 96.9443 203.446C96.68 203.656 96.3564 203.827 95.9736 203.959C95.5908 204.087 95.1465 204.15 94.6406 204.15ZM102.639 204.034C101.782 204.034 101.164 203.877 100.786 203.562C100.408 203.248 100.219 202.733 100.219 202.018V197.848H99.0566V196.528H100.219V194.696H101.948V196.528H103.521V197.848H101.948V201.614C101.948 201.983 102.026 202.255 102.181 202.428C102.34 202.596 102.595 202.681 102.946 202.681C103.069 202.681 103.17 202.678 103.247 202.674C103.329 202.665 103.42 202.656 103.521 202.646V203.959C103.402 203.982 103.265 204 103.11 204.014C102.96 204.027 102.803 204.034 102.639 204.034ZM107.26 204.123C106.79 204.123 106.369 204.032 105.995 203.85C105.626 203.667 105.334 203.41 105.12 203.077C104.91 202.74 104.806 202.343 104.806 201.888V201.874C104.806 201.432 104.915 201.051 105.134 200.732C105.353 200.409 105.674 200.156 106.098 199.974C106.521 199.791 107.036 199.684 107.643 199.652L110.404 199.481V200.603L107.882 200.767C107.403 200.794 107.05 200.894 106.822 201.067C106.594 201.241 106.48 201.482 106.48 201.792V201.806C106.48 202.125 106.601 202.373 106.843 202.551C107.089 202.729 107.401 202.817 107.779 202.817C108.121 202.817 108.426 202.749 108.695 202.612C108.964 202.476 109.176 202.291 109.331 202.059C109.486 201.822 109.563 201.555 109.563 201.259V198.894C109.563 198.52 109.445 198.235 109.208 198.039C108.971 197.839 108.62 197.738 108.155 197.738C107.768 197.738 107.451 197.807 107.205 197.943C106.959 198.076 106.793 198.265 106.706 198.511L106.699 198.538H105.093L105.1 198.477C105.154 198.057 105.318 197.69 105.592 197.376C105.865 197.062 106.228 196.818 106.679 196.645C107.13 196.471 107.649 196.385 108.237 196.385C108.884 196.385 109.431 196.485 109.878 196.686C110.325 196.882 110.664 197.169 110.896 197.547C111.129 197.921 111.245 198.369 111.245 198.894V204H109.563V202.975H109.447C109.311 203.212 109.133 203.417 108.914 203.59C108.7 203.763 108.454 203.895 108.176 203.986C107.898 204.077 107.592 204.123 107.26 204.123ZM113.289 204V196.528H114.991V197.677H115.107C115.235 197.276 115.463 196.964 115.791 196.74C116.124 196.517 116.536 196.405 117.028 196.405C117.156 196.405 117.281 196.414 117.404 196.433C117.532 196.446 117.637 196.465 117.719 196.487V198.012C117.582 197.98 117.443 197.957 117.302 197.943C117.165 197.925 117.021 197.916 116.871 197.916C116.493 197.916 116.162 197.987 115.88 198.128C115.597 198.269 115.379 198.472 115.224 198.736C115.069 198.996 114.991 199.304 114.991 199.659V204H113.289ZM119.12 204V196.528H120.815V204H119.12ZM119.975 195.277C119.697 195.277 119.457 195.179 119.257 194.983C119.056 194.787 118.956 194.553 118.956 194.279C118.956 193.997 119.056 193.76 119.257 193.568C119.457 193.372 119.697 193.274 119.975 193.274C120.253 193.274 120.49 193.372 120.686 193.568C120.886 193.76 120.986 193.997 120.986 194.279C120.986 194.553 120.886 194.787 120.686 194.983C120.49 195.179 120.253 195.277 119.975 195.277ZM124.951 204.123C124.482 204.123 124.06 204.032 123.687 203.85C123.317 203.667 123.026 203.41 122.812 203.077C122.602 202.74 122.497 202.343 122.497 201.888V201.874C122.497 201.432 122.606 201.051 122.825 200.732C123.044 200.409 123.365 200.156 123.789 199.974C124.213 199.791 124.728 199.684 125.334 199.652L128.096 199.481V200.603L125.573 200.767C125.095 200.794 124.742 200.894 124.514 201.067C124.286 201.241 124.172 201.482 124.172 201.792V201.806C124.172 202.125 124.293 202.373 124.534 202.551C124.78 202.729 125.092 202.817 125.471 202.817C125.812 202.817 126.118 202.749 126.387 202.612C126.656 202.476 126.868 202.291 127.022 202.059C127.177 201.822 127.255 201.555 127.255 201.259V198.894C127.255 198.52 127.136 198.235 126.899 198.039C126.662 197.839 126.312 197.738 125.847 197.738C125.459 197.738 125.143 197.807 124.896 197.943C124.65 198.076 124.484 198.265 124.397 198.511L124.391 198.538H122.784L122.791 198.477C122.846 198.057 123.01 197.69 123.283 197.376C123.557 197.062 123.919 196.818 124.37 196.645C124.821 196.471 125.341 196.385 125.929 196.385C126.576 196.385 127.123 196.485 127.569 196.686C128.016 196.882 128.355 197.169 128.588 197.547C128.82 197.921 128.937 198.369 128.937 198.894V204H127.255V202.975H127.139C127.002 203.212 126.824 203.417 126.605 203.59C126.391 203.763 126.145 203.895 125.867 203.986C125.589 204.077 125.284 204.123 124.951 204.123ZM130.98 204V196.528H132.683V197.677H132.799C132.977 197.271 133.245 196.954 133.605 196.727C133.965 196.499 134.414 196.385 134.952 196.385C135.786 196.385 136.424 196.626 136.866 197.109C137.308 197.592 137.529 198.278 137.529 199.167V204H135.827V199.563C135.827 198.98 135.704 198.543 135.458 198.251C135.216 197.959 134.838 197.813 134.323 197.813C133.986 197.813 133.694 197.889 133.448 198.039C133.202 198.189 133.013 198.401 132.881 198.675C132.749 198.948 132.683 199.272 132.683 199.646V204H130.98ZM143.818 204V197.848H142.595V196.528H143.818V195.79C143.818 195.289 143.903 194.874 144.071 194.546C144.244 194.218 144.511 193.974 144.871 193.814C145.231 193.65 145.687 193.568 146.238 193.568C146.421 193.568 146.589 193.575 146.744 193.589C146.899 193.598 147.043 193.614 147.175 193.637V194.826C147.111 194.817 147.029 194.81 146.929 194.806C146.828 194.797 146.719 194.792 146.601 194.792C146.2 194.792 145.915 194.885 145.746 195.072C145.577 195.255 145.493 195.526 145.493 195.886V196.528H147.113V197.848H145.521V204H143.818ZM151.707 204.15C150.964 204.15 150.324 203.995 149.786 203.686C149.248 203.371 148.834 202.924 148.542 202.346C148.255 201.767 148.111 201.074 148.111 200.268V200.254C148.111 199.456 148.257 198.768 148.549 198.189C148.84 197.606 149.253 197.16 149.786 196.85C150.324 196.54 150.964 196.385 151.707 196.385C152.45 196.385 153.088 196.54 153.621 196.85C154.159 197.16 154.574 197.604 154.865 198.183C155.157 198.761 155.303 199.452 155.303 200.254V200.268C155.303 201.074 155.157 201.767 154.865 202.346C154.578 202.924 154.166 203.371 153.628 203.686C153.095 203.995 152.454 204.15 151.707 204.15ZM151.707 202.77C152.099 202.77 152.432 202.672 152.705 202.476C152.983 202.275 153.195 201.99 153.341 201.621C153.487 201.247 153.56 200.799 153.56 200.274V200.261C153.56 199.732 153.487 199.283 153.341 198.914C153.195 198.54 152.983 198.256 152.705 198.06C152.432 197.859 152.099 197.759 151.707 197.759C151.315 197.759 150.98 197.859 150.702 198.06C150.424 198.256 150.212 198.54 150.066 198.914C149.921 199.283 149.848 199.732 149.848 200.261V200.274C149.848 200.799 149.921 201.247 150.066 201.621C150.212 201.995 150.422 202.28 150.695 202.476C150.973 202.672 151.311 202.77 151.707 202.77ZM160.238 204.15C159.495 204.15 158.855 203.995 158.317 203.686C157.78 203.371 157.365 202.924 157.073 202.346C156.786 201.767 156.643 201.074 156.643 200.268V200.254C156.643 199.456 156.788 198.768 157.08 198.189C157.372 197.606 157.784 197.16 158.317 196.85C158.855 196.54 159.495 196.385 160.238 196.385C160.981 196.385 161.619 196.54 162.152 196.85C162.69 197.16 163.105 197.604 163.396 198.183C163.688 198.761 163.834 199.452 163.834 200.254V200.268C163.834 201.074 163.688 201.767 163.396 202.346C163.109 202.924 162.697 203.371 162.159 203.686C161.626 203.995 160.986 204.15 160.238 204.15ZM160.238 202.77C160.63 202.77 160.963 202.672 161.236 202.476C161.514 202.275 161.726 201.99 161.872 201.621C162.018 201.247 162.091 200.799 162.091 200.274V200.261C162.091 199.732 162.018 199.283 161.872 198.914C161.726 198.54 161.514 198.256 161.236 198.06C160.963 197.859 160.63 197.759 160.238 197.759C159.846 197.759 159.511 197.859 159.233 198.06C158.955 198.256 158.743 198.54 158.598 198.914C158.452 199.283 158.379 199.732 158.379 200.261V200.274C158.379 200.799 158.452 201.247 158.598 201.621C158.743 201.995 158.953 202.28 159.227 202.476C159.505 202.672 159.842 202.77 160.238 202.77ZM168.236 204.123C167.617 204.123 167.076 203.968 166.616 203.658C166.156 203.344 165.8 202.897 165.55 202.318C165.299 201.74 165.174 201.058 165.174 200.274V200.261C165.174 199.468 165.297 198.784 165.543 198.21C165.794 197.631 166.147 197.187 166.603 196.877C167.063 196.562 167.607 196.405 168.236 196.405C168.578 196.405 168.897 196.46 169.193 196.569C169.49 196.674 169.749 196.825 169.973 197.021C170.201 197.216 170.378 197.449 170.506 197.718H170.629V193.637H172.324V204H170.629V202.831H170.506C170.369 203.1 170.189 203.332 169.966 203.528C169.747 203.72 169.492 203.868 169.2 203.973C168.909 204.073 168.587 204.123 168.236 204.123ZM168.77 202.688C169.157 202.688 169.49 202.592 169.768 202.4C170.05 202.204 170.267 201.926 170.417 201.566C170.572 201.202 170.649 200.771 170.649 200.274V200.261C170.649 199.759 170.572 199.329 170.417 198.969C170.267 198.609 170.05 198.331 169.768 198.135C169.49 197.939 169.157 197.841 168.77 197.841C168.387 197.841 168.054 197.939 167.771 198.135C167.493 198.326 167.279 198.604 167.129 198.969C166.979 199.329 166.903 199.759 166.903 200.261V200.274C166.903 200.776 166.979 201.206 167.129 201.566C167.279 201.926 167.493 202.204 167.771 202.4C168.049 202.592 168.382 202.688 168.77 202.688ZM181.758 204.246C181.088 204.246 180.498 204.121 179.987 203.87C179.477 203.619 179.071 203.28 178.771 202.852C178.47 202.419 178.297 201.933 178.251 201.396L178.244 201.307H179.864L179.878 201.354C179.924 201.623 180.031 201.867 180.199 202.086C180.368 202.305 180.587 202.48 180.855 202.612C181.124 202.74 181.427 202.804 181.765 202.804C182.147 202.804 182.485 202.719 182.776 202.551C183.073 202.382 183.303 202.15 183.467 201.854C183.631 201.553 183.713 201.211 183.713 200.828V200.814C183.713 200.432 183.629 200.094 183.46 199.803C183.296 199.507 183.068 199.276 182.776 199.112C182.489 198.944 182.157 198.859 181.778 198.859C181.5 198.859 181.243 198.9 181.006 198.982C180.773 199.064 180.566 199.188 180.384 199.352C180.293 199.429 180.208 199.516 180.131 199.611C180.053 199.702 179.985 199.803 179.926 199.912H178.415L178.894 194.136H184.813V195.578H180.268L179.987 198.586H180.11C180.247 198.363 180.42 198.174 180.63 198.019C180.84 197.859 181.079 197.738 181.348 197.656C181.617 197.57 181.904 197.526 182.209 197.526C182.829 197.526 183.376 197.668 183.85 197.95C184.328 198.228 184.704 198.613 184.978 199.105C185.251 199.593 185.388 200.151 185.388 200.78V200.794C185.388 201.478 185.233 202.079 184.923 202.599C184.618 203.114 184.191 203.517 183.645 203.809C183.098 204.1 182.469 204.246 181.758 204.246ZM193.939 204.034C193.083 204.034 192.465 203.877 192.087 203.562C191.709 203.248 191.52 202.733 191.52 202.018V197.848H190.357V196.528H191.52V194.696H193.249V196.528H194.821V197.848H193.249V201.614C193.249 201.983 193.326 202.255 193.481 202.428C193.641 202.596 193.896 202.681 194.247 202.681C194.37 202.681 194.47 202.678 194.548 202.674C194.63 202.665 194.721 202.656 194.821 202.646V203.959C194.703 203.982 194.566 204 194.411 204.014C194.261 204.027 194.104 204.034 193.939 204.034ZM196.544 204V196.528H198.239V204H196.544ZM197.398 195.277C197.12 195.277 196.881 195.179 196.681 194.983C196.48 194.787 196.38 194.553 196.38 194.279C196.38 193.997 196.48 193.76 196.681 193.568C196.881 193.372 197.12 193.274 197.398 193.274C197.676 193.274 197.913 193.372 198.109 193.568C198.31 193.76 198.41 193.997 198.41 194.279C198.41 194.553 198.31 194.787 198.109 194.983C197.913 195.179 197.676 195.277 197.398 195.277ZM200.338 204V196.528H202.04V197.69H202.156C202.316 197.276 202.573 196.954 202.929 196.727C203.289 196.499 203.715 196.385 204.207 196.385C204.544 196.385 204.847 196.439 205.116 196.549C205.39 196.658 205.624 196.813 205.82 197.014C206.016 197.214 206.167 197.453 206.271 197.731H206.395C206.518 197.463 206.688 197.228 206.907 197.027C207.131 196.822 207.39 196.665 207.687 196.556C207.987 196.442 208.311 196.385 208.657 196.385C209.159 196.385 209.587 196.485 209.942 196.686C210.302 196.882 210.578 197.164 210.77 197.533C210.965 197.902 211.063 198.344 211.063 198.859V204H209.361V199.276C209.361 198.948 209.311 198.677 209.211 198.463C209.115 198.249 208.967 198.087 208.767 197.978C208.566 197.868 208.313 197.813 208.008 197.813C207.712 197.813 207.454 197.882 207.235 198.019C207.017 198.151 206.846 198.331 206.723 198.559C206.604 198.786 206.545 199.044 206.545 199.331V204H204.843V199.153C204.843 198.875 204.788 198.636 204.679 198.436C204.574 198.235 204.419 198.082 204.214 197.978C204.013 197.868 203.774 197.813 203.496 197.813C203.218 197.813 202.967 197.886 202.744 198.032C202.525 198.174 202.352 198.369 202.225 198.62C202.102 198.866 202.04 199.144 202.04 199.454V204H200.338ZM216.266 204.15C215.523 204.15 214.885 203.993 214.352 203.679C213.823 203.364 213.415 202.918 213.128 202.339C212.841 201.76 212.697 201.074 212.697 200.281V200.274C212.697 199.491 212.839 198.807 213.121 198.224C213.408 197.64 213.814 197.189 214.338 196.87C214.862 196.547 215.477 196.385 216.184 196.385C216.895 196.385 217.505 196.542 218.016 196.856C218.531 197.166 218.927 197.602 219.205 198.162C219.483 198.723 219.622 199.379 219.622 200.131V200.691H213.552V199.55H218.788L217.981 200.616V199.939C217.981 199.443 217.906 199.03 217.756 198.702C217.605 198.374 217.396 198.128 217.127 197.964C216.863 197.8 216.555 197.718 216.204 197.718C215.853 197.718 215.541 197.804 215.268 197.978C214.999 198.146 214.785 198.397 214.625 198.729C214.47 199.058 214.393 199.461 214.393 199.939V200.623C214.393 201.083 214.47 201.478 214.625 201.806C214.78 202.129 214.999 202.38 215.281 202.558C215.568 202.731 215.908 202.817 216.3 202.817C216.605 202.817 216.867 202.774 217.086 202.688C217.309 202.596 217.489 202.489 217.626 202.366C217.763 202.239 217.858 202.118 217.913 202.004L217.934 201.956H219.547L219.533 202.018C219.474 202.259 219.365 202.505 219.205 202.756C219.05 203.002 218.838 203.232 218.569 203.446C218.305 203.656 217.981 203.827 217.599 203.959C217.216 204.087 216.771 204.15 216.266 204.15ZM224.147 204.15C223.514 204.15 222.967 204.062 222.507 203.884C222.051 203.701 221.691 203.451 221.427 203.132C221.162 202.808 221.005 202.435 220.955 202.011V201.997H222.644L222.65 202.011C222.742 202.271 222.912 202.482 223.163 202.646C223.414 202.811 223.751 202.893 224.175 202.893C224.457 202.893 224.706 202.854 224.92 202.776C225.134 202.694 225.303 202.583 225.426 202.441C225.549 202.3 225.61 202.136 225.61 201.949V201.936C225.61 201.717 225.521 201.535 225.344 201.389C225.166 201.238 224.872 201.118 224.462 201.026L223.252 200.753C222.778 200.648 222.386 200.502 222.076 200.315C221.766 200.129 221.534 199.898 221.379 199.625C221.229 199.352 221.153 199.033 221.153 198.668V198.661C221.153 198.21 221.279 197.813 221.529 197.472C221.785 197.13 222.138 196.863 222.589 196.672C223.04 196.48 223.56 196.385 224.147 196.385C224.754 196.385 225.275 196.476 225.713 196.658C226.15 196.84 226.492 197.091 226.738 197.41C226.984 197.729 227.126 198.091 227.162 198.497V198.511H225.562L225.556 198.49C225.492 198.253 225.339 198.053 225.098 197.889C224.861 197.72 224.542 197.636 224.141 197.636C223.89 197.636 223.664 197.674 223.464 197.752C223.268 197.829 223.113 197.939 222.999 198.08C222.89 198.217 222.835 198.379 222.835 198.565V198.572C222.835 198.718 222.871 198.846 222.944 198.955C223.022 199.064 223.143 199.16 223.307 199.242C223.471 199.324 223.687 199.397 223.956 199.461L225.166 199.728C225.9 199.892 226.442 200.135 226.793 200.459C227.144 200.783 227.319 201.218 227.319 201.765V201.778C227.319 202.252 227.183 202.667 226.909 203.022C226.636 203.378 226.26 203.656 225.781 203.856C225.303 204.052 224.758 204.15 224.147 204.15Z" fill="#18181B"/>
<path d="M108.797 118.973H87.1416V139.016H108.797V118.973Z" fill="#4DFF6E" stroke="black" stroke-width="1.72222" stroke-miterlimit="10"/>
<path d="M106.143 150.64H77.5319C75.5703 150.64 74.2855 148.743 75.1483 147.115L75.8338 145.822C76.0973 145.324 76.5347 144.924 77.0755 144.687L83.9351 141.669C84.5586 141.396 85.0408 140.908 85.2819 140.311L86.379 137.581C86.7647 136.622 87.7567 135.984 88.8676 135.984H106.143C107.609 135.984 108.797 137.081 108.797 138.433V148.191C108.797 149.543 107.609 150.64 106.143 150.64Z" fill="#646464" stroke="black" stroke-width="1.72222" stroke-miterlimit="10"/>
<path d="M93.739 150.642C93.739 145.586 89.647 141.492 84.5889 141.492" stroke="black" stroke-width="1.72222" stroke-linecap="round" stroke-linejoin="round"/>
<path d="M119.078 139.016H140.733V118.972H119.078V139.016Z" fill="#4DFF6E" stroke="black" stroke-width="1.72222" stroke-miterlimit="10"/>
<path d="M121.731 150.64H150.342C152.304 150.64 153.589 148.743 152.726 147.115L152.04 145.822C151.777 145.324 151.34 144.924 150.799 144.687L143.939 141.669C143.316 141.396 142.833 140.908 142.592 140.311L141.495 137.581C141.11 136.622 140.118 135.984 139.007 135.984H121.731C120.265 135.984 119.077 137.081 119.077 138.433V148.191C119.077 149.543 120.265 150.64 121.731 150.64Z" fill="#646464" stroke="black" stroke-width="1.72222" stroke-miterlimit="10"/>
<path d="M134.136 150.642C134.136 145.586 138.228 141.492 143.286 141.492" stroke="black" stroke-width="1.72222" stroke-linecap="round" stroke-linejoin="round"/>
<path d="M95.2266 30.8516H132.649C138.527 30.8516 143.299 35.6238 143.299 41.5018V54.2514H84.5781V41.5018C84.5781 35.6238 89.3504 30.8516 95.2284 30.8516H95.2266Z" fill="#C8C8C8" stroke="black" stroke-width="1.72222" stroke-linecap="round" stroke-linejoin="round"/>
<path d="M153.554 88.3867C157.413 94.1458 170.981 90.4844 171.825 91.9276C173.089 94.089 168.256 101.619 160.997 103.549C157.423 104.5 154.237 103.825 152.358 103.236" fill="#4DFF6E"/>
<path d="M153.554 88.3867C157.413 94.1458 170.981 90.4844 171.825 91.9276C173.089 94.089 168.256 101.619 160.997 103.549C157.423 104.5 154.237 103.825 152.358 103.236" stroke="black" stroke-width="1.72222" stroke-miterlimit="10"/>
<path d="M146.119 49.5586H81.7559C77.2988 49.5586 73.6855 53.1718 73.6855 57.6289V110.902C73.6855 115.36 77.2988 118.973 81.7559 118.973H146.119C150.576 118.973 154.189 115.36 154.189 110.902V57.6289C154.189 53.1718 150.576 49.5586 146.119 49.5586Z" fill="#4DFF6E" stroke="black" stroke-width="1.72222" stroke-miterlimit="10"/>
<path d="M79.1912 130.01H156.159C159.417 130.01 161.663 126.74 160.492 123.698L154.189 107.332H79.1895V130.01H79.1912Z" fill="#646464" stroke="black" stroke-width="1.72222" stroke-miterlimit="10"/>
<path d="M154.189 99.6914H73.6855V107.329H154.189V99.6914Z" fill="#646464" stroke="black" stroke-width="1.72222" stroke-miterlimit="10"/>
<path d="M108.193 87.6371C111.364 87.6371 113.935 83.9005 113.935 79.2912C113.935 74.6819 111.364 70.9453 108.193 70.9453C105.022 70.9453 102.451 74.6819 102.451 79.2912C102.451 83.9005 105.022 87.6371 108.193 87.6371Z" fill="white" stroke="black" stroke-width="1.72222" stroke-miterlimit="10"/>
<path d="M105.718 84.0269C107.518 84.0269 108.977 81.9065 108.977 79.2908C108.977 76.6751 107.518 74.5547 105.718 74.5547C103.919 74.5547 102.46 76.6751 102.46 79.2908C102.46 81.9065 103.919 84.0269 105.718 84.0269Z" fill="black"/>
<path d="M119.679 87.6371C122.851 87.6371 125.421 83.9005 125.421 79.2912C125.421 74.6819 122.851 70.9453 119.679 70.9453C116.508 70.9453 113.938 74.6819 113.938 79.2912C113.938 83.9005 116.508 87.6371 119.679 87.6371Z" fill="white" stroke="black" stroke-width="1.72222" stroke-miterlimit="10"/>
<path d="M117.118 84.0269C118.917 84.0269 120.376 81.9065 120.376 79.2908C120.376 76.6751 118.917 74.5547 117.118 74.5547C115.318 74.5547 113.859 76.6751 113.859 79.2908C113.859 81.9065 115.318 84.0269 117.118 84.0269Z" fill="black"/>
<path d="M117.756 99.6914H110.118V107.329H117.756V99.6914Z" fill="#C8C8C8" stroke="black" stroke-width="1.72222" stroke-miterlimit="10"/>
<path d="M144.027 107.332L148.205 130.01" stroke="black" stroke-width="1.72222" stroke-miterlimit="10" stroke-linecap="round"/>
<path d="M113.936 107.332V130.01" stroke="black" stroke-width="1.72222" stroke-miterlimit="10" stroke-linecap="round"/>
<path d="M131.33 130.01L129.623 107.332" stroke="black" stroke-width="1.72222" stroke-miterlimit="10" stroke-linecap="round"/>
<path d="M97.1826 130.01L98.8893 107.332" stroke="black" stroke-width="1.72222" stroke-miterlimit="10" stroke-linecap="round"/>
<path d="M80.3404 132.63C91.9759 132.63 101.408 121.302 101.408 107.329C101.408 93.3551 91.9759 82.0273 80.3404 82.0273C68.7049 82.0273 59.2725 93.3551 59.2725 107.329C59.2725 121.302 68.7049 132.63 80.3404 132.63Z" fill="#C8C8C8" stroke="black" stroke-width="1.72222" stroke-miterlimit="10"/>
<path d="M77.3462 125.065C85.5023 125.065 92.1142 117.124 92.1142 107.329C92.1142 97.5342 85.5023 89.5938 77.3462 89.5938C69.19 89.5938 62.5781 97.5342 62.5781 107.329C62.5781 117.124 69.19 125.065 77.3462 125.065Z" fill="#646464" stroke="black" stroke-width="1.72222" stroke-miterlimit="10"/>
<path d="M76.2585 120.102C82.1329 120.102 86.895 114.383 86.895 107.328C86.895 100.274 82.1329 94.5547 76.2585 94.5547C70.3842 94.5547 65.6221 100.274 65.6221 107.328C65.6221 114.383 70.3842 120.102 76.2585 120.102Z" fill="#C8C8C8" stroke="black" stroke-width="1.72222" stroke-miterlimit="10"/>
<path d="M77.6693 94.5547C70.5462 101.678 70.3688 113.031 77.2749 119.937" stroke="black" stroke-width="1.72222" stroke-miterlimit="10"/>
<path d="M162.307 85.9805L167.555 87.2782L166.009 93.5293C165.651 94.9772 164.185 95.8618 162.737 95.5038C161.289 95.1458 160.404 93.6798 160.762 92.232L162.308 85.9809L162.307 85.9805Z" fill="#646464" stroke="black" stroke-width="1.72222" stroke-miterlimit="10"/>
<path d="M172.068 87.5349C172.425 86.0926 169.505 84.1299 165.547 83.1511C161.588 82.1722 158.09 82.5479 157.734 83.9901C157.377 85.4324 160.297 87.3951 164.255 88.374C168.214 89.3528 171.712 88.9772 172.068 87.5349Z" fill="#646464" stroke="black" stroke-width="1.72222" stroke-miterlimit="10"/>
<path d="M169.073 84.9289C171.417 84.2503 172.864 81.8857 172.368 79.497C172.363 79.4729 172.358 79.4505 172.353 79.4264C171.836 77.0566 171.188 73.2367 172.761 70.0782C177.192 61.1863 180.197 61.6978 181.561 58.5978C182.925 55.4978 182.171 53.5586 182.171 53.5586C182.171 53.5586 180.49 56.7137 178.249 57.3837C176.007 58.0536 164.158 57.2941 161.246 69.4495C159.973 74.7609 161.067 78.827 161.503 81.5516C161.955 84.3778 164.785 86.1689 167.535 85.3732L169.072 84.9289H169.073Z" fill="#3FD106" stroke="black" stroke-width="1.72222" stroke-linecap="round" stroke-linejoin="round"/>
<path d="M113.858 92.1712C116.362 92.1712 118.391 90.1418 118.391 87.6384C118.391 85.1349 116.362 83.1055 113.858 83.1055C111.355 83.1055 109.325 85.1349 109.325 87.6384C109.325 90.1418 111.355 92.1712 113.858 92.1712Z" fill="#FFE100" stroke="black" stroke-width="1.72222" stroke-miterlimit="10"/>
<path d="M113.936 60.7031H73.6846V49.8807L113.936 40.4688V60.7031Z" fill="#C8C8C8" stroke="black" stroke-width="1.72222" stroke-linecap="round" stroke-linejoin="round"/>
<path d="M108.828 56.3923H102.609V48.0964L108.828 46.6445V56.3923Z" fill="black"/>
<path d="M99.7321 56.3926H94.3691V50.1444L99.7321 49.0508V56.3926Z" fill="black"/>
<path d="M90.76 56.3911H85.9912V51.7204L90.76 50.9023V56.3911Z" fill="black"/>
<path d="M82.3828 56.3921H78.2236V52.7444L82.3828 52.1055V56.3921Z" fill="black"/>
<path d="M113.938 60.7031H154.189V49.8807L113.938 40.4688V60.7031Z" fill="#C8C8C8" stroke="black" stroke-width="1.72222" stroke-linecap="round" stroke-linejoin="round"/>
<path d="M119.047 56.3923H125.264V48.0964L119.047 46.6445V56.3923Z" fill="black"/>
<path d="M128.144 56.3926H133.507V50.1444L128.144 49.0508V56.3926Z" fill="black"/>
<path d="M137.115 56.3911H141.882V51.7204L137.115 50.9023V56.3911Z" fill="black"/>
<path d="M145.492 56.3921H149.651V52.7444L145.492 52.1055V56.3921Z" fill="black"/>
<path d="M110.118 66.4141C106.97 66.4141 104.423 63.867 104.423 60.7188" stroke="black" stroke-width="1.72222" stroke-miterlimit="10" stroke-linecap="round"/>
<path d="M116.832 66.4141C119.98 66.4141 122.527 63.867 122.527 60.7188" stroke="black" stroke-width="1.72222" stroke-miterlimit="10" stroke-linecap="round"/>
<path d="M209 11C206.429 11 203.915 11.7624 201.778 13.1909C199.64 14.6194 197.974 16.6497 196.99 19.0251C196.006 21.4006 195.748 24.0144 196.25 26.5362C196.751 29.0579 197.99 31.3743 199.808 33.1924C201.626 35.0105 203.942 36.2486 206.464 36.7502C208.986 37.2518 211.599 36.9944 213.975 36.0104C216.35 35.0265 218.381 33.3603 219.809 31.2224C221.238 29.0846 222 26.5712 222 24C221.996 20.5533 220.626 17.2488 218.188 14.8116C215.751 12.3744 212.447 11.0036 209 11ZM214.708 21.7075L207.708 28.7075C207.615 28.8005 207.504 28.8742 207.383 28.9246C207.262 28.9749 207.131 29.0008 207 29.0008C206.869 29.0008 206.738 28.9749 206.617 28.9246C206.496 28.8742 206.385 28.8005 206.293 28.7075L203.293 25.7075C203.105 25.5199 202.999 25.2654 202.999 25C202.999 24.7346 203.105 24.4801 203.293 24.2925C203.48 24.1049 203.735 23.9994 204 23.9994C204.265 23.9994 204.52 24.1049 204.708 24.2925L207 26.5863L213.293 20.2925C213.385 20.1996 213.496 20.1259 213.617 20.0756C213.739 20.0253 213.869 19.9994 214 19.9994C214.131 19.9994 214.262 20.0253 214.383 20.0756C214.504 20.1259 214.615 20.1996 214.708 20.2925C214.8 20.3854 214.874 20.4957 214.924 20.6171C214.975 20.7385 215.001 20.8686 215.001 21C215.001 21.1314 214.975 21.2615 214.924 21.3829C214.874 21.5043 214.8 21.6146 214.708 21.7075Z" fill="#2CAE00"/>
</g>
<rect x="0.5" y="0.5" width="233" height="220" rx="15.5" stroke="#E4E4E7"/>
<defs>
<clipPath id="clip0_139_31484">
<rect width="234" height="221" rx="16" fill="white"/>
</clipPath>
</defs>
</svg>
