<svg width="234" height="221" viewBox="0 0 234 221" fill="none" xmlns="http://www.w3.org/2000/svg">
<g clip-path="url(#clip0_139_16619)">
<rect width="234" height="221" rx="16" fill="#292D34"/>
<rect y="181" width="235" height="46" fill="#FAFAFA"/>
<path d="M29.002 204L25.5908 194.136H27.5322L29.9727 201.963H30.0889L32.5361 194.136H34.4775L31.0596 204H29.002ZM38.4355 204.15C37.6927 204.15 37.0547 203.993 36.5215 203.679C35.9928 203.364 35.585 202.918 35.2979 202.339C35.0107 201.76 34.8672 201.074 34.8672 200.281V200.274C34.8672 199.491 35.0085 198.807 35.291 198.224C35.5781 197.64 35.9837 197.189 36.5078 196.87C37.0319 196.547 37.6471 196.385 38.3535 196.385C39.0645 196.385 39.6751 196.542 40.1855 196.856C40.7005 197.166 41.097 197.602 41.375 198.162C41.653 198.723 41.792 199.379 41.792 200.131V200.691H35.7217V199.55H40.958L40.1514 200.616V199.939C40.1514 199.443 40.0762 199.03 39.9258 198.702C39.7754 198.374 39.5658 198.128 39.2969 197.964C39.0326 197.8 38.7249 197.718 38.374 197.718C38.0231 197.718 37.7109 197.804 37.4375 197.978C37.1686 198.146 36.9544 198.397 36.7949 198.729C36.64 199.058 36.5625 199.461 36.5625 199.939V200.623C36.5625 201.083 36.64 201.478 36.7949 201.806C36.9499 202.129 37.1686 202.38 37.4512 202.558C37.7383 202.731 38.0778 202.817 38.4697 202.817C38.7751 202.817 39.0371 202.774 39.2559 202.688C39.4792 202.596 39.6592 202.489 39.7959 202.366C39.9326 202.239 40.0283 202.118 40.083 202.004L40.1035 201.956H41.7168L41.7031 202.018C41.6439 202.259 41.5345 202.505 41.375 202.756C41.2201 203.002 41.0081 203.232 40.7393 203.446C40.4749 203.656 40.1514 203.827 39.7686 203.959C39.3857 204.087 38.9414 204.15 38.4355 204.15ZM43.4941 204V196.528H45.1963V197.677H45.3125C45.4401 197.276 45.668 196.964 45.9961 196.74C46.3288 196.517 46.7412 196.405 47.2334 196.405C47.361 196.405 47.4863 196.414 47.6094 196.433C47.737 196.446 47.8418 196.465 47.9238 196.487V198.012C47.7871 197.98 47.6481 197.957 47.5068 197.943C47.3701 197.925 47.2266 197.916 47.0762 197.916C46.6979 197.916 46.3675 197.987 46.085 198.128C45.8024 198.269 45.5837 198.472 45.4287 198.736C45.2738 198.996 45.1963 199.304 45.1963 199.659V204H43.4941ZM49.3252 204V196.528H51.0205V204H49.3252ZM50.1797 195.277C49.9017 195.277 49.6624 195.179 49.4619 194.983C49.2614 194.787 49.1611 194.553 49.1611 194.279C49.1611 193.997 49.2614 193.76 49.4619 193.568C49.6624 193.372 49.9017 193.274 50.1797 193.274C50.4577 193.274 50.6947 193.372 50.8906 193.568C51.0911 193.76 51.1914 193.997 51.1914 194.279C51.1914 194.553 51.0911 194.787 50.8906 194.983C50.6947 195.179 50.4577 195.277 50.1797 195.277ZM53.666 204V197.848H52.4424V196.528H53.666V195.79C53.666 195.289 53.7503 194.874 53.9189 194.546C54.0921 194.218 54.3587 193.974 54.7188 193.814C55.0788 193.65 55.5345 193.568 56.0859 193.568C56.2682 193.568 56.4368 193.575 56.5918 193.589C56.7467 193.598 56.8903 193.614 57.0225 193.637V194.826C56.9587 194.817 56.8766 194.81 56.7764 194.806C56.6761 194.797 56.5667 194.792 56.4482 194.792C56.0472 194.792 55.7624 194.885 55.5938 195.072C55.4251 195.255 55.3408 195.526 55.3408 195.886V196.528H56.9609V197.848H55.3682V204H53.666ZM58.6221 204V196.528H60.3174V204H58.6221ZM59.4766 195.277C59.1986 195.277 58.9593 195.179 58.7588 194.983C58.5583 194.787 58.458 194.553 58.458 194.279C58.458 193.997 58.5583 193.76 58.7588 193.568C58.9593 193.372 59.1986 193.274 59.4766 193.274C59.7546 193.274 59.9915 193.372 60.1875 193.568C60.388 193.76 60.4883 193.997 60.4883 194.279C60.4883 194.553 60.388 194.787 60.1875 194.983C59.9915 195.179 59.7546 195.277 59.4766 195.277ZM65.6152 204.15C64.8724 204.15 64.2344 203.993 63.7012 203.679C63.1725 203.364 62.7646 202.918 62.4775 202.339C62.1904 201.76 62.0469 201.074 62.0469 200.281V200.274C62.0469 199.491 62.1882 198.807 62.4707 198.224C62.7578 197.64 63.1634 197.189 63.6875 196.87C64.2116 196.547 64.8268 196.385 65.5332 196.385C66.2441 196.385 66.8548 196.542 67.3652 196.856C67.8802 197.166 68.2767 197.602 68.5547 198.162C68.8327 198.723 68.9717 199.379 68.9717 200.131V200.691H62.9014V199.55H68.1377L67.3311 200.616V199.939C67.3311 199.443 67.2559 199.03 67.1055 198.702C66.9551 198.374 66.7454 198.128 66.4766 197.964C66.2122 197.8 65.9046 197.718 65.5537 197.718C65.2028 197.718 64.8906 197.804 64.6172 197.978C64.3483 198.146 64.1341 198.397 63.9746 198.729C63.8197 199.058 63.7422 199.461 63.7422 199.939V200.623C63.7422 201.083 63.8197 201.478 63.9746 201.806C64.1296 202.129 64.3483 202.38 64.6309 202.558C64.918 202.731 65.2575 202.817 65.6494 202.817C65.9548 202.817 66.2168 202.774 66.4355 202.688C66.6589 202.596 66.8389 202.489 66.9756 202.366C67.1123 202.239 67.208 202.118 67.2627 202.004L67.2832 201.956H68.8965L68.8828 202.018C68.8236 202.259 68.7142 202.505 68.5547 202.756C68.3997 203.002 68.1878 203.232 67.9189 203.446C67.6546 203.656 67.3311 203.827 66.9482 203.959C66.5654 204.087 66.1211 204.15 65.6152 204.15ZM73.3672 204.123C72.7474 204.123 72.2074 203.968 71.7471 203.658C71.2868 203.344 70.9313 202.897 70.6807 202.318C70.43 201.74 70.3047 201.058 70.3047 200.274V200.261C70.3047 199.468 70.4277 198.784 70.6738 198.21C70.9245 197.631 71.2777 197.187 71.7334 196.877C72.1937 196.562 72.7383 196.405 73.3672 196.405C73.709 196.405 74.028 196.46 74.3242 196.569C74.6204 196.674 74.8802 196.825 75.1035 197.021C75.3314 197.216 75.5091 197.449 75.6367 197.718H75.7598V193.637H77.4551V204H75.7598V202.831H75.6367C75.5 203.1 75.32 203.332 75.0967 203.528C74.8779 203.72 74.6227 203.868 74.3311 203.973C74.0394 204.073 73.7181 204.123 73.3672 204.123ZM73.9004 202.688C74.2878 202.688 74.6204 202.592 74.8984 202.4C75.181 202.204 75.3975 201.926 75.5479 201.566C75.7028 201.202 75.7803 200.771 75.7803 200.274V200.261C75.7803 199.759 75.7028 199.329 75.5479 198.969C75.3975 198.609 75.181 198.331 74.8984 198.135C74.6204 197.939 74.2878 197.841 73.9004 197.841C73.5176 197.841 73.1849 197.939 72.9023 198.135C72.6243 198.326 72.4102 198.604 72.2598 198.969C72.1094 199.329 72.0342 199.759 72.0342 200.261V200.274C72.0342 200.776 72.1094 201.206 72.2598 201.566C72.4102 201.926 72.6243 202.204 72.9023 202.4C73.1803 202.592 73.513 202.688 73.9004 202.688ZM86.9365 204.246C86.1709 204.246 85.5055 204.128 84.9404 203.891C84.3799 203.654 83.9378 203.323 83.6143 202.899C83.2907 202.476 83.1084 201.981 83.0674 201.416L83.0605 201.32H84.7695L84.7764 201.389C84.8037 201.667 84.9131 201.908 85.1045 202.113C85.3005 202.318 85.5602 202.48 85.8838 202.599C86.2074 202.713 86.5765 202.77 86.9912 202.77C87.3877 202.77 87.7386 202.708 88.0439 202.585C88.3493 202.462 88.5885 202.293 88.7617 202.079C88.9349 201.86 89.0215 201.61 89.0215 201.327V201.32C89.0215 200.965 88.8825 200.675 88.6045 200.452C88.3265 200.224 87.8685 200.042 87.2305 199.905L86.1709 199.687C85.1592 199.472 84.4232 199.131 83.9629 198.661C83.5072 198.187 83.2793 197.583 83.2793 196.85V196.843C83.2793 196.255 83.4342 195.74 83.7441 195.298C84.0586 194.856 84.4893 194.512 85.0361 194.266C85.5876 194.015 86.2188 193.89 86.9297 193.89C87.6589 193.89 88.29 194.013 88.8232 194.259C89.3564 194.5 89.7757 194.831 90.0811 195.25C90.3864 195.669 90.5573 196.143 90.5938 196.672L90.6006 196.761H88.9189L88.9053 196.679C88.8643 196.419 88.7572 196.193 88.584 196.002C88.4154 195.806 88.1898 195.651 87.9072 195.537C87.6247 195.423 87.2943 195.366 86.916 195.366C86.556 195.366 86.2347 195.423 85.9521 195.537C85.6696 195.646 85.4463 195.801 85.2822 196.002C85.1227 196.202 85.043 196.444 85.043 196.727V196.733C85.043 197.08 85.1774 197.367 85.4463 197.595C85.7197 197.823 86.1641 198 86.7793 198.128L87.8389 198.354C88.5316 198.499 89.0944 198.693 89.5273 198.935C89.9603 199.176 90.277 199.477 90.4775 199.837C90.6826 200.192 90.7852 200.621 90.7852 201.122V201.129C90.7852 201.767 90.6279 202.318 90.3135 202.783C90.0036 203.248 89.5592 203.608 88.9805 203.863C88.4062 204.118 87.7249 204.246 86.9365 204.246ZM92.5898 206.481V196.528H94.292V197.697H94.4082C94.5449 197.428 94.7227 197.198 94.9414 197.007C95.1647 196.815 95.4222 196.667 95.7139 196.562C96.0055 196.458 96.3268 196.405 96.6777 196.405C97.3021 196.405 97.8421 196.562 98.2979 196.877C98.7581 197.191 99.1136 197.638 99.3643 198.217C99.6195 198.791 99.7471 199.472 99.7471 200.261V200.274C99.7471 201.067 99.6217 201.751 99.3711 202.325C99.1204 202.899 98.765 203.344 98.3047 203.658C97.849 203.968 97.3066 204.123 96.6777 204.123C96.3359 204.123 96.0169 204.071 95.7207 203.966C95.4245 203.856 95.1647 203.704 94.9414 203.508C94.7181 203.312 94.5404 203.079 94.4082 202.811H94.292V206.481H92.5898ZM96.1445 202.688C96.5319 202.688 96.8646 202.592 97.1426 202.4C97.4206 202.204 97.6348 201.926 97.7852 201.566C97.9355 201.202 98.0107 200.771 98.0107 200.274V200.261C98.0107 199.755 97.9355 199.322 97.7852 198.962C97.6348 198.602 97.4206 198.326 97.1426 198.135C96.8646 197.939 96.5319 197.841 96.1445 197.841C95.7572 197.841 95.4222 197.939 95.1396 198.135C94.8617 198.326 94.6452 198.602 94.4902 198.962C94.3398 199.322 94.2646 199.753 94.2646 200.254V200.268C94.2646 200.769 94.3398 201.202 94.4902 201.566C94.6452 201.926 94.8639 202.204 95.1465 202.4C95.429 202.592 95.7617 202.688 96.1445 202.688ZM101.483 204V196.528H103.179V204H101.483ZM102.338 195.277C102.06 195.277 101.821 195.179 101.62 194.983C101.42 194.787 101.319 194.553 101.319 194.279C101.319 193.997 101.42 193.76 101.62 193.568C101.821 193.372 102.06 193.274 102.338 193.274C102.616 193.274 102.853 193.372 103.049 193.568C103.249 193.76 103.35 193.997 103.35 194.279C103.35 194.553 103.249 194.787 103.049 194.983C102.853 195.179 102.616 195.277 102.338 195.277ZM108.483 204.15C107.731 204.15 107.089 203.995 106.556 203.686C106.022 203.376 105.615 202.929 105.332 202.346C105.049 201.762 104.908 201.065 104.908 200.254V200.24C104.908 199.434 105.049 198.743 105.332 198.169C105.615 197.595 106.022 197.155 106.556 196.85C107.089 196.54 107.729 196.385 108.477 196.385C109.119 196.385 109.671 196.496 110.131 196.72C110.596 196.938 110.963 197.244 111.231 197.636C111.505 198.023 111.674 198.477 111.737 198.996V199.023H110.131L110.124 199.003C110.047 198.638 109.869 198.34 109.591 198.107C109.317 197.875 108.948 197.759 108.483 197.759C108.096 197.759 107.763 197.857 107.485 198.053C107.212 198.249 107.002 198.531 106.856 198.9C106.711 199.27 106.638 199.716 106.638 200.24V200.254C106.638 200.783 106.711 201.236 106.856 201.614C107.007 201.988 107.219 202.275 107.492 202.476C107.766 202.672 108.096 202.77 108.483 202.77C108.925 202.77 109.281 202.669 109.55 202.469C109.823 202.268 110.012 201.972 110.117 201.58L110.131 201.553L111.73 201.546L111.724 201.607C111.642 202.113 111.464 202.558 111.19 202.94C110.922 203.323 110.562 203.622 110.11 203.836C109.659 204.046 109.117 204.15 108.483 204.15ZM114.157 206.625C114.052 206.625 113.943 206.623 113.829 206.618C113.72 206.614 113.613 206.607 113.508 206.598V205.292C113.576 205.301 113.656 205.306 113.747 205.306C113.838 205.31 113.927 205.312 114.014 205.312C114.365 205.312 114.645 205.235 114.854 205.08C115.069 204.93 115.221 204.686 115.312 204.349L115.401 204.007L112.729 196.528H114.588L116.557 203.146L116.092 202.366H116.68L116.229 203.146L118.197 196.528H119.988L117.309 204.164C117.094 204.784 116.848 205.274 116.57 205.634C116.292 205.994 115.957 206.249 115.565 206.399C115.178 206.55 114.709 206.625 114.157 206.625ZM125.717 204V197.848H124.493V196.528H125.717V195.79C125.717 195.289 125.801 194.874 125.97 194.546C126.143 194.218 126.41 193.974 126.77 193.814C127.13 193.65 127.585 193.568 128.137 193.568C128.319 193.568 128.488 193.575 128.643 193.589C128.798 193.598 128.941 193.614 129.073 193.637V194.826C129.009 194.817 128.927 194.81 128.827 194.806C128.727 194.797 128.618 194.792 128.499 194.792C128.098 194.792 127.813 194.885 127.645 195.072C127.476 195.255 127.392 195.526 127.392 195.886V196.528H129.012V197.848H127.419V204H125.717ZM133.605 204.15C132.863 204.15 132.222 203.995 131.685 203.686C131.147 203.371 130.732 202.924 130.44 202.346C130.153 201.767 130.01 201.074 130.01 200.268V200.254C130.01 199.456 130.156 198.768 130.447 198.189C130.739 197.606 131.151 197.16 131.685 196.85C132.222 196.54 132.863 196.385 133.605 196.385C134.348 196.385 134.986 196.54 135.52 196.85C136.057 197.16 136.472 197.604 136.764 198.183C137.055 198.761 137.201 199.452 137.201 200.254V200.268C137.201 201.074 137.055 201.767 136.764 202.346C136.477 202.924 136.064 203.371 135.526 203.686C134.993 203.995 134.353 204.15 133.605 204.15ZM133.605 202.77C133.997 202.77 134.33 202.672 134.604 202.476C134.882 202.275 135.093 201.99 135.239 201.621C135.385 201.247 135.458 200.799 135.458 200.274V200.261C135.458 199.732 135.385 199.283 135.239 198.914C135.093 198.54 134.882 198.256 134.604 198.06C134.33 197.859 133.997 197.759 133.605 197.759C133.214 197.759 132.879 197.859 132.601 198.06C132.323 198.256 132.111 198.54 131.965 198.914C131.819 199.283 131.746 199.732 131.746 200.261V200.274C131.746 200.799 131.819 201.247 131.965 201.621C132.111 201.995 132.32 202.28 132.594 202.476C132.872 202.672 133.209 202.77 133.605 202.77ZM142.137 204.15C141.394 204.15 140.754 203.995 140.216 203.686C139.678 203.371 139.263 202.924 138.972 202.346C138.685 201.767 138.541 201.074 138.541 200.268V200.254C138.541 199.456 138.687 198.768 138.979 198.189C139.27 197.606 139.683 197.16 140.216 196.85C140.754 196.54 141.394 196.385 142.137 196.385C142.88 196.385 143.518 196.54 144.051 196.85C144.589 197.16 145.003 197.604 145.295 198.183C145.587 198.761 145.732 199.452 145.732 200.254V200.268C145.732 201.074 145.587 201.767 145.295 202.346C145.008 202.924 144.595 203.371 144.058 203.686C143.524 203.995 142.884 204.15 142.137 204.15ZM142.137 202.77C142.529 202.77 142.861 202.672 143.135 202.476C143.413 202.275 143.625 201.99 143.771 201.621C143.916 201.247 143.989 200.799 143.989 200.274V200.261C143.989 199.732 143.916 199.283 143.771 198.914C143.625 198.54 143.413 198.256 143.135 198.06C142.861 197.859 142.529 197.759 142.137 197.759C141.745 197.759 141.41 197.859 141.132 198.06C140.854 198.256 140.642 198.54 140.496 198.914C140.35 199.283 140.277 199.732 140.277 200.261V200.274C140.277 200.799 140.35 201.247 140.496 201.621C140.642 201.995 140.852 202.28 141.125 202.476C141.403 202.672 141.74 202.77 142.137 202.77ZM150.135 204.123C149.515 204.123 148.975 203.968 148.515 203.658C148.054 203.344 147.699 202.897 147.448 202.318C147.198 201.74 147.072 201.058 147.072 200.274V200.261C147.072 199.468 147.195 198.784 147.441 198.21C147.692 197.631 148.045 197.187 148.501 196.877C148.961 196.562 149.506 196.405 150.135 196.405C150.477 196.405 150.796 196.46 151.092 196.569C151.388 196.674 151.648 196.825 151.871 197.021C152.099 197.216 152.277 197.449 152.404 197.718H152.527V193.637H154.223V204H152.527V202.831H152.404C152.268 203.1 152.088 203.332 151.864 203.528C151.646 203.72 151.39 203.868 151.099 203.973C150.807 204.073 150.486 204.123 150.135 204.123ZM150.668 202.688C151.055 202.688 151.388 202.592 151.666 202.4C151.949 202.204 152.165 201.926 152.315 201.566C152.47 201.202 152.548 200.771 152.548 200.274V200.261C152.548 199.759 152.47 199.329 152.315 198.969C152.165 198.609 151.949 198.331 151.666 198.135C151.388 197.939 151.055 197.841 150.668 197.841C150.285 197.841 149.952 197.939 149.67 198.135C149.392 198.326 149.178 198.604 149.027 198.969C148.877 199.329 148.802 199.759 148.802 200.261V200.274C148.802 200.776 148.877 201.206 149.027 201.566C149.178 201.926 149.392 202.204 149.67 202.4C149.948 202.592 150.281 202.688 150.668 202.688ZM163.656 204.246C162.986 204.246 162.396 204.121 161.886 203.87C161.375 203.619 160.97 203.28 160.669 202.852C160.368 202.419 160.195 201.933 160.149 201.396L160.143 201.307H161.763L161.776 201.354C161.822 201.623 161.929 201.867 162.098 202.086C162.266 202.305 162.485 202.48 162.754 202.612C163.023 202.74 163.326 202.804 163.663 202.804C164.046 202.804 164.383 202.719 164.675 202.551C164.971 202.382 165.201 202.15 165.365 201.854C165.529 201.553 165.611 201.211 165.611 200.828V200.814C165.611 200.432 165.527 200.094 165.358 199.803C165.194 199.507 164.966 199.276 164.675 199.112C164.388 198.944 164.055 198.859 163.677 198.859C163.399 198.859 163.141 198.9 162.904 198.982C162.672 199.064 162.465 199.188 162.282 199.352C162.191 199.429 162.107 199.516 162.029 199.611C161.952 199.702 161.883 199.803 161.824 199.912H160.313L160.792 194.136H166.712V195.578H162.166L161.886 198.586H162.009C162.146 198.363 162.319 198.174 162.528 198.019C162.738 197.859 162.977 197.738 163.246 197.656C163.515 197.57 163.802 197.526 164.107 197.526C164.727 197.526 165.274 197.668 165.748 197.95C166.227 198.228 166.603 198.613 166.876 199.105C167.149 199.593 167.286 200.151 167.286 200.78V200.794C167.286 201.478 167.131 202.079 166.821 202.599C166.516 203.114 166.09 203.517 165.543 203.809C164.996 204.1 164.367 204.246 163.656 204.246ZM175.838 204.034C174.981 204.034 174.364 203.877 173.985 203.562C173.607 203.248 173.418 202.733 173.418 202.018V197.848H172.256V196.528H173.418V194.696H175.147V196.528H176.72V197.848H175.147V201.614C175.147 201.983 175.225 202.255 175.38 202.428C175.539 202.596 175.795 202.681 176.146 202.681C176.269 202.681 176.369 202.678 176.446 202.674C176.528 202.665 176.619 202.656 176.72 202.646V203.959C176.601 203.982 176.465 204 176.31 204.014C176.159 204.027 176.002 204.034 175.838 204.034ZM178.442 204V196.528H180.138V204H178.442ZM179.297 195.277C179.019 195.277 178.78 195.179 178.579 194.983C178.379 194.787 178.278 194.553 178.278 194.279C178.278 193.997 178.379 193.76 178.579 193.568C178.78 193.372 179.019 193.274 179.297 193.274C179.575 193.274 179.812 193.372 180.008 193.568C180.208 193.76 180.309 193.997 180.309 194.279C180.309 194.553 180.208 194.787 180.008 194.983C179.812 195.179 179.575 195.277 179.297 195.277ZM182.236 204V196.528H183.938V197.69H184.055C184.214 197.276 184.472 196.954 184.827 196.727C185.187 196.499 185.613 196.385 186.105 196.385C186.443 196.385 186.746 196.439 187.015 196.549C187.288 196.658 187.523 196.813 187.719 197.014C187.915 197.214 188.065 197.453 188.17 197.731H188.293C188.416 197.463 188.587 197.228 188.806 197.027C189.029 196.822 189.289 196.665 189.585 196.556C189.886 196.442 190.209 196.385 190.556 196.385C191.057 196.385 191.485 196.485 191.841 196.686C192.201 196.882 192.477 197.164 192.668 197.533C192.864 197.902 192.962 198.344 192.962 198.859V204H191.26V199.276C191.26 198.948 191.21 198.677 191.109 198.463C191.014 198.249 190.866 198.087 190.665 197.978C190.465 197.868 190.212 197.813 189.906 197.813C189.61 197.813 189.353 197.882 189.134 198.019C188.915 198.151 188.744 198.331 188.621 198.559C188.503 198.786 188.443 199.044 188.443 199.331V204H186.741V199.153C186.741 198.875 186.687 198.636 186.577 198.436C186.472 198.235 186.317 198.082 186.112 197.978C185.912 197.868 185.673 197.813 185.395 197.813C185.117 197.813 184.866 197.886 184.643 198.032C184.424 198.174 184.251 198.369 184.123 198.62C184 198.866 183.938 199.144 183.938 199.454V204H182.236ZM198.164 204.15C197.421 204.15 196.783 203.993 196.25 203.679C195.721 203.364 195.313 202.918 195.026 202.339C194.739 201.76 194.596 201.074 194.596 200.281V200.274C194.596 199.491 194.737 198.807 195.02 198.224C195.307 197.64 195.712 197.189 196.236 196.87C196.76 196.547 197.376 196.385 198.082 196.385C198.793 196.385 199.404 196.542 199.914 196.856C200.429 197.166 200.826 197.602 201.104 198.162C201.382 198.723 201.521 199.379 201.521 200.131V200.691H195.45V199.55H200.687L199.88 200.616V199.939C199.88 199.443 199.805 199.03 199.654 198.702C199.504 198.374 199.294 198.128 199.025 197.964C198.761 197.8 198.453 197.718 198.103 197.718C197.752 197.718 197.439 197.804 197.166 197.978C196.897 198.146 196.683 198.397 196.523 198.729C196.368 199.058 196.291 199.461 196.291 199.939V200.623C196.291 201.083 196.368 201.478 196.523 201.806C196.678 202.129 196.897 202.38 197.18 202.558C197.467 202.731 197.806 202.817 198.198 202.817C198.504 202.817 198.766 202.774 198.984 202.688C199.208 202.596 199.388 202.489 199.524 202.366C199.661 202.239 199.757 202.118 199.812 202.004L199.832 201.956H201.445L201.432 202.018C201.372 202.259 201.263 202.505 201.104 202.756C200.949 203.002 200.737 203.232 200.468 203.446C200.203 203.656 199.88 203.827 199.497 203.959C199.114 204.087 198.67 204.15 198.164 204.15ZM206.046 204.15C205.412 204.15 204.866 204.062 204.405 203.884C203.95 203.701 203.59 203.451 203.325 203.132C203.061 202.808 202.904 202.435 202.854 202.011V201.997H204.542L204.549 202.011C204.64 202.271 204.811 202.482 205.062 202.646C205.312 202.811 205.649 202.893 206.073 202.893C206.356 202.893 206.604 202.854 206.818 202.776C207.033 202.694 207.201 202.583 207.324 202.441C207.447 202.3 207.509 202.136 207.509 201.949V201.936C207.509 201.717 207.42 201.535 207.242 201.389C207.064 201.238 206.771 201.118 206.36 201.026L205.15 200.753C204.676 200.648 204.285 200.502 203.975 200.315C203.665 200.129 203.432 199.898 203.277 199.625C203.127 199.352 203.052 199.033 203.052 198.668V198.661C203.052 198.21 203.177 197.813 203.428 197.472C203.683 197.13 204.036 196.863 204.487 196.672C204.938 196.48 205.458 196.385 206.046 196.385C206.652 196.385 207.174 196.476 207.611 196.658C208.049 196.84 208.391 197.091 208.637 197.41C208.883 197.729 209.024 198.091 209.061 198.497V198.511H207.461L207.454 198.49C207.39 198.253 207.238 198.053 206.996 197.889C206.759 197.72 206.44 197.636 206.039 197.636C205.788 197.636 205.563 197.674 205.362 197.752C205.166 197.829 205.011 197.939 204.897 198.08C204.788 198.217 204.733 198.379 204.733 198.565V198.572C204.733 198.718 204.77 198.846 204.843 198.955C204.92 199.064 205.041 199.16 205.205 199.242C205.369 199.324 205.586 199.397 205.854 199.461L207.064 199.728C207.798 199.892 208.34 200.135 208.691 200.459C209.042 200.783 209.218 201.218 209.218 201.765V201.778C209.218 202.252 209.081 202.667 208.808 203.022C208.534 203.378 208.158 203.656 207.68 203.856C207.201 204.052 206.657 204.15 206.046 204.15Z" fill="#18181B"/>
<g clip-path="url(#clip1_139_16619)">
<path d="M134.792 64.3066H101.074V119.203H134.792V64.3066Z" fill="#FF0000" stroke="black" stroke-width="1.54323" stroke-miterlimit="10" stroke-linecap="round"/>
<path d="M176.627 165.258H58.7705C65.7953 135.734 91.2402 109.098 91.2402 101.561H144.107C145.096 105.581 170.697 138.246 176.629 165.258H176.627Z" fill="#641919" stroke="black" stroke-width="1.54323" stroke-miterlimit="10"/>
<path d="M92.8009 97.539C92.0987 93.5389 66.4193 88.8953 69.853 82.5388C71.8036 78.3242 90.3811 93.8954 92.8009 93.1099C98.3426 91.6099 89.3672 81.7532 94.2052 80.8242C99.0448 79.8952 101.074 91.1099 108.099 91.1099C115.124 91.1099 108.645 81.6097 117.153 81.6097C125.661 81.6097 115.202 92.2534 123.085 92.2534C130.968 92.2534 136.979 81.3968 139.632 82.9678C142.286 84.5388 138.851 91.2534 140.413 92.3969C146.234 95.7766 162.891 78.5402 166.706 84.1113C169.603 87.6824 141.732 96.0853 142.598 98.397C142.754 99.968 93.503 101.541 92.8009 97.5405V97.539Z" fill="#B41E1E" stroke="black" stroke-width="1.54323" stroke-miterlimit="10"/>
<path d="M88.5857 100.966C87.845 98.6915 90.8882 97.0017 90.8882 97.0017C93.3466 94.6807 141.972 94.0371 144.705 97.0372C146.557 99.3551 144.627 99.0372 144.784 100.394C145.175 106.894 154.073 112.965 151.386 114.357C150.326 113.823 147.672 108.252 146.019 108.843C141.272 110.823 151.263 123.965 148.375 124.965C144.395 126.036 142.838 112.743 138.702 113.17C134.67 113.588 137.526 129.965 133.233 129.68C128.94 129.394 131.829 110.465 127.926 107.108C126.287 105.465 124.608 105.397 122.93 105.965C114.892 108.965 118.989 138.036 115.944 137.822C112.899 137.607 115.007 108.392 107.554 108.392C102.481 108.678 103.885 129.678 100.373 129.678C96.8605 129.678 104.353 104.249 98.109 104.249C95.6892 104.249 86.7693 128.515 84.919 126.82C83.0671 125.126 95.1831 103.426 92.8018 103.534C90.4206 103.641 86.6505 114.005 85.6212 113.678C81.9915 112.213 90.8759 105.136 88.5873 100.963L88.5857 100.966Z" fill="#B41E1E" stroke="black" stroke-width="1.54323" stroke-miterlimit="10"/>
<path d="M102.881 75.4879C99.6168 75.4879 96.697 73.7595 95.322 71.048C95.0442 70.9894 94.7742 70.903 94.5164 70.7919C93.5457 72.5512 91.6044 73.6839 89.4253 73.6839C86.2555 73.6839 83.6768 71.295 83.6768 68.3567C83.6768 66.2177 85.0271 64.3458 87.0688 63.5047C86.3944 62.3735 86.0425 61.122 86.0425 59.8334C86.0425 56.341 88.5765 53.324 92.1676 52.4104C92.1584 52.2978 92.1537 52.1866 92.1537 52.0771C92.1537 49.3131 94.5782 47.0662 97.5582 47.0662C97.7619 47.0662 97.9671 47.077 98.1693 47.0986C100.013 44.9242 102.844 43.6387 105.838 43.6387C109.986 43.6387 113.614 46.043 114.986 49.5894C115.807 49.2344 116.7 49.0508 117.617 49.0508C118.205 49.0508 118.785 49.128 119.347 49.2792C120.426 46.9551 122.859 45.4427 125.637 45.4427C128.043 45.4427 130.281 46.6341 131.517 48.5261C131.999 48.3949 132.492 48.3286 132.994 48.3286C134.391 48.3286 135.699 48.8332 136.687 49.7329C137.394 49.2884 138.227 49.0492 139.096 49.0492C141.307 49.0492 143.136 50.6033 143.386 52.5987C144.278 52.1095 145.303 51.8456 146.375 51.8456C149.641 51.8456 152.297 54.3055 152.297 57.3302C152.297 59.9368 150.273 62.1637 147.568 62.6806C147.446 64.4291 146.13 65.8782 144.324 66.3041C143.985 69.1082 141.409 71.295 138.292 71.295C137.497 71.295 136.71 71.1422 135.949 70.8397C134.539 71.6407 132.929 72.062 131.27 72.062C129.241 72.062 127.279 71.4138 125.684 70.2286C124.571 70.8397 123.319 71.1592 122.029 71.1592C119.546 71.1592 117.287 69.9894 115.97 68.0634C115.128 68.3813 114.259 68.5434 113.381 68.5434C112.653 68.5434 111.933 68.4338 111.231 68.2162C110.981 72.2657 107.333 75.4895 102.884 75.4895L102.881 75.4879Z" fill="#FF0000"/>
<path d="M105.838 44.4092C110.065 44.4092 113.585 47.0929 114.534 50.6948C115.412 50.1454 116.473 49.8213 117.616 49.8213C118.392 49.8213 119.128 49.9741 119.798 50.2411C120.542 47.9201 122.86 46.2132 125.636 46.2132C128.092 46.2132 130.193 47.5466 131.166 49.4571C131.726 49.2303 132.342 49.0991 132.993 49.0991C134.473 49.0991 135.774 49.7565 136.601 50.7596C137.241 50.1793 138.121 49.8198 139.095 49.8198C141.055 49.8198 142.643 51.2735 142.643 53.0667C142.643 53.6022 142.487 54.1007 142.237 54.5467C143.175 53.3816 144.672 52.6161 146.374 52.6161C149.218 52.6161 151.524 54.7257 151.524 57.3292C151.524 59.9326 149.421 61.823 146.759 62.0067C146.777 62.1425 146.803 62.2752 146.803 62.4141C146.803 64.107 145.388 65.4805 143.586 65.641C143.586 65.6518 143.589 65.6611 143.589 65.6719C143.589 68.3494 141.217 70.5207 138.291 70.5207C137.422 70.5207 136.615 70.3108 135.891 69.9713C134.575 70.7985 132.985 71.2862 131.268 71.2862C129.129 71.2862 127.2 70.5176 125.741 69.2892C124.69 69.9729 123.414 70.3849 122.027 70.3849C119.496 70.3849 117.328 69.0346 116.278 67.0886C115.408 67.5083 114.431 67.7691 113.378 67.7691C112.326 67.7691 111.283 67.4929 110.391 67.0454C110.418 67.2861 110.471 67.5207 110.471 67.7691C110.471 71.6056 107.073 74.7152 102.881 74.7152C99.6884 74.7152 96.9676 72.905 95.8457 70.3494C95.2083 70.2815 94.6312 70.0516 94.1574 69.6997C93.5278 71.5547 91.6589 72.9096 89.4258 72.9096C86.6773 72.9096 84.4474 70.8695 84.4474 68.354C84.4474 66.1935 86.0955 64.3941 88.3008 63.9249C87.3764 62.7737 86.8132 61.3662 86.8132 59.8292C86.8132 56.4186 89.5045 53.5961 93.0463 53.0081C92.9722 52.7056 92.9244 52.3939 92.9244 52.0714C92.9244 49.7303 94.9985 47.8321 97.5571 47.8321C97.8781 47.8321 98.1914 47.8614 98.4939 47.9185C100.116 45.7981 102.795 44.4046 105.838 44.4046M105.838 42.8613C102.758 42.8613 99.8334 44.1314 97.8442 46.295C97.7485 46.2904 97.6528 46.2889 97.5587 46.2889C94.2407 46.2889 91.5246 48.7519 91.3888 51.8275C87.7715 52.9957 85.273 56.1748 85.273 59.8292C85.273 60.9866 85.5276 62.1147 86.0199 63.1641C85.4073 63.516 84.8548 63.9604 84.3934 64.482C83.435 65.5669 82.9072 66.942 82.9072 68.3525C82.9072 71.7152 85.8332 74.4513 89.4289 74.4513C91.6419 74.4513 93.642 73.4112 94.8272 71.7476C96.4013 74.5131 99.4708 76.2554 102.884 76.2554C107.406 76.2554 111.172 73.1843 111.892 69.1704C112.383 69.263 112.88 69.3108 113.381 69.3108C114.162 69.3108 114.934 69.1966 115.687 68.9698C117.176 70.8201 119.5 71.9266 122.03 71.9266C123.284 71.9266 124.507 71.6504 125.619 71.1226C127.271 72.2291 129.241 72.8279 131.271 72.8279C132.94 72.8279 134.564 72.4328 136.011 71.6781C136.755 71.9328 137.521 72.0609 138.294 72.0609C141.613 72.0609 144.388 69.8401 145.007 66.9049C146.686 66.3324 147.93 64.9697 148.262 63.3076C149.381 63.0021 150.401 62.4295 151.218 61.6317C152.411 60.4696 153.069 58.9403 153.069 57.3245C153.069 53.8754 150.066 51.0682 146.376 51.0682C145.516 51.0682 144.684 51.2195 143.913 51.5065C143.225 49.6269 141.326 48.2719 139.096 48.2719C138.278 48.2719 137.487 48.454 136.775 48.7982C135.711 47.9941 134.39 47.5512 132.996 47.5512C132.61 47.5512 132.229 47.5852 131.852 47.6546C131.288 46.9169 130.578 46.2842 129.754 45.7904C128.527 45.0543 127.104 44.6654 125.639 44.6654C123.976 44.6654 122.396 45.1577 121.07 46.0898C120.195 46.704 119.47 47.4957 118.945 48.3923C118.51 48.3136 118.067 48.2735 117.619 48.2735C116.86 48.2735 116.115 48.3877 115.405 48.6083C113.736 45.153 110.034 42.8613 105.84 42.8613H105.838Z" fill="black"/>
<path d="M84.548 48.609C82.6544 48.609 81.1143 47.1707 81.1143 45.4022C81.1143 43.6336 82.6544 42.1953 84.548 42.1953C86.4415 42.1953 87.9817 43.6336 87.9817 45.4022C87.9817 47.1707 86.4415 48.609 84.548 48.609Z" fill="#FF0000"/>
<path d="M84.5475 42.9651C86.0167 42.9651 87.2096 44.0562 87.2096 45.4003C87.2096 46.7445 86.0182 47.8356 84.5475 47.8356C83.0768 47.8356 81.887 46.7445 81.887 45.4003C81.887 44.0562 83.0784 42.9651 84.5475 42.9651ZM84.5475 41.4219C82.2296 41.4219 80.3438 43.2074 80.3438 45.4003C80.3438 47.5933 82.2296 49.3788 84.5475 49.3788C86.8655 49.3788 88.7528 47.5933 88.7528 45.4003C88.7528 43.2074 86.867 41.4219 84.5475 41.4219Z" fill="black"/>
<path d="M114.215 43.0155C111.725 43.0155 109.698 41.1312 109.698 38.8163C109.698 36.5015 111.725 34.6172 114.215 34.6172C116.706 34.6172 118.732 36.5015 118.732 38.8163C118.732 41.1312 116.706 43.0155 114.215 43.0155Z" fill="#FF0000"/>
<path d="M114.215 35.387C116.283 35.387 117.961 36.921 117.961 38.8145C117.961 40.7081 116.283 42.242 114.215 42.242C112.147 42.242 110.47 40.7081 110.47 38.8145C110.47 36.921 112.147 35.387 114.215 35.387ZM114.215 33.8438C111.299 33.8438 108.927 36.0737 108.927 38.8145C108.927 41.5553 111.299 43.7853 114.215 43.7853C117.132 43.7853 119.504 41.5553 119.504 38.8145C119.504 36.0737 117.132 33.8438 114.215 33.8438Z" fill="black"/>
<path d="M133.832 44.9085C134.965 44.9085 135.884 44.0379 135.884 42.964C135.884 41.8901 134.965 41.0195 133.832 41.0195C132.698 41.0195 131.779 41.8901 131.779 42.964C131.779 44.0379 132.698 44.9085 133.832 44.9085Z" fill="#FF0000"/>
<path d="M133.832 41.7932C134.54 41.7932 135.113 42.3179 135.113 42.9661C135.113 43.6143 134.539 44.1389 133.832 44.1389C133.125 44.1389 132.551 43.6143 132.551 42.9661C132.551 42.3179 133.125 41.7932 133.832 41.7932ZM133.832 40.25C132.275 40.25 131.008 41.4676 131.008 42.9661C131.008 44.4646 132.275 45.6822 133.832 45.6822C135.389 45.6822 136.656 44.4646 136.656 42.9661C136.656 41.4676 135.389 40.25 133.832 40.25Z" fill="black"/>
<path d="M145.659 48.6079C142.789 48.6079 140.452 46.4412 140.452 43.7776C140.452 41.114 142.789 38.9473 145.659 38.9473C148.529 38.9473 150.866 41.114 150.866 43.7776C150.866 46.4412 148.529 48.6079 145.659 48.6079Z" fill="#FF0000"/>
<path d="M145.659 39.7171C148.108 39.7171 150.094 41.535 150.094 43.7758C150.094 46.0165 148.108 47.8345 145.659 47.8345C143.21 47.8345 141.224 46.0165 141.224 43.7758C141.224 41.535 143.21 39.7171 145.659 39.7171ZM145.659 38.1738C142.363 38.1738 139.681 40.6878 139.681 43.7758C139.681 46.8638 142.363 49.3777 145.659 49.3777C148.955 49.3777 151.638 46.8638 151.638 43.7758C151.638 40.6878 148.955 38.1738 145.659 38.1738Z" fill="black"/>
<path d="M158.869 57.086C157.41 57.086 156.224 55.9718 156.224 54.6014C156.224 53.231 157.41 52.1152 158.869 52.1152C160.327 52.1152 161.514 53.231 161.514 54.6014C161.514 55.9718 160.327 57.086 158.869 57.086Z" fill="#FF0000"/>
<path d="M158.868 52.887C159.902 52.887 160.742 53.654 160.742 54.6015C160.742 55.5491 159.904 56.316 158.868 56.316C157.833 56.316 156.996 55.5491 156.996 54.6015C156.996 53.654 157.834 52.887 158.868 52.887ZM158.868 51.3438C156.984 51.3438 155.453 52.8052 155.453 54.6015C155.453 56.3978 156.986 57.8593 158.868 57.8593C160.751 57.8593 162.285 56.3978 162.285 54.6015C162.285 52.8052 160.753 51.3438 158.868 51.3438Z" fill="black"/>
<path d="M153.249 67.556C151.954 67.556 150.9 66.5622 150.9 65.3415C150.9 64.1208 151.954 63.127 153.249 63.127C154.544 63.127 155.598 64.1208 155.598 65.3415C155.598 66.5622 154.544 67.556 153.249 67.556Z" fill="#FF0000"/>
<path d="M153.249 63.8967C154.12 63.8967 154.827 64.5434 154.827 65.3397C154.827 66.136 154.12 66.7826 153.249 66.7826C152.379 66.7826 151.672 66.136 151.672 65.3397C151.672 64.5434 152.377 63.8967 153.249 63.8967ZM153.249 62.3535C151.529 62.3535 150.129 63.693 150.129 65.3397C150.129 66.9863 151.529 68.3258 153.249 68.3258C154.97 68.3258 156.37 66.9863 156.37 65.3397C156.37 63.693 154.97 62.3535 153.249 62.3535Z" fill="black"/>
<path d="M76.9705 66.4447C74.5816 66.4447 72.6387 64.636 72.6387 62.4137C72.6387 60.1915 74.5816 58.3828 76.9705 58.3828C79.3595 58.3828 81.3024 60.1915 81.3024 62.4137C81.3024 64.636 79.3595 66.4447 76.9705 66.4447Z" fill="#FF0000"/>
<path d="M76.9707 59.1565C78.9367 59.1565 80.5309 60.6149 80.5309 62.4158C80.5309 64.2168 78.9367 65.6751 76.9707 65.6751C75.0046 65.6751 73.4104 64.2168 73.4104 62.4158C73.4104 60.6149 75.0046 59.1565 76.9707 59.1565ZM76.9707 57.6133C74.1558 57.6133 71.8672 59.7676 71.8672 62.4158C71.8672 65.064 74.1573 67.2184 76.9707 67.2184C79.784 67.2184 82.0741 65.064 82.0741 62.4158C82.0741 59.7676 79.784 57.6133 76.9707 57.6133Z" fill="black"/>
<path d="M64.1881 74.9583C63.2127 74.9583 62.418 74.2021 62.418 73.2731C62.418 72.3441 63.2112 71.5879 64.1881 71.5879C65.1649 71.5879 65.9581 72.3441 65.9581 73.2731C65.9581 74.2021 65.1649 74.9583 64.1881 74.9583Z" fill="#FF0000"/>
<path d="M64.1882 72.3596C64.7391 72.3596 65.1867 72.7686 65.1867 73.2732C65.1867 73.7779 64.7391 74.1868 64.1882 74.1868C63.6373 74.1868 63.1897 73.7779 63.1897 73.2732C63.1897 72.7686 63.6357 72.3596 64.1882 72.3596ZM64.1882 70.8164C62.7869 70.8164 61.6465 71.9183 61.6465 73.2732C61.6465 74.6282 62.7869 75.7301 64.1882 75.7301C65.5894 75.7301 66.7299 74.6282 66.7299 73.2732C66.7299 71.9183 65.5894 70.8164 64.1882 70.8164Z" fill="black"/>
<path d="M152.167 79.6379C150.057 79.6379 148.34 78.0375 148.34 76.0699C148.34 74.1023 150.057 72.502 152.167 72.502C154.277 72.502 155.994 74.1023 155.994 76.0699C155.994 78.0375 154.278 79.6379 152.167 79.6379Z" fill="#FF0000"/>
<path d="M152.165 73.2737C153.854 73.2737 155.221 74.5253 155.221 76.07C155.221 77.6148 153.854 78.8664 152.165 78.8664C150.477 78.8664 149.11 77.6148 149.11 76.07C149.11 74.5253 150.477 73.2737 152.165 73.2737ZM152.165 71.7305C149.63 71.7305 147.566 73.6765 147.566 76.07C147.566 78.4636 149.63 80.4096 152.165 80.4096C154.701 80.4096 156.764 78.4636 156.764 76.07C156.764 73.6765 154.701 71.7305 152.165 71.7305Z" fill="black"/>
<path d="M76.683 164.337L76.4114 155.548L74.7154 164.337H65.8711L64.1288 155.554L63.8726 164.337H54.7783L57.1981 141.809H68.3619L70.1829 151.707L71.7724 141.809H83.3559L85.7757 164.337H76.683Z" fill="#FFE100"/>
<path d="M82.6628 142.581L84.9175 163.566H77.4312L76.9683 148.594L74.0778 163.566H66.5052L63.5576 148.71L63.1239 163.566H55.6377L57.8924 142.581H67.7197L70.2351 156.253L72.4312 142.581H82.6628ZM84.0486 141.038H71.1148L70.9065 142.336L70.1302 147.163L69.2351 142.301L69.0021 141.037H56.5035L56.3553 142.415L54.1006 163.4L53.917 165.108H64.6209L64.6641 163.61L64.6996 162.401L64.9897 163.864L65.2366 165.107H75.351L75.5917 163.856L75.8525 162.505L75.8865 163.611L75.9328 165.107H86.6336L86.4499 163.398L84.1952 142.413L84.0471 141.035L84.0486 141.038Z" fill="black"/>
<path d="M103.388 164.483C101.449 164.483 100.169 164.015 99.468 163.052C99.1717 162.645 98.9433 162.187 98.7843 161.679C98.3507 162.276 97.8522 162.779 97.292 163.182C96.0945 164.046 94.5651 164.485 92.7503 164.485C90.653 164.485 89.028 164.04 87.9215 163.162C86.7594 162.242 86.1699 160.881 86.1699 159.117C86.1699 157.636 86.6776 156.447 87.6807 155.585C88.2996 155.052 89.1052 154.637 90.1175 154.33C89.1684 153.716 88.2178 153.157 87.2749 152.66L86.4539 152.228L87.0295 151.5C88.2502 149.955 89.6669 148.762 91.2425 147.953C92.829 147.139 94.7673 146.727 97.0003 146.727C100.149 146.727 102.544 147.44 104.119 148.845C105.72 150.274 106.53 152.457 106.53 155.332V158.772C106.53 159.512 106.638 159.738 106.659 159.775C106.686 159.819 106.806 159.913 107.102 159.988L107.713 160.14L107.544 164.117L106.919 164.214C106.295 164.312 105.738 164.383 105.261 164.423C104.786 164.463 104.156 164.483 103.389 164.483H103.388ZM93.8907 158.146C93.991 158.182 94.1947 158.228 94.5728 158.228C95.5312 158.228 96.4016 158.045 97.1593 157.682C97.4016 157.566 97.6161 157.441 97.8028 157.307C97.2534 157.426 96.5945 157.542 95.8414 157.653L94.8275 157.822C94.2441 157.938 93.9926 158.072 93.8923 158.146H93.8907ZM97.6068 153.355C96.9571 153.355 96.363 153.435 95.8321 153.592C96.3028 153.58 96.7982 153.574 97.3167 153.574C97.9294 153.574 98.2226 153.503 98.3491 153.457C98.221 153.407 97.9911 153.353 97.6068 153.353V153.355Z" fill="#FFE100"/>
<path d="M96.9979 147.497C99.9655 147.497 102.168 148.138 103.603 149.42C105.038 150.702 105.756 152.672 105.756 155.331V158.77C105.756 159.426 105.833 159.888 105.987 160.158C106.142 160.428 106.45 160.621 106.912 160.736L106.796 163.454C106.179 163.551 105.645 163.618 105.191 163.656C104.737 163.695 104.135 163.713 103.384 163.713C101.726 163.713 100.628 163.343 100.089 162.601C99.5488 161.858 99.2803 160.909 99.2803 159.753V159.031C98.7217 160.611 97.9068 161.787 96.8374 162.558C95.7679 163.329 94.4037 163.713 92.7478 163.713C90.8203 163.713 89.3697 163.328 88.3974 162.558C87.4236 161.787 86.9375 160.641 86.9375 159.118C86.9375 157.865 87.3511 156.883 88.1798 156.17C89.0085 155.457 90.2894 154.966 92.024 154.696C90.5595 153.656 89.095 152.75 87.6304 151.979C88.7863 150.514 90.1058 149.401 91.5904 148.641C93.0734 147.88 94.8759 147.499 96.9948 147.499M92.9777 154.551C94.1336 154.417 95.5796 154.349 97.3127 154.349C98.0257 154.349 98.5272 154.263 98.8158 154.088C99.1044 153.915 99.2494 153.693 99.2494 153.423C99.2494 153.192 99.1044 152.994 98.8158 152.831C98.5272 152.667 98.1213 152.585 97.6013 152.585C96.6182 152.585 95.7509 152.749 94.9994 153.076C94.2478 153.403 93.5734 153.895 92.9762 154.55M94.5657 159C95.6444 159 96.6182 158.794 97.4855 158.378C98.3528 157.965 98.9501 157.42 99.2772 156.746V155.994C98.8142 156.226 98.3034 156.403 97.7448 156.528C97.1861 156.653 96.5117 156.773 95.7216 156.889L94.6815 157.062C93.6027 157.275 93.0626 157.641 93.0626 158.161C93.0626 158.719 93.5642 158.999 94.5657 158.999M96.9932 145.951C94.6367 145.951 92.5811 146.392 90.8836 147.263C89.2092 148.122 87.706 149.386 86.4159 151.017L85.2646 152.474L86.9067 153.338C87.4036 153.599 87.902 153.878 88.402 154.175C87.9375 154.412 87.527 154.685 87.169 154.994C86.0054 155.996 85.3897 157.42 85.3897 159.113C85.3897 161.618 86.5023 163.024 87.4344 163.763C88.6814 164.75 90.4669 165.252 92.7416 165.252C94.7216 165.252 96.4022 164.764 97.734 163.804C98.0272 163.593 98.3065 163.357 98.5689 163.099C98.6522 163.238 98.7417 163.374 98.8359 163.505C99.6785 164.664 101.206 165.254 103.379 165.254C104.18 165.254 104.814 165.233 105.316 165.19C105.811 165.147 106.387 165.076 107.029 164.974L108.279 164.778L108.333 163.514L108.449 160.797L108.503 159.539L107.316 159.243C107.304 159.135 107.294 158.98 107.294 158.766V155.326C107.294 152.221 106.396 149.846 104.626 148.264C102.905 146.729 100.337 145.949 96.9932 145.949V145.951Z" fill="black"/>
<path d="M117.982 164.63C116.303 164.63 114.578 164.392 112.851 163.923C111.118 163.452 109.466 162.727 107.943 161.764L107.244 161.322L110.462 156.94C110.29 156.856 110.125 156.767 109.965 156.671C108.653 155.879 107.988 154.592 107.988 152.845C107.988 150.864 108.923 149.313 110.769 148.234C112.505 147.22 114.939 146.727 118.21 146.727C119.795 146.727 121.416 146.955 123.028 147.406C124.661 147.862 126.129 148.558 127.393 149.475L128.121 150.004L124.572 153.585C125.052 153.747 125.485 153.946 125.869 154.182C127.187 154.992 127.885 156.288 127.885 157.932C127.885 160.299 126.939 162.046 125.072 163.123C123.342 164.122 120.956 164.628 117.98 164.628L117.982 164.63ZM114.894 157.748C116.036 158.068 117.027 158.23 117.838 158.23C118.76 158.23 119.249 158.079 119.496 157.954C119.564 157.92 119.783 157.799 119.783 157.702C119.783 157.625 119.771 157.617 119.744 157.597C119.653 157.529 119.479 157.491 119.254 157.491C119.028 157.491 118.752 157.5 118.446 157.518C118.142 157.537 117.894 157.555 117.71 157.574C116.806 157.679 115.855 157.738 114.892 157.748H114.894ZM115.979 153.214C116.067 153.276 116.204 153.288 116.306 153.288C116.605 153.288 117.038 153.261 117.588 153.205H117.613C118.956 153.111 119.957 153.063 120.667 153.057C120.561 153.026 120.457 152.998 120.354 152.972C119.467 152.748 118.562 152.634 117.667 152.634C117.129 152.634 116.673 152.737 116.311 152.94C116.028 153.099 115.98 153.204 115.98 153.205C115.98 153.208 115.98 153.211 115.982 153.213L115.979 153.214Z" fill="#FFE100"/>
<path d="M118.213 147.496C119.735 147.496 121.272 147.714 122.824 148.146C124.375 148.58 125.749 149.229 126.943 150.097L123.619 153.45C122.52 152.871 121.494 152.462 120.54 152.222C119.587 151.981 118.628 151.861 117.664 151.861C116.989 151.861 116.411 151.995 115.929 152.265C115.448 152.535 115.207 152.844 115.207 153.189C115.207 153.459 115.309 153.671 115.511 153.825C115.713 153.979 115.978 154.057 116.306 154.057C116.633 154.057 117.087 154.027 117.664 153.97C119.07 153.875 120.121 153.825 120.813 153.825C122.818 153.825 124.369 154.163 125.468 154.838C126.567 155.512 127.116 156.543 127.116 157.93C127.116 160.012 126.307 161.52 124.689 162.453C123.07 163.389 120.835 163.855 117.983 163.855C116.364 163.855 114.721 163.628 113.056 163.176C111.389 162.723 109.823 162.034 108.358 161.109L111.394 156.976C112.279 157.612 113.349 158.109 114.602 158.466C115.855 158.822 116.934 159.001 117.84 159.001C118.746 159.001 119.377 158.881 119.849 158.64C120.321 158.399 120.557 158.086 120.557 157.7C120.557 157.392 120.442 157.151 120.21 156.978C119.979 156.805 119.661 156.717 119.256 156.717C119.006 156.717 118.722 156.726 118.403 156.747C118.085 156.767 117.829 156.785 117.637 156.804C116.636 156.919 115.603 156.976 114.545 156.976C112.83 156.976 111.438 156.654 110.369 156.009C109.299 155.364 108.764 154.308 108.764 152.844C108.764 151.148 109.563 149.833 111.164 148.898C112.762 147.962 115.114 147.496 118.216 147.496M118.216 145.953C114.804 145.953 112.242 146.481 110.384 147.566C108.315 148.776 107.221 150.6 107.221 152.844C107.221 155.088 108.318 156.486 109.333 157.177L107.116 160.197L106.136 161.531L107.535 162.415C109.123 163.418 110.846 164.176 112.653 164.666C114.445 165.153 116.238 165.399 117.985 165.399C121.142 165.399 123.588 164.873 125.462 163.79C127.554 162.581 128.661 160.555 128.661 157.93C128.661 156.004 127.837 154.479 126.278 153.523C126.162 153.452 126.045 153.384 125.923 153.319L128.04 151.183L129.307 149.905L127.851 148.848C126.513 147.878 124.962 147.141 123.241 146.66C121.56 146.191 119.871 145.953 118.215 145.953H118.216Z" fill="black"/>
<path d="M136.684 164.627C134.204 164.627 132.399 163.987 131.315 162.724C130.261 161.497 129.727 159.797 129.727 157.669L129.752 153.595C129.104 153.63 128.436 153.673 127.757 153.727L126.925 153.792V147.07H127.696C128.505 147.07 129.167 146.824 129.718 146.318C130.283 145.8 130.612 145.201 130.72 144.488L130.82 143.832H140.862L139.968 145.057C139.425 145.803 138.846 146.474 138.234 147.068H142.428V153.78L141.606 153.726C140.163 153.632 138.808 153.556 137.564 153.5L137.542 155.767C137.542 156.622 137.717 157.284 138.061 157.732C138.357 158.118 138.964 158.312 139.863 158.312C140.257 158.312 140.636 158.278 140.991 158.21L142.016 158.014L141.903 159.051C141.829 159.73 141.792 160.433 141.792 161.136C141.792 161.376 141.802 161.976 141.849 163.482L141.871 164.147L141.217 164.266C140.345 164.425 139.596 164.525 138.991 164.565C138.396 164.606 137.619 164.626 136.686 164.626L136.684 164.627Z" fill="#FFE100"/>
<path d="M139.343 144.605C138.36 145.954 137.272 147.032 136.077 147.843H141.656V152.958C139.883 152.843 138.264 152.756 136.8 152.698L136.77 155.761C136.77 156.801 136.997 157.616 137.449 158.204C137.901 158.792 138.707 159.085 139.863 159.085C140.306 159.085 140.73 159.046 141.134 158.969C141.057 159.682 141.019 160.405 141.019 161.138C141.019 161.485 141.037 162.275 141.077 163.508C140.229 163.662 139.517 163.758 138.938 163.797C138.36 163.835 137.608 163.854 136.684 163.854C134.429 163.854 132.835 163.309 131.9 162.221C130.965 161.133 130.499 159.614 130.499 157.668L130.528 152.784C129.622 152.823 128.677 152.881 127.696 152.957V147.841C128.698 147.841 129.546 147.523 130.239 146.887C130.932 146.252 131.347 145.491 131.482 144.603H139.344M142.378 143.06H130.157L129.958 144.37C129.877 144.91 129.634 145.349 129.198 145.748C128.79 146.122 128.313 146.296 127.698 146.296H126.154V154.624L127.818 154.494C128.208 154.463 128.596 154.435 128.977 154.411L128.958 157.658V157.662V157.667C128.958 159.985 129.556 161.854 130.733 163.226C131.969 164.665 133.972 165.397 136.687 165.397C137.638 165.397 138.431 165.377 139.043 165.335C139.687 165.292 140.443 165.19 141.357 165.025L142.665 164.787L142.624 163.459C142.576 161.959 142.567 161.369 142.567 161.138C142.567 160.462 142.602 159.789 142.673 159.136L142.898 157.062L140.851 157.452C140.543 157.511 140.213 157.54 139.867 157.54C139.147 157.54 138.776 157.391 138.678 157.261C138.443 156.957 138.32 156.44 138.318 155.766L138.332 154.309C139.346 154.36 140.425 154.421 141.559 154.495L143.202 154.602V146.296H139.988C140.195 146.043 140.397 145.782 140.594 145.511L142.38 143.059L142.378 143.06Z" fill="black"/>
<path d="M152.726 164.626C149.258 164.626 146.633 163.789 144.922 162.141C143.201 160.485 142.329 158.289 142.329 155.616C142.329 152.943 143.196 150.84 144.906 149.193C146.608 147.554 149.24 146.723 152.726 146.723C154.792 146.723 156.621 147.076 158.161 147.774C159.734 148.487 160.962 149.499 161.811 150.783C162.663 152.072 163.095 153.562 163.095 155.212C163.095 155.757 163.073 156.164 163.029 156.456L162.928 157.11H158.224C159.353 157.61 160.741 158.144 162.371 158.701L163.167 158.974L162.826 159.744C162.158 161.254 160.944 162.464 159.218 163.343C157.545 164.195 155.362 164.627 152.726 164.627V164.626ZM150.329 157.11C150.477 157.38 150.669 157.616 150.906 157.823C151.366 158.224 152.065 158.428 152.987 158.428C153.683 158.428 154.346 158.291 154.956 158.018C155.468 157.789 155.879 157.49 156.204 157.109H150.329V157.11ZM154.822 153.139C154.783 153.109 154.743 153.078 154.703 153.048C154.318 152.771 153.791 152.63 153.132 152.63C152.314 152.63 151.649 152.778 151.155 153.072C151.118 153.093 151.081 153.116 151.045 153.139H154.822Z" fill="#FFE100"/>
<path d="M152.726 147.494C154.692 147.494 156.397 147.821 157.842 148.477C159.286 149.133 160.394 150.043 161.166 151.209C161.936 152.375 162.322 153.709 162.322 155.212C162.322 155.713 162.303 156.088 162.265 156.338H149.258C149.413 157.187 149.792 157.875 150.4 158.405C151.007 158.936 151.87 159.199 152.987 159.199C153.797 159.199 154.558 159.04 155.271 158.723C155.984 158.405 156.552 157.957 156.976 157.378C158.266 158.014 159.982 158.698 162.121 159.431C161.524 160.78 160.439 161.854 158.87 162.653C157.299 163.453 155.252 163.852 152.728 163.852C149.451 163.852 147.028 163.096 145.457 161.584C143.886 160.071 143.101 158.082 143.101 155.614C143.101 153.147 143.882 151.25 145.442 149.747C147.002 148.244 149.431 147.492 152.726 147.492M149.461 153.909H156.282C156.05 153.293 155.675 152.797 155.155 152.42C154.635 152.043 153.961 151.857 153.132 151.857C152.167 151.857 151.379 152.04 150.761 152.406C150.144 152.772 149.711 153.273 149.461 153.909ZM152.726 145.949C149.033 145.949 146.223 146.854 144.371 148.636C142.504 150.434 141.558 152.783 141.558 155.614C141.558 158.446 142.51 160.888 144.386 162.695C146.246 164.487 149.052 165.396 152.726 165.396C155.484 165.396 157.786 164.936 159.569 164.028C161.456 163.067 162.789 161.73 163.532 160.054L164.214 158.514L162.621 157.969C162.533 157.94 162.447 157.909 162.362 157.88H163.592L163.793 156.571C163.843 156.24 163.868 155.795 163.868 155.21C163.868 153.406 163.393 151.773 162.456 150.357C161.526 148.949 160.189 147.844 158.482 147.071C156.842 146.327 154.905 145.951 152.729 145.951L152.726 145.949Z" fill="black"/>
<path d="M163.53 164.338L163.575 163.523C163.728 160.773 163.805 158.144 163.805 155.704C163.805 153.264 163.728 150.614 163.575 147.825L163.529 146.974L164.381 147.012C165.632 147.069 166.603 147.099 167.265 147.099C167.964 147.099 168.935 147.069 170.148 147.012L170.808 146.981L171.338 149.591C172.549 147.838 174.501 146.926 177.092 146.926C177.685 146.926 178.267 146.967 178.824 147.049L179.583 147.162L178.413 155.347L177.514 155.009C176.22 154.525 175.163 154.278 174.373 154.278C173.515 154.278 172.919 154.503 172.549 154.969C172.143 155.481 171.936 156.205 171.936 157.119L171.907 159.009C171.907 160.349 171.946 161.874 172.021 163.529L172.058 164.337H163.527L163.53 164.338Z" fill="#FFE100"/>
<path d="M177.093 147.699C177.651 147.699 178.191 147.737 178.711 147.814L177.787 154.288C176.4 153.768 175.262 153.507 174.377 153.507C173.278 153.507 172.469 153.835 171.949 154.49C171.429 155.146 171.168 156.023 171.168 157.12V157.091L171.139 158.998C171.139 160.367 171.177 161.889 171.255 163.565H164.347C164.501 160.79 164.579 158.17 164.579 155.702C164.579 153.234 164.501 150.595 164.347 147.782C165.619 147.839 166.591 147.868 167.267 147.868C167.98 147.868 168.952 147.839 170.187 147.782L171.054 152.06C171.863 149.151 173.876 147.696 177.096 147.696M177.096 146.152C174.893 146.152 173.108 146.75 171.788 147.91L171.701 147.476L171.438 146.18L170.116 146.242C168.913 146.299 167.955 146.327 167.268 146.327C166.619 146.327 165.66 146.297 164.42 146.242L162.716 146.165L162.808 147.868C162.96 150.642 163.037 153.277 163.037 155.703C163.037 158.129 162.96 160.745 162.808 163.48L162.717 165.108H172.873L172.799 163.494C172.724 161.856 172.685 160.349 172.685 159.009L172.714 157.119C172.714 156.382 172.864 155.821 173.16 155.447C173.239 155.348 173.477 155.049 174.38 155.049C174.858 155.049 175.745 155.168 177.248 155.731L179.046 156.406L179.318 154.504L180.242 148.03L180.46 146.51L178.94 146.287C178.346 146.199 177.725 146.154 177.096 146.154V146.152Z" fill="black"/>
<path d="M111.321 133.884C114.553 133.884 117.173 130.075 117.173 125.377C117.173 120.679 114.553 116.871 111.321 116.871C108.089 116.871 105.469 120.679 105.469 125.377C105.469 130.075 108.089 133.884 111.321 133.884Z" fill="white" stroke="black" stroke-width="1.54323" stroke-miterlimit="10"/>
<path d="M123.025 133.884C126.257 133.884 128.877 130.075 128.877 125.377C128.877 120.679 126.257 116.871 123.025 116.871C119.793 116.871 117.173 120.679 117.173 125.377C117.173 130.075 119.793 133.884 123.025 133.884Z" fill="white" stroke="black" stroke-width="1.54323" stroke-miterlimit="10"/>
<path d="M113.852 130.205C115.686 130.205 117.173 128.044 117.173 125.378C117.173 122.712 115.686 120.551 113.852 120.551C112.018 120.551 110.531 122.712 110.531 125.378C110.531 128.044 112.018 130.205 113.852 130.205Z" fill="black"/>
<path d="M119.919 127.268C119.919 125.178 121.61 123.488 123.698 123.488" stroke="black" stroke-width="1.54323" stroke-miterlimit="10" stroke-linecap="round"/>
<path d="M119.919 127.268C121.396 125.791 123.788 125.791 125.265 127.268" stroke="black" stroke-width="1.54323" stroke-miterlimit="10" stroke-linecap="round"/>
<path d="M126.003 105.877C126.003 110.05 122.626 113.425 118.455 113.425" stroke="black" stroke-width="1.54323" stroke-miterlimit="10" stroke-linecap="round"/>
<path d="M108.343 105.877C112.516 105.877 115.891 109.254 115.891 113.425" stroke="black" stroke-width="1.54323" stroke-miterlimit="10" stroke-linecap="round"/>
<path d="M117.173 138.503C119.725 138.503 121.794 136.434 121.794 133.882C121.794 131.33 119.725 129.262 117.173 129.262C114.621 129.262 112.553 131.33 112.553 133.882C112.553 136.434 114.621 138.503 117.173 138.503Z" fill="#FF0000" stroke="black" stroke-width="1.54323" stroke-miterlimit="10" stroke-linecap="round"/>
<path d="M186.017 122.676C184.438 126.007 180.384 128.616 176.821 127.67C172.16 126.432 170.489 121.784 170.802 118.592C170.92 117.39 171.572 113.652 173.472 113.023C175.247 112.435 175.409 115.319 175.748 114.993C176.957 113.836 179.756 110.682 181.813 110.831C184.403 111.021 183.849 116.351 184.358 118.342C184.571 119.176 185.929 117.839 186.361 118.481C186.914 119.301 186.617 121.41 186.017 122.674V122.676Z" fill="#FF0000" stroke="black" stroke-width="1.54323" stroke-miterlimit="10" stroke-linecap="round"/>
<path d="M181.314 121.419C180.564 123.298 180.053 125.589 176.999 124.411C174.333 123.385 175.264 121.181 176.014 119.303C176.764 117.423 178.559 116.374 180.022 116.959C181.485 117.544 182.064 119.541 181.314 121.419Z" fill="#FFC837"/>
<path d="M181.334 121.424C180.584 123.304 180.073 125.594 177.019 124.417C174.354 123.39 175.285 121.187 176.035 119.309" stroke="black" stroke-width="1.54323" stroke-miterlimit="10" stroke-linecap="round"/>
<path d="M178.388 118.472L179.338 115.27" stroke="black" stroke-width="1.54323" stroke-miterlimit="10" stroke-linecap="round"/>
<path d="M180.606 119.578L181.281 117.422" stroke="black" stroke-width="1.54323" stroke-miterlimit="10" stroke-linecap="round"/>
<path d="M183.692 50.2957C182.525 52.7587 179.53 54.6862 176.894 53.9871C173.449 53.072 172.215 49.6368 172.445 47.2771C172.531 46.3882 173.014 43.6259 174.417 43.1598C175.729 42.7246 175.849 44.8574 176.099 44.6166C176.993 43.7617 179.061 41.4298 180.582 41.5409C182.497 41.6814 182.087 45.6213 182.463 47.092C182.621 47.7077 183.624 46.72 183.943 47.1938C184.351 47.8003 184.132 49.359 183.689 50.2926L183.692 50.2957Z" fill="#FF0000" stroke="black" stroke-width="1.54323" stroke-miterlimit="10" stroke-linecap="round"/>
<path d="M180.215 49.369C179.661 50.7579 179.283 52.4509 177.025 51.582C175.056 50.8227 175.743 49.1946 176.297 47.8057C176.851 46.4168 178.178 45.6406 179.26 46.0727C180.342 46.5048 180.769 47.9801 180.215 49.369Z" fill="#FFC837"/>
<path d="M180.23 49.3738C179.676 50.7628 179.298 52.4557 177.04 51.5868C175.071 50.8276 175.758 49.1995 176.312 47.8105" stroke="black" stroke-width="1.54323" stroke-miterlimit="10" stroke-linecap="round"/>
<path d="M178.051 47.1915L178.754 44.8242" stroke="black" stroke-width="1.54323" stroke-miterlimit="10" stroke-linecap="round"/>
<path d="M179.693 48.0047L180.19 46.4121" stroke="black" stroke-width="1.54323" stroke-miterlimit="10" stroke-linecap="round"/>
<path d="M66.7693 95.5532C69.0255 100.524 68.098 107.598 63.6211 110.722C57.766 114.807 50.9156 112.249 47.6069 108.845C46.36 107.563 42.7581 103.252 43.8646 100.504C44.897 97.936 48.3122 100.51 48.269 99.8157C48.1162 97.3434 47.2258 91.1627 49.3647 88.9822C52.0561 86.2367 57.55 91.9591 60.2877 93.2862C61.4343 93.8418 61.2213 91.03 62.3587 91.155C63.8124 91.3155 65.9128 93.6659 66.7693 95.5532Z" fill="#FF0000" stroke="black" stroke-width="1.54323" stroke-miterlimit="10" stroke-linecap="round"/>
<path d="M60.8525 99.6688C62.2584 102.314 64.3603 105.081 60.1102 107.408C56.4018 109.439 54.8015 106.282 53.3941 103.636C51.9882 100.991 52.5175 97.9605 54.5762 96.8648C56.6364 95.7691 59.4451 97.0253 60.8525 99.6688Z" fill="#FFC837"/>
<path d="M60.8793 99.6504C62.2852 102.295 64.3871 105.063 60.1371 107.39C56.4287 109.421 54.8283 106.263 53.4209 103.618" stroke="black" stroke-width="1.54323" stroke-miterlimit="10" stroke-linecap="round"/>
<path d="M54.7255 100.161L52.0156 96.0234" stroke="black" stroke-width="1.54323" stroke-miterlimit="10" stroke-linecap="round"/>
<path d="M58.0935 98.7054L56.3018 95.8828" stroke="black" stroke-width="1.54323" stroke-miterlimit="10" stroke-linecap="round"/>
<path d="M46.1008 48.0062C48.0883 48.0062 49.6996 46.395 49.6996 44.4074C49.6996 42.4198 48.0883 40.8086 46.1008 40.8086C44.1132 40.8086 42.502 42.4198 42.502 44.4074C42.502 46.395 44.1132 48.0062 46.1008 48.0062Z" fill="#FF0000" stroke="black" stroke-width="1.54323" stroke-miterlimit="10" stroke-linecap="round"/>
<path d="M186.654 96.1659C189.18 96.1659 191.228 94.118 191.228 91.5917C191.228 89.0655 189.18 87.0176 186.654 87.0176C184.128 87.0176 182.08 89.0655 182.08 91.5917C182.08 94.118 184.128 96.1659 186.654 96.1659Z" fill="#FF0000" stroke="black" stroke-width="1.54323" stroke-miterlimit="10" stroke-linecap="round"/>
<path d="M177.157 18.3504C178.695 18.3504 179.942 17.1032 179.942 15.5648C179.942 14.0264 178.695 12.7793 177.157 12.7793C175.618 12.7793 174.371 14.0264 174.371 15.5648C174.371 17.1032 175.618 18.3504 177.157 18.3504Z" fill="#FF0000" stroke="black" stroke-width="1.54323" stroke-miterlimit="10" stroke-linecap="round"/>
<path d="M61.4017 22.4285C62.9402 22.4285 64.1873 21.1814 64.1873 19.643C64.1873 18.1045 62.9402 16.8574 61.4017 16.8574C59.8633 16.8574 58.6162 18.1045 58.6162 19.643C58.6162 21.1814 59.8633 22.4285 61.4017 22.4285Z" fill="#FF0000" stroke="black" stroke-width="1.54323" stroke-miterlimit="10" stroke-linecap="round"/>
</g>
<path d="M209 11C206.429 11 203.915 11.7624 201.778 13.1909C199.64 14.6194 197.974 16.6497 196.99 19.0251C196.006 21.4006 195.748 24.0144 196.25 26.5362C196.751 29.0579 197.99 31.3743 199.808 33.1924C201.626 35.0105 203.942 36.2486 206.464 36.7502C208.986 37.2518 211.599 36.9944 213.975 36.0104C216.35 35.0265 218.381 33.3603 219.809 31.2224C221.238 29.0846 222 26.5712 222 24C221.996 20.5533 220.626 17.2488 218.188 14.8116C215.751 12.3744 212.447 11.0036 209 11ZM214.708 21.7075L207.708 28.7075C207.615 28.8005 207.504 28.8742 207.383 28.9246C207.262 28.9749 207.131 29.0008 207 29.0008C206.869 29.0008 206.738 28.9749 206.617 28.9246C206.496 28.8742 206.385 28.8005 206.293 28.7075L203.293 25.7075C203.105 25.5199 202.999 25.2654 202.999 25C202.999 24.7346 203.105 24.4801 203.293 24.2925C203.48 24.1049 203.735 23.9994 204 23.9994C204.265 23.9994 204.52 24.1049 204.708 24.2925L207 26.5863L213.293 20.2925C213.385 20.1996 213.496 20.1259 213.617 20.0756C213.739 20.0253 213.869 19.9994 214 19.9994C214.131 19.9994 214.262 20.0253 214.383 20.0756C214.504 20.1259 214.615 20.1996 214.708 20.2925C214.8 20.3854 214.874 20.4957 214.924 20.6171C214.975 20.7385 215.001 20.8686 215.001 21C215.001 21.1314 214.975 21.2615 214.924 21.3829C214.874 21.5043 214.8 21.6146 214.708 21.7075Z" fill="#2CAE00"/>
</g>
<rect x="0.5" y="0.5" width="233" height="220" rx="15.5" stroke="#E4E4E7"/>
<defs>
<clipPath id="clip0_139_16619">
<rect width="234" height="221" rx="16" fill="white"/>
</clipPath>
<clipPath id="clip1_139_16619">
<rect width="150.269" height="154.021" fill="white" transform="translate(41.7305 12.0078)"/>
</clipPath>
</defs>
</svg>
