<svg width="768" height="699" viewBox="0 0 768 699" fill="none" xmlns="http://www.w3.org/2000/svg">
<rect x="24.3584" y="3.35843" width="719.283" height="356.283" fill="#FAFAFB"/>
<rect x="24.3584" y="3.35843" width="719.283" height="356.283" stroke="#C6C6C6" stroke-width="0.716867" stroke-dasharray="2.87 2.87"/>
<path d="M410.235 130.27C409.837 119.993 401.297 111.781 391.013 111.781C387.436 111.782 383.929 112.778 380.886 114.658C377.843 116.539 375.383 119.229 373.782 122.428C372.452 125.08 371.756 128.005 371.75 130.972C371.757 131.423 371.593 131.86 371.292 132.195C370.991 132.531 370.574 132.74 370.125 132.781C369.885 132.798 369.644 132.766 369.417 132.686C369.19 132.605 368.982 132.479 368.806 132.315C368.63 132.151 368.49 131.952 368.394 131.731C368.298 131.51 368.249 131.272 368.25 131.031C368.248 128.584 368.643 126.152 369.418 123.83C369.469 123.681 369.479 123.521 369.447 123.367C369.415 123.213 369.342 123.071 369.235 122.955C369.129 122.839 368.993 122.753 368.843 122.708C368.692 122.663 368.532 122.659 368.379 122.697C365.347 123.453 362.654 125.2 360.728 127.661C358.803 130.122 357.754 133.156 357.75 136.281C357.75 143.979 364.258 150.281 371.969 150.281H391C393.591 150.278 396.155 149.753 398.539 148.737C400.922 147.72 403.076 146.233 404.872 144.365C406.668 142.497 408.068 140.286 408.989 137.864C409.911 135.442 410.334 132.859 410.235 130.27ZM399.238 132.269C399.076 132.432 398.883 132.561 398.67 132.649C398.458 132.737 398.23 132.783 398 132.783C397.77 132.783 397.542 132.737 397.33 132.649C397.117 132.561 396.924 132.432 396.762 132.269L392.75 128.255V141.531C392.75 141.995 392.566 142.441 392.237 142.769C391.909 143.097 391.464 143.281 391 143.281C390.536 143.281 390.091 143.097 389.763 142.769C389.434 142.441 389.25 141.995 389.25 141.531V128.255L385.238 132.269C384.91 132.598 384.464 132.782 384 132.782C383.536 132.782 383.09 132.598 382.762 132.269C382.434 131.941 382.249 131.496 382.249 131.031C382.249 130.567 382.434 130.121 382.762 129.793L389.762 122.793C389.924 122.63 390.117 122.501 390.33 122.413C390.542 122.325 390.77 122.28 391 122.28C391.23 122.28 391.458 122.325 391.67 122.413C391.883 122.501 392.076 122.63 392.238 122.793L399.238 129.793C399.401 129.956 399.53 130.149 399.618 130.361C399.706 130.574 399.751 130.801 399.751 131.031C399.751 131.261 399.706 131.489 399.618 131.701C399.53 131.914 399.401 132.107 399.238 132.269Z" fill="#52525B"/>
<path d="M276.695 178.031L281.715 163.939H283.805V166.527H283.062L279.342 178.031H276.695ZM279.225 174.389L279.889 172.445H286.354L287.008 174.389H279.225ZM286.92 178.031L283.199 166.527V163.939H284.547L289.557 178.031H286.92ZM294.85 178.217C293.958 178.217 293.186 177.995 292.535 177.553C291.884 177.104 291.38 176.469 291.021 175.648C290.663 174.828 290.484 173.858 290.484 172.738V172.729C290.484 171.596 290.66 170.622 291.012 169.809C291.37 168.988 291.874 168.357 292.525 167.914C293.176 167.471 293.948 167.25 294.84 167.25C295.328 167.25 295.784 167.328 296.207 167.484C296.63 167.641 297.001 167.859 297.32 168.139C297.639 168.419 297.893 168.757 298.082 169.154H298.219V163.393H300.65V178.031H298.219V176.342H298.082C297.887 176.732 297.63 177.068 297.311 177.348C296.998 177.628 296.633 177.842 296.217 177.992C295.8 178.142 295.344 178.217 294.85 178.217ZM295.592 176.166C296.139 176.166 296.611 176.029 297.008 175.756C297.405 175.476 297.711 175.079 297.926 174.564C298.141 174.05 298.248 173.445 298.248 172.748V172.729C298.248 172.019 298.137 171.41 297.916 170.902C297.701 170.388 297.395 169.994 296.998 169.721C296.601 169.441 296.132 169.301 295.592 169.301C295.051 169.301 294.583 169.441 294.186 169.721C293.795 169.994 293.492 170.385 293.277 170.893C293.069 171.4 292.965 172.012 292.965 172.729V172.738C292.965 173.448 293.069 174.06 293.277 174.574C293.492 175.089 293.795 175.482 294.186 175.756C294.583 176.029 295.051 176.166 295.592 176.166ZM307.33 178.217C306.438 178.217 305.667 177.995 305.016 177.553C304.365 177.104 303.86 176.469 303.502 175.648C303.144 174.828 302.965 173.858 302.965 172.738V172.729C302.965 171.596 303.141 170.622 303.492 169.809C303.85 168.988 304.355 168.357 305.006 167.914C305.657 167.471 306.428 167.25 307.32 167.25C307.809 167.25 308.264 167.328 308.688 167.484C309.111 167.641 309.482 167.859 309.801 168.139C310.12 168.419 310.374 168.757 310.562 169.154H310.699V163.393H313.131V178.031H310.699V176.342H310.562C310.367 176.732 310.11 177.068 309.791 177.348C309.479 177.628 309.114 177.842 308.697 177.992C308.281 178.142 307.825 178.217 307.33 178.217ZM308.072 176.166C308.619 176.166 309.091 176.029 309.488 175.756C309.885 175.476 310.191 175.079 310.406 174.564C310.621 174.05 310.729 173.445 310.729 172.748V172.729C310.729 172.019 310.618 171.41 310.396 170.902C310.182 170.388 309.876 169.994 309.479 169.721C309.081 169.441 308.613 169.301 308.072 169.301C307.532 169.301 307.063 169.441 306.666 169.721C306.275 169.994 305.973 170.385 305.758 170.893C305.549 171.4 305.445 172.012 305.445 172.729V172.738C305.445 173.448 305.549 174.06 305.758 174.574C305.973 175.089 306.275 175.482 306.666 175.756C307.063 176.029 307.532 176.166 308.072 176.166ZM322.174 181.713C322.005 181.713 321.832 181.706 321.656 181.693C321.48 181.68 321.318 181.667 321.168 181.654V179.789C321.266 179.802 321.38 179.812 321.51 179.818C321.64 179.831 321.773 179.838 321.91 179.838C322.405 179.838 322.799 179.734 323.092 179.525C323.391 179.324 323.609 178.985 323.746 178.51L323.883 178.041L320.084 167.436H322.73L325.494 176.723L324.898 175.766H325.66L325.084 176.723L327.838 167.436H330.396L326.598 178.295C326.298 179.148 325.953 179.825 325.562 180.326C325.172 180.827 324.703 181.182 324.156 181.391C323.609 181.605 322.949 181.713 322.174 181.713ZM336.432 178.246C335.383 178.246 334.475 178.025 333.707 177.582C332.945 177.139 332.356 176.508 331.939 175.688C331.529 174.861 331.324 173.878 331.324 172.738V172.719C331.324 171.586 331.533 170.609 331.949 169.789C332.366 168.962 332.955 168.327 333.717 167.885C334.485 167.442 335.39 167.221 336.432 167.221C337.48 167.221 338.385 167.442 339.146 167.885C339.908 168.327 340.497 168.959 340.914 169.779C341.331 170.6 341.539 171.579 341.539 172.719V172.738C341.539 173.878 341.331 174.861 340.914 175.688C340.504 176.508 339.918 177.139 339.156 177.582C338.395 178.025 337.486 178.246 336.432 178.246ZM336.432 176.273C336.985 176.273 337.457 176.133 337.848 175.854C338.238 175.574 338.538 175.17 338.746 174.643C338.954 174.115 339.059 173.48 339.059 172.738V172.719C339.059 171.977 338.954 171.345 338.746 170.824C338.538 170.297 338.238 169.893 337.848 169.613C337.457 169.333 336.985 169.193 336.432 169.193C335.885 169.193 335.416 169.333 335.025 169.613C334.635 169.893 334.335 170.297 334.127 170.824C333.919 171.345 333.814 171.977 333.814 172.719V172.738C333.814 173.487 333.919 174.125 334.127 174.652C334.335 175.18 334.635 175.583 335.025 175.863C335.416 176.137 335.885 176.273 336.432 176.273ZM347.301 178.246C346.513 178.246 345.849 178.09 345.309 177.777C344.768 177.465 344.361 177.016 344.088 176.43C343.814 175.837 343.678 175.124 343.678 174.291V167.436H346.109V173.744C346.109 174.551 346.275 175.163 346.607 175.58C346.939 175.99 347.467 176.195 348.189 176.195C348.574 176.195 348.912 176.137 349.205 176.02C349.505 175.896 349.755 175.72 349.957 175.492C350.159 175.264 350.312 174.991 350.416 174.672C350.52 174.353 350.572 173.998 350.572 173.607V167.436H353.004V178.031H350.572V176.41H350.436C350.266 176.788 350.035 177.113 349.742 177.387C349.449 177.66 349.098 177.872 348.688 178.021C348.277 178.171 347.815 178.246 347.301 178.246ZM355.738 178.031V167.436H358.17V169.105H358.307C358.482 168.52 358.801 168.064 359.264 167.738C359.726 167.413 360.292 167.25 360.963 167.25C361.145 167.25 361.318 167.263 361.48 167.289C361.65 167.309 361.79 167.331 361.9 167.357V169.545C361.725 169.499 361.539 169.467 361.344 169.447C361.155 169.421 360.956 169.408 360.748 169.408C360.227 169.408 359.771 169.509 359.381 169.711C358.997 169.906 358.697 170.189 358.482 170.561C358.274 170.925 358.17 171.365 358.17 171.879V178.031H355.738ZM368.727 181.547V167.436H371.158V169.135H371.295C371.497 168.738 371.754 168.402 372.066 168.129C372.379 167.849 372.743 167.634 373.16 167.484C373.577 167.328 374.033 167.25 374.527 167.25C375.419 167.25 376.191 167.475 376.842 167.924C377.493 168.367 377.997 168.998 378.355 169.818C378.714 170.632 378.893 171.602 378.893 172.729V172.738C378.893 173.871 378.714 174.848 378.355 175.668C378.004 176.482 377.503 177.11 376.852 177.553C376.201 177.995 375.429 178.217 374.537 178.217C374.049 178.217 373.593 178.139 373.17 177.982C372.753 177.826 372.382 177.608 372.057 177.328C371.738 177.048 371.484 176.713 371.295 176.322H371.158V181.547H368.727ZM373.785 176.166C374.332 176.166 374.801 176.029 375.191 175.756C375.582 175.476 375.882 175.082 376.09 174.574C376.305 174.06 376.412 173.448 376.412 172.738V172.729C376.412 172.012 376.305 171.4 376.09 170.893C375.882 170.378 375.582 169.984 375.191 169.711C374.801 169.438 374.332 169.301 373.785 169.301C373.245 169.301 372.773 169.441 372.369 169.721C371.972 169.994 371.666 170.388 371.451 170.902C371.236 171.41 371.129 172.019 371.129 172.729V172.738C371.129 173.441 371.236 174.05 371.451 174.564C371.673 175.079 371.982 175.476 372.379 175.756C372.776 176.029 373.245 176.166 373.785 176.166ZM381.217 178.031V163.393H383.648V169.096H383.795C384.049 168.51 384.436 168.051 384.957 167.719C385.478 167.387 386.126 167.221 386.9 167.221C387.682 167.221 388.346 167.38 388.893 167.699C389.439 168.018 389.856 168.477 390.143 169.076C390.429 169.675 390.572 170.395 390.572 171.234V178.031H388.141V171.781C388.141 170.954 387.962 170.329 387.604 169.906C387.245 169.483 386.705 169.271 385.982 169.271C385.507 169.271 385.094 169.379 384.742 169.594C384.397 169.809 384.127 170.111 383.932 170.502C383.743 170.886 383.648 171.342 383.648 171.869V178.031H381.217ZM397.818 178.246C396.77 178.246 395.862 178.025 395.094 177.582C394.332 177.139 393.743 176.508 393.326 175.688C392.916 174.861 392.711 173.878 392.711 172.738V172.719C392.711 171.586 392.919 170.609 393.336 169.789C393.753 168.962 394.342 168.327 395.104 167.885C395.872 167.442 396.777 167.221 397.818 167.221C398.867 167.221 399.771 167.442 400.533 167.885C401.295 168.327 401.884 168.959 402.301 169.779C402.717 170.6 402.926 171.579 402.926 172.719V172.738C402.926 173.878 402.717 174.861 402.301 175.688C401.891 176.508 401.305 177.139 400.543 177.582C399.781 178.025 398.873 178.246 397.818 178.246ZM397.818 176.273C398.372 176.273 398.844 176.133 399.234 175.854C399.625 175.574 399.924 175.17 400.133 174.643C400.341 174.115 400.445 173.48 400.445 172.738V172.719C400.445 171.977 400.341 171.345 400.133 170.824C399.924 170.297 399.625 169.893 399.234 169.613C398.844 169.333 398.372 169.193 397.818 169.193C397.271 169.193 396.803 169.333 396.412 169.613C396.021 169.893 395.722 170.297 395.514 170.824C395.305 171.345 395.201 171.977 395.201 172.719V172.738C395.201 173.487 395.305 174.125 395.514 174.652C395.722 175.18 396.021 175.583 396.412 175.863C396.803 176.137 397.271 176.273 397.818 176.273ZM409.264 178.119C408.079 178.119 407.216 177.895 406.676 177.445C406.142 176.99 405.875 176.241 405.875 175.199V169.311H404.264V167.436H405.875V164.809H408.346V167.436H410.514V169.311H408.346V174.721C408.346 175.242 408.456 175.619 408.678 175.854C408.906 176.081 409.264 176.195 409.752 176.195C409.908 176.195 410.042 176.192 410.152 176.186C410.27 176.173 410.39 176.163 410.514 176.156V178.012C410.351 178.038 410.162 178.061 409.947 178.08C409.732 178.106 409.505 178.119 409.264 178.119ZM417.252 178.246C416.204 178.246 415.296 178.025 414.527 177.582C413.766 177.139 413.176 176.508 412.76 175.688C412.35 174.861 412.145 173.878 412.145 172.738V172.719C412.145 171.586 412.353 170.609 412.77 169.789C413.186 168.962 413.775 168.327 414.537 167.885C415.305 167.442 416.21 167.221 417.252 167.221C418.3 167.221 419.205 167.442 419.967 167.885C420.729 168.327 421.318 168.959 421.734 169.779C422.151 170.6 422.359 171.579 422.359 172.719V172.738C422.359 173.878 422.151 174.861 421.734 175.688C421.324 176.508 420.738 177.139 419.977 177.582C419.215 178.025 418.307 178.246 417.252 178.246ZM417.252 176.273C417.805 176.273 418.277 176.133 418.668 175.854C419.059 175.574 419.358 175.17 419.566 174.643C419.775 174.115 419.879 173.48 419.879 172.738V172.719C419.879 171.977 419.775 171.345 419.566 170.824C419.358 170.297 419.059 169.893 418.668 169.613C418.277 169.333 417.805 169.193 417.252 169.193C416.705 169.193 416.236 169.333 415.846 169.613C415.455 169.893 415.156 170.297 414.947 170.824C414.739 171.345 414.635 171.977 414.635 172.719V172.738C414.635 173.487 414.739 174.125 414.947 174.652C415.156 175.18 415.455 175.583 415.846 175.863C416.236 176.137 416.705 176.273 417.252 176.273ZM434.566 163.393L430.484 181.547H428.238L432.32 163.393H434.566ZM443.805 178.031L440.045 167.436H442.633L445.084 175.688H445.23L447.672 167.436H450.221L446.471 178.031H443.805ZM452.086 178.031V167.436H454.518V178.031H452.086ZM453.307 165.717C452.916 165.717 452.581 165.58 452.301 165.307C452.021 165.027 451.881 164.695 451.881 164.311C451.881 163.92 452.021 163.588 452.301 163.314C452.581 163.041 452.916 162.904 453.307 162.904C453.697 162.904 454.033 163.041 454.312 163.314C454.592 163.588 454.732 163.92 454.732 164.311C454.732 164.695 454.592 165.027 454.312 165.307C454.033 165.58 453.697 165.717 453.307 165.717ZM461.139 178.217C460.247 178.217 459.475 177.995 458.824 177.553C458.173 177.104 457.669 176.469 457.311 175.648C456.952 174.828 456.773 173.858 456.773 172.738V172.729C456.773 171.596 456.949 170.622 457.301 169.809C457.659 168.988 458.163 168.357 458.814 167.914C459.465 167.471 460.237 167.25 461.129 167.25C461.617 167.25 462.073 167.328 462.496 167.484C462.919 167.641 463.29 167.859 463.609 168.139C463.928 168.419 464.182 168.757 464.371 169.154H464.508V163.393H466.939V178.031H464.508V176.342H464.371C464.176 176.732 463.919 177.068 463.6 177.348C463.287 177.628 462.923 177.842 462.506 177.992C462.089 178.142 461.633 178.217 461.139 178.217ZM461.881 176.166C462.428 176.166 462.9 176.029 463.297 175.756C463.694 175.476 464 175.079 464.215 174.564C464.43 174.05 464.537 173.445 464.537 172.748V172.729C464.537 172.019 464.426 171.41 464.205 170.902C463.99 170.388 463.684 169.994 463.287 169.721C462.89 169.441 462.421 169.301 461.881 169.301C461.34 169.301 460.872 169.441 460.475 169.721C460.084 169.994 459.781 170.385 459.566 170.893C459.358 171.4 459.254 172.012 459.254 172.729V172.738C459.254 173.448 459.358 174.06 459.566 174.574C459.781 175.089 460.084 175.482 460.475 175.756C460.872 176.029 461.34 176.166 461.881 176.166ZM474.322 178.246C473.274 178.246 472.369 178.025 471.607 177.582C470.852 177.133 470.27 176.498 469.859 175.678C469.456 174.857 469.254 173.884 469.254 172.758V172.748C469.254 171.635 469.456 170.665 469.859 169.838C470.27 169.011 470.846 168.37 471.588 167.914C472.33 167.452 473.206 167.221 474.215 167.221C475.217 167.221 476.083 167.442 476.812 167.885C477.548 168.327 478.111 168.949 478.502 169.75C478.899 170.544 479.098 171.475 479.098 172.543V173.344H470.475V171.713H477.916L476.754 173.236V172.27C476.754 171.566 476.646 170.984 476.432 170.521C476.217 170.059 475.921 169.711 475.543 169.477C475.172 169.242 474.739 169.125 474.244 169.125C473.749 169.125 473.31 169.245 472.926 169.486C472.542 169.727 472.236 170.082 472.008 170.551C471.786 171.02 471.676 171.592 471.676 172.27V173.236C471.676 173.887 471.783 174.444 471.998 174.906C472.219 175.368 472.532 175.723 472.936 175.971C473.346 176.218 473.827 176.342 474.381 176.342C474.811 176.342 475.182 176.28 475.494 176.156C475.807 176.026 476.061 175.87 476.256 175.688C476.451 175.499 476.588 175.316 476.666 175.141L476.695 175.072H478.99L478.971 175.16C478.886 175.518 478.73 175.88 478.502 176.244C478.274 176.602 477.971 176.934 477.594 177.24C477.216 177.54 476.754 177.784 476.207 177.973C475.667 178.155 475.038 178.246 474.322 178.246ZM485.924 178.246C484.876 178.246 483.967 178.025 483.199 177.582C482.438 177.139 481.848 176.508 481.432 175.688C481.021 174.861 480.816 173.878 480.816 172.738V172.719C480.816 171.586 481.025 170.609 481.441 169.789C481.858 168.962 482.447 168.327 483.209 167.885C483.977 167.442 484.882 167.221 485.924 167.221C486.972 167.221 487.877 167.442 488.639 167.885C489.4 168.327 489.99 168.959 490.406 169.779C490.823 170.6 491.031 171.579 491.031 172.719V172.738C491.031 173.878 490.823 174.861 490.406 175.688C489.996 176.508 489.41 177.139 488.648 177.582C487.887 178.025 486.979 178.246 485.924 178.246ZM485.924 176.273C486.477 176.273 486.949 176.133 487.34 175.854C487.73 175.574 488.03 175.17 488.238 174.643C488.447 174.115 488.551 173.48 488.551 172.738V172.719C488.551 171.977 488.447 171.345 488.238 170.824C488.03 170.297 487.73 169.893 487.34 169.613C486.949 169.333 486.477 169.193 485.924 169.193C485.377 169.193 484.908 169.333 484.518 169.613C484.127 169.893 483.827 170.297 483.619 170.824C483.411 171.345 483.307 171.977 483.307 172.719V172.738C483.307 173.487 483.411 174.125 483.619 174.652C483.827 175.18 484.127 175.583 484.518 175.863C484.908 176.137 485.377 176.273 485.924 176.273Z" fill="#52525B"/>
<rect x="277" y="205.973" width="214" height="48" rx="24" fill="#FFC10E"/>
<path d="M364.699 223.953H366.874V231.806C366.866 234.387 364.923 236.155 361.993 236.155C359.046 236.155 357.121 234.387 357.112 231.806V223.953H359.271V231.623C359.279 233.142 360.333 234.221 361.993 234.229C363.653 234.221 364.699 233.142 364.699 231.623V223.953ZM368.999 239.359V226.958H371.074V228.436H371.207C371.531 227.796 372.195 226.842 373.797 226.842C375.872 226.842 377.507 228.469 377.516 231.474C377.507 234.437 375.922 236.13 373.797 236.139C372.245 236.13 371.539 235.209 371.207 234.545H371.124V239.359H368.999ZM371.074 231.457C371.083 233.217 371.846 234.396 373.216 234.396C374.619 234.396 375.357 233.159 375.357 231.457C375.357 229.78 374.635 228.577 373.216 228.568C371.83 228.577 371.083 229.706 371.074 231.457ZM381.301 223.953V235.973H379.176V223.953H381.301ZM387.261 236.155C384.629 236.155 382.944 234.288 382.944 231.507C382.944 228.701 384.629 226.842 387.261 226.842C389.9 226.842 391.585 228.701 391.577 231.507C391.585 234.288 389.9 236.155 387.261 236.155ZM385.086 231.49C385.086 233.142 385.808 234.462 387.277 234.462C388.722 234.462 389.444 233.142 389.436 231.49C389.444 229.838 388.722 228.51 387.277 228.519C385.808 228.51 385.086 229.838 385.086 231.49ZM392.806 233.433C392.806 231.407 394.491 230.818 396.159 230.71C396.79 230.66 398.077 230.602 398.475 230.585L398.467 229.863C398.467 228.967 397.894 228.452 396.84 228.452C395.894 228.452 395.312 228.884 395.146 229.531H393.104C393.254 227.996 394.632 226.842 396.89 226.842C398.6 226.842 400.575 227.547 400.575 229.946V235.973H398.55V234.728H398.483C398.085 235.491 397.247 236.155 395.827 236.155C394.109 236.155 392.806 235.217 392.806 233.433ZM394.848 233.416C394.848 234.196 395.487 234.595 396.375 234.595C397.662 234.595 398.483 233.748 398.483 232.735L398.475 231.997C398.093 232.013 396.915 232.088 396.491 232.121C395.487 232.204 394.848 232.627 394.848 233.416ZM405.921 236.139C403.804 236.13 402.202 234.437 402.202 231.474C402.202 228.469 403.846 226.842 405.938 226.842C407.523 226.842 408.187 227.796 408.511 228.436H408.594V223.953H410.702V235.973H408.627V234.545H408.511C408.17 235.209 407.481 236.13 405.921 236.139ZM404.36 231.457C404.36 233.159 405.107 234.396 406.502 234.396C407.872 234.396 408.644 233.217 408.644 231.457C408.644 229.706 407.88 228.577 406.502 228.568C405.091 228.577 404.36 229.78 404.36 231.457Z" fill="white"/>
<path d="M25.4775 399V387.022H30.3169C32.8901 387.022 34.4341 388.458 34.4341 390.741V390.757C34.4341 392.343 33.5957 393.654 32.1763 394.169L34.791 399H32.3423L29.9932 394.493H27.6191V399H25.4775ZM27.6191 392.849H30.0928C31.4458 392.849 32.2344 392.094 32.2344 390.807V390.791C32.2344 389.537 31.4126 388.757 30.0513 388.757H27.6191V392.849ZM39.2568 399.149C37.5303 399.149 36.2769 398.087 36.2769 396.435V396.418C36.2769 394.8 37.5137 393.854 39.7217 393.721L42.0542 393.58V392.799C42.0542 391.895 41.4648 391.396 40.3525 391.396C39.4062 391.396 38.792 391.737 38.5845 392.334L38.5762 392.368H36.6255L36.6338 392.293C36.833 390.766 38.2939 389.753 40.4521 389.753C42.7847 389.753 44.0962 390.882 44.0962 392.799V399H42.0542V397.755H41.9131C41.415 398.635 40.4521 399.149 39.2568 399.149ZM38.3188 396.335C38.3188 397.107 38.9746 397.564 39.8877 397.564C41.1328 397.564 42.0542 396.75 42.0542 395.671V394.941L40.0122 395.074C38.8584 395.148 38.3188 395.572 38.3188 396.319V396.335ZM50.1475 399.042C48.064 399.042 47.209 398.344 47.209 396.593V391.529H45.7979V389.927H47.209V387.703H49.3091V389.927H51.2266V391.529H49.3091V396.103C49.3091 397.008 49.666 397.39 50.5293 397.39C50.8198 397.39 50.9775 397.381 51.2266 397.356V398.95C50.9277 399.008 50.5459 399.042 50.1475 399.042ZM57.0869 399.183C54.3892 399.183 52.7539 397.373 52.7539 394.484V394.476C52.7539 391.621 54.4058 389.753 56.9873 389.753C59.5688 389.753 61.1626 391.562 61.1626 394.302V394.982H54.8208C54.8457 396.609 55.7256 397.556 57.1284 397.556C58.249 397.556 58.8882 396.991 59.0874 396.576L59.1123 396.518H61.0796L61.0547 396.593C60.7642 397.763 59.5522 399.183 57.0869 399.183ZM57.0122 391.372C55.8584 391.372 54.9951 392.152 54.8374 393.596H59.1455C59.0044 392.11 58.166 391.372 57.0122 391.372ZM68.7329 402.188C68.4839 402.188 68.1934 402.179 67.9443 402.154V400.569C68.1104 400.585 68.3428 400.594 68.5586 400.594C69.4053 400.594 69.9116 400.245 70.1357 399.423L70.2437 399.008L66.998 389.927H69.2559L71.3726 397.016H71.5303L73.6387 389.927H75.8135L72.5596 399.191C71.7793 401.465 70.7417 402.188 68.7329 402.188ZM81.1426 399.183C78.4199 399.183 76.7764 397.406 76.7764 394.468V394.451C76.7764 391.538 78.4448 389.753 81.1426 389.753C83.8486 389.753 85.5088 391.529 85.5088 394.451V394.468C85.5088 397.406 83.8569 399.183 81.1426 399.183ZM81.1426 397.506C82.5786 397.506 83.3921 396.385 83.3921 394.476V394.459C83.3921 392.55 82.5703 391.421 81.1426 391.421C79.7065 391.421 78.8848 392.55 78.8848 394.459V394.476C78.8848 396.385 79.7065 397.506 81.1426 397.506ZM90.5889 399.183C88.5469 399.183 87.501 397.954 87.501 395.796V389.927H89.5679V395.323C89.5679 396.726 90.0908 397.439 91.3359 397.439C92.6724 397.439 93.3862 396.576 93.3862 395.215V389.927H95.4531V399H93.3862V397.622H93.2451C92.8218 398.593 91.9004 399.183 90.5889 399.183ZM97.9766 399V389.927H100.043V391.322H100.185C100.492 390.351 101.322 389.778 102.517 389.778C102.833 389.778 103.156 389.819 103.355 389.877V391.729C103.023 391.662 102.683 391.612 102.326 391.612C100.948 391.612 100.043 392.434 100.043 393.729V399H97.9766ZM113.466 399.183C110.768 399.183 109.133 397.373 109.133 394.484V394.476C109.133 391.621 110.785 389.753 113.366 389.753C115.948 389.753 117.542 391.562 117.542 394.302V394.982H111.2C111.225 396.609 112.104 397.556 113.507 397.556C114.628 397.556 115.267 396.991 115.466 396.576L115.491 396.518H117.458L117.434 396.593C117.143 397.763 115.931 399.183 113.466 399.183ZM113.391 391.372C112.237 391.372 111.374 392.152 111.216 393.596H115.524C115.383 392.11 114.545 391.372 113.391 391.372ZM118.554 399L121.493 394.501L118.529 389.927H120.92L122.721 393.073H122.862L124.655 389.927H126.921L123.991 394.41L126.955 399H124.63L122.771 395.846H122.63L120.779 399H118.554ZM128.772 402.013V389.927H130.839V391.347H130.98C131.479 390.359 132.466 389.778 133.736 389.778C136.011 389.778 137.463 391.587 137.463 394.459V394.476C137.463 397.365 136.036 399.149 133.736 399.149C132.491 399.149 131.454 398.535 130.98 397.556H130.839V402.013H128.772ZM133.089 397.406C134.5 397.406 135.355 396.294 135.355 394.476V394.459C135.355 392.633 134.5 391.521 133.089 391.521C131.686 391.521 130.814 392.633 130.814 394.451V394.468C130.814 396.286 131.686 397.406 133.089 397.406ZM143.432 399.183C140.734 399.183 139.099 397.373 139.099 394.484V394.476C139.099 391.621 140.75 389.753 143.332 389.753C145.914 389.753 147.507 391.562 147.507 394.302V394.982H141.166C141.19 396.609 142.07 397.556 143.473 397.556C144.594 397.556 145.233 396.991 145.432 396.576L145.457 396.518H147.424L147.399 396.593C147.109 397.763 145.897 399.183 143.432 399.183ZM143.357 391.372C142.203 391.372 141.34 392.152 141.182 393.596H145.49C145.349 392.11 144.511 391.372 143.357 391.372ZM149.574 399V389.927H151.641V391.322H151.782C152.089 390.351 152.919 389.778 154.115 389.778C154.43 389.778 154.754 389.819 154.953 389.877V391.729C154.621 391.662 154.281 391.612 153.924 391.612C152.546 391.612 151.641 392.434 151.641 393.729V399H149.574ZM157.709 388.408C157.028 388.408 156.472 387.869 156.472 387.188C156.472 386.516 157.028 385.968 157.709 385.968C158.381 385.968 158.938 386.516 158.938 387.188C158.938 387.869 158.381 388.408 157.709 388.408ZM156.671 399V389.927H158.738V399H156.671ZM165.163 399.183C162.465 399.183 160.83 397.373 160.83 394.484V394.476C160.83 391.621 162.482 389.753 165.063 389.753C167.645 389.753 169.239 391.562 169.239 394.302V394.982H162.897C162.922 396.609 163.802 397.556 165.205 397.556C166.325 397.556 166.964 396.991 167.164 396.576L167.188 396.518H169.156L169.131 396.593C168.84 397.763 167.628 399.183 165.163 399.183ZM165.088 391.372C163.935 391.372 163.071 392.152 162.914 393.596H167.222C167.081 392.11 166.242 391.372 165.088 391.372ZM171.306 399V389.927H173.373V391.313H173.514C173.945 390.342 174.817 389.753 176.128 389.753C178.154 389.753 179.258 390.973 179.258 393.131V399H177.191V393.613C177.191 392.202 176.618 391.488 175.365 391.488C174.136 391.488 173.373 392.351 173.373 393.712V399H171.306ZM185.591 399.183C182.86 399.183 181.25 397.415 181.25 394.451V394.435C181.25 391.504 182.852 389.753 185.583 389.753C187.916 389.753 189.31 391.048 189.542 392.924V392.957H187.592L187.583 392.932C187.393 392.052 186.72 391.421 185.591 391.421C184.18 391.421 183.35 392.534 183.35 394.435V394.451C183.35 396.377 184.188 397.506 185.591 397.506C186.662 397.506 187.318 397.016 187.575 396.062L187.592 396.028L189.542 396.02L189.526 396.086C189.227 397.946 187.891 399.183 185.591 399.183ZM195.395 399.183C192.697 399.183 191.062 397.373 191.062 394.484V394.476C191.062 391.621 192.713 389.753 195.295 389.753C197.876 389.753 199.47 391.562 199.47 394.302V394.982H193.128C193.153 396.609 194.033 397.556 195.436 397.556C196.557 397.556 197.196 396.991 197.395 396.576L197.42 396.518H199.387L199.362 396.593C199.072 397.763 197.86 399.183 195.395 399.183ZM195.32 391.372C194.166 391.372 193.303 392.152 193.145 393.596H197.453C197.312 392.11 196.474 391.372 195.32 391.372Z" fill="black"/>
<path d="M53.2862 432.355L47.6612 437.209L49.3749 444.467C49.4695 444.861 49.4451 445.275 49.305 445.655C49.1648 446.035 48.9151 446.365 48.5873 446.604C48.2596 446.842 47.8686 446.978 47.4637 446.994C47.0588 447.01 46.6582 446.906 46.3124 446.695L39.9999 442.81L33.6837 446.695C33.338 446.905 32.9378 447.008 32.5336 446.991C32.1294 446.974 31.7392 446.838 31.4122 446.6C31.0851 446.362 30.8359 446.032 30.6958 445.653C30.5557 445.273 30.5311 444.861 30.6249 444.467L32.3449 437.209L26.7199 432.355C26.414 432.09 26.1928 431.742 26.0839 431.353C25.975 430.963 25.9832 430.55 26.1074 430.166C26.2317 429.781 26.4666 429.441 26.7827 429.189C27.0988 428.937 27.4822 428.784 27.8849 428.749L35.2599 428.154L38.1049 421.269C38.2589 420.893 38.521 420.572 38.8579 420.346C39.1948 420.121 39.5912 420 39.9968 420C40.4024 420 40.7988 420.121 41.1357 420.346C41.4726 420.572 41.7347 420.893 41.8887 421.269L44.7324 428.154L52.1074 428.749C52.511 428.783 52.8954 428.935 53.2127 429.187C53.53 429.439 53.7659 429.778 53.891 430.163C54.016 430.549 54.0246 430.962 53.9157 431.352C53.8068 431.742 53.5852 432.091 53.2787 432.356L53.2862 432.355Z" fill="#E4E4E7"/>
<path d="M93.2862 432.355L87.6612 437.209L89.3749 444.467C89.4695 444.861 89.4451 445.275 89.305 445.655C89.1648 446.035 88.9151 446.365 88.5873 446.604C88.2596 446.842 87.8686 446.978 87.4637 446.994C87.0588 447.01 86.6582 446.906 86.3124 446.695L79.9999 442.81L73.6837 446.695C73.338 446.905 72.9378 447.008 72.5336 446.991C72.1294 446.974 71.7392 446.838 71.4122 446.6C71.0851 446.362 70.8359 446.032 70.6958 445.653C70.5557 445.273 70.5311 444.861 70.6249 444.467L72.3449 437.209L66.7199 432.355C66.414 432.09 66.1928 431.742 66.0839 431.353C65.975 430.963 65.9832 430.55 66.1074 430.166C66.2317 429.781 66.4666 429.441 66.7827 429.189C67.0988 428.937 67.4822 428.784 67.8849 428.749L75.2599 428.154L78.1049 421.269C78.2589 420.893 78.521 420.572 78.8579 420.346C79.1948 420.121 79.5912 420 79.9968 420C80.4024 420 80.7988 420.121 81.1357 420.346C81.4726 420.572 81.7347 420.893 81.8887 421.269L84.7324 428.154L92.1074 428.749C92.511 428.783 92.8954 428.935 93.2127 429.187C93.53 429.439 93.7659 429.778 93.891 430.163C94.016 430.549 94.0246 430.962 93.9157 431.352C93.8068 431.742 93.5852 432.091 93.2787 432.356L93.2862 432.355Z" fill="#E4E4E7"/>
<path d="M133.286 432.355L127.661 437.209L129.375 444.467C129.469 444.861 129.445 445.275 129.305 445.655C129.165 446.035 128.915 446.365 128.587 446.604C128.26 446.842 127.869 446.978 127.464 446.994C127.059 447.01 126.658 446.906 126.312 446.695L120 442.81L113.684 446.695C113.338 446.905 112.938 447.008 112.534 446.991C112.129 446.974 111.739 446.838 111.412 446.6C111.085 446.362 110.836 446.032 110.696 445.653C110.556 445.273 110.531 444.861 110.625 444.467L112.345 437.209L106.72 432.355C106.414 432.09 106.193 431.742 106.084 431.353C105.975 430.963 105.983 430.55 106.107 430.166C106.232 429.781 106.467 429.441 106.783 429.189C107.099 428.937 107.482 428.784 107.885 428.749L115.26 428.154L118.105 421.269C118.259 420.893 118.521 420.572 118.858 420.346C119.195 420.121 119.591 420 119.997 420C120.402 420 120.799 420.121 121.136 420.346C121.473 420.572 121.735 420.893 121.889 421.269L124.732 428.154L132.107 428.749C132.511 428.783 132.895 428.935 133.213 429.187C133.53 429.439 133.766 429.778 133.891 430.163C134.016 430.549 134.025 430.962 133.916 431.352C133.807 431.742 133.585 432.091 133.279 432.356L133.286 432.355Z" fill="#E4E4E7"/>
<path d="M173.286 432.355L167.661 437.209L169.375 444.467C169.469 444.861 169.445 445.275 169.305 445.655C169.165 446.035 168.915 446.365 168.587 446.604C168.26 446.842 167.869 446.978 167.464 446.994C167.059 447.01 166.658 446.906 166.312 446.695L160 442.81L153.684 446.695C153.338 446.905 152.938 447.008 152.534 446.991C152.129 446.974 151.739 446.838 151.412 446.6C151.085 446.362 150.836 446.032 150.696 445.653C150.556 445.273 150.531 444.861 150.625 444.467L152.345 437.209L146.72 432.355C146.414 432.09 146.193 431.742 146.084 431.353C145.975 430.963 145.983 430.55 146.107 430.166C146.232 429.781 146.467 429.441 146.783 429.189C147.099 428.937 147.482 428.784 147.885 428.749L155.26 428.154L158.105 421.269C158.259 420.893 158.521 420.572 158.858 420.346C159.195 420.121 159.591 420 159.997 420C160.402 420 160.799 420.121 161.136 420.346C161.473 420.572 161.735 420.893 161.889 421.269L164.732 428.154L172.107 428.749C172.511 428.783 172.895 428.935 173.213 429.187C173.53 429.439 173.766 429.778 173.891 430.163C174.016 430.549 174.025 430.962 173.916 431.352C173.807 431.742 173.585 432.091 173.279 432.356L173.286 432.355Z" fill="#E4E4E7"/>
<path d="M213.286 432.355L207.661 437.209L209.375 444.467C209.469 444.861 209.445 445.275 209.305 445.655C209.165 446.035 208.915 446.365 208.587 446.604C208.26 446.842 207.869 446.978 207.464 446.994C207.059 447.01 206.658 446.906 206.312 446.695L200 442.81L193.684 446.695C193.338 446.905 192.938 447.008 192.534 446.991C192.129 446.974 191.739 446.838 191.412 446.6C191.085 446.362 190.836 446.032 190.696 445.653C190.556 445.273 190.531 444.861 190.625 444.467L192.345 437.209L186.72 432.355C186.414 432.09 186.193 431.742 186.084 431.353C185.975 430.963 185.983 430.55 186.107 430.166C186.232 429.781 186.467 429.441 186.783 429.189C187.099 428.937 187.482 428.784 187.885 428.749L195.26 428.154L198.105 421.269C198.259 420.893 198.521 420.572 198.858 420.346C199.195 420.121 199.591 420 199.997 420C200.402 420 200.799 420.121 201.136 420.346C201.473 420.572 201.735 420.893 201.889 421.269L204.732 428.154L212.107 428.749C212.511 428.783 212.895 428.935 213.213 429.187C213.53 429.439 213.766 429.778 213.891 430.163C214.016 430.549 214.025 430.962 213.916 431.352C213.807 431.742 213.585 432.091 213.279 432.356L213.286 432.355Z" fill="#E4E4E7"/>
<path d="M25.4775 501V489.022H30.2588C32.6909 489.022 34.3345 490.624 34.3345 493.023V493.04C34.3345 495.43 32.6909 497.041 30.2588 497.041H27.6191V501H25.4775ZM29.7358 490.773H27.6191V495.314H29.7358C31.2715 495.314 32.168 494.484 32.168 493.048V493.031C32.168 491.595 31.2715 490.773 29.7358 490.773ZM40.1201 501.183C37.4224 501.183 35.7871 499.373 35.7871 496.484V496.476C35.7871 493.621 37.439 491.753 40.0205 491.753C42.6021 491.753 44.1958 493.562 44.1958 496.302V496.982H37.854C37.8789 498.609 38.7588 499.556 40.1616 499.556C41.2822 499.556 41.9214 498.991 42.1206 498.576L42.1455 498.518H44.1128L44.0879 498.593C43.7974 499.763 42.5854 501.183 40.1201 501.183ZM40.0454 493.372C38.8916 493.372 38.0283 494.152 37.8706 495.596H42.1787C42.0376 494.11 41.1992 493.372 40.0454 493.372ZM46.2627 501V491.927H48.3296V493.322H48.4707C48.7778 492.351 49.6079 491.778 50.8032 491.778C51.1187 491.778 51.4424 491.819 51.6416 491.877V493.729C51.3096 493.662 50.9692 493.612 50.6123 493.612C49.2344 493.612 48.3296 494.434 48.3296 495.729V501H46.2627ZM56.564 501.183C54.2563 501.183 52.8618 500.12 52.6875 498.584V498.568H54.7378L54.7461 498.584C54.9619 499.215 55.5679 499.655 56.5972 499.655C57.6265 499.655 58.3403 499.19 58.3403 498.51V498.493C58.3403 497.962 57.9419 497.613 56.9458 497.389L55.4766 497.057C53.75 496.675 52.9282 495.862 52.9282 494.525V494.517C52.9282 492.882 54.4224 491.753 56.564 491.753C58.772 491.753 60.0918 492.849 60.2246 494.318V494.334H58.2822L58.2739 494.31C58.1245 493.737 57.5269 493.272 56.5557 493.272C55.6343 493.272 54.9702 493.72 54.9702 494.401V494.409C54.9702 494.94 55.3521 495.264 56.3315 495.488L57.8008 495.812C59.5771 496.21 60.4155 496.966 60.4155 498.286V498.302C60.4155 500.029 58.7969 501.183 56.564 501.183ZM66.417 501.183C63.6943 501.183 62.0508 499.406 62.0508 496.468V496.451C62.0508 493.538 63.7192 491.753 66.417 491.753C69.123 491.753 70.7832 493.529 70.7832 496.451V496.468C70.7832 499.406 69.1313 501.183 66.417 501.183ZM66.417 499.506C67.853 499.506 68.6665 498.385 68.6665 496.476V496.459C68.6665 494.55 67.8447 493.421 66.417 493.421C64.981 493.421 64.1592 494.55 64.1592 496.459V496.476C64.1592 498.385 64.981 499.506 66.417 499.506ZM72.8584 501V491.927H74.9253V493.313H75.0664C75.498 492.342 76.3696 491.753 77.6812 491.753C79.7065 491.753 80.8105 492.973 80.8105 495.131V501H78.7437V495.613C78.7437 494.202 78.1709 493.488 76.9175 493.488C75.689 493.488 74.9253 494.351 74.9253 495.712V501H72.8584ZM85.7246 501.149C83.998 501.149 82.7446 500.087 82.7446 498.435V498.418C82.7446 496.8 83.9814 495.854 86.1895 495.721L88.522 495.58V494.799C88.522 493.895 87.9326 493.396 86.8203 493.396C85.874 493.396 85.2598 493.737 85.0522 494.334L85.0439 494.368H83.0933L83.1016 494.293C83.3008 492.766 84.7617 491.753 86.9199 491.753C89.2524 491.753 90.564 492.882 90.564 494.799V501H88.522V499.755H88.3809C87.8828 500.635 86.9199 501.149 85.7246 501.149ZM84.7866 498.335C84.7866 499.107 85.4424 499.564 86.3555 499.564C87.6006 499.564 88.522 498.75 88.522 497.671V496.941L86.48 497.074C85.3262 497.148 84.7866 497.572 84.7866 498.319V498.335ZM93.1289 501V488.416H95.1958V501H93.1289ZM102.343 501V491.927H104.41V493.313H104.551C104.982 492.342 105.854 491.753 107.166 491.753C109.191 491.753 110.295 492.973 110.295 495.131V501H108.228V495.613C108.228 494.202 107.655 493.488 106.402 493.488C105.173 493.488 104.41 494.351 104.41 495.712V501H102.343ZM116.653 501.183C113.931 501.183 112.287 499.406 112.287 496.468V496.451C112.287 493.538 113.956 491.753 116.653 491.753C119.359 491.753 121.02 493.529 121.02 496.451V496.468C121.02 499.406 119.368 501.183 116.653 501.183ZM116.653 499.506C118.089 499.506 118.903 498.385 118.903 496.476V496.459C118.903 494.55 118.081 493.421 116.653 493.421C115.217 493.421 114.396 494.55 114.396 496.459V496.476C114.396 498.385 115.217 499.506 116.653 499.506ZM126.664 501.042C124.581 501.042 123.726 500.344 123.726 498.593V493.529H122.314V491.927H123.726V489.703H125.826V491.927H127.743V493.529H125.826V498.103C125.826 499.008 126.183 499.39 127.046 499.39C127.336 499.39 127.494 499.381 127.743 499.356V500.95C127.444 501.008 127.062 501.042 126.664 501.042ZM133.604 501.183C130.906 501.183 129.271 499.373 129.271 496.484V496.476C129.271 493.621 130.922 491.753 133.504 491.753C136.085 491.753 137.679 493.562 137.679 496.302V496.982H131.337C131.362 498.609 132.242 499.556 133.645 499.556C134.766 499.556 135.405 498.991 135.604 498.576L135.629 498.518H137.596L137.571 498.593C137.281 499.763 136.069 501.183 133.604 501.183ZM133.529 493.372C132.375 493.372 131.512 494.152 131.354 495.596H135.662C135.521 494.11 134.683 493.372 133.529 493.372ZM143.174 501.183C140.867 501.183 139.472 500.12 139.298 498.584V498.568H141.348L141.356 498.584C141.572 499.215 142.178 499.655 143.208 499.655C144.237 499.655 144.951 499.19 144.951 498.51V498.493C144.951 497.962 144.552 497.613 143.556 497.389L142.087 497.057C140.36 496.675 139.539 495.862 139.539 494.525V494.517C139.539 492.882 141.033 491.753 143.174 491.753C145.382 491.753 146.702 492.849 146.835 494.318V494.334H144.893L144.884 494.31C144.735 493.737 144.137 493.272 143.166 493.272C142.245 493.272 141.581 493.72 141.581 494.401V494.409C141.581 494.94 141.962 495.264 142.942 495.488L144.411 495.812C146.188 496.21 147.026 496.966 147.026 498.286V498.302C147.026 500.029 145.407 501.183 143.174 501.183Z" fill="black"/>
<rect x="24.5" y="520.5" width="719" height="98" rx="7.5" stroke="#E4E4E7"/>
<path d="M45.4536 547.282C42.8306 547.282 41.1372 545.904 40.9629 543.954L40.9546 543.862H42.4487L42.457 543.954C42.5649 545.149 43.8101 545.904 45.5366 545.904C47.1636 545.904 48.3506 545.066 48.3506 543.846V543.837C48.3506 542.841 47.6616 542.161 46.0181 541.795L44.6899 541.505C42.291 540.974 41.2534 539.87 41.2534 538.135V538.126C41.2617 536.143 42.9966 534.74 45.4702 534.74C47.8608 534.74 49.5293 536.151 49.6538 537.936L49.6621 538.052H48.168L48.1514 537.944C47.9854 536.89 46.9893 536.109 45.4287 536.118C43.9346 536.126 42.7808 536.832 42.7808 538.085V538.093C42.7808 539.048 43.4365 539.695 45.0635 540.052L46.3916 540.351C48.8901 540.907 49.8779 541.912 49.8779 543.638V543.646C49.8779 545.888 48.1265 547.282 45.4536 547.282ZM52.2686 547V534.499H53.7129V539.396H53.8457C54.2939 538.45 55.1323 537.894 56.4521 537.894C58.4609 537.894 59.5815 539.081 59.5815 541.206V547H58.1372V541.555C58.1372 539.944 57.4731 539.172 56.0454 539.172C54.6177 539.172 53.7129 540.135 53.7129 541.704V547H52.2686ZM64.6533 547.158C62.9517 547.158 61.665 546.128 61.665 544.501V544.485C61.665 542.891 62.8438 541.97 64.9272 541.845L67.4922 541.688V540.874C67.4922 539.77 66.8198 539.172 65.4834 539.172C64.4126 539.172 63.707 539.571 63.4746 540.268L63.4663 540.293H62.022L62.0303 540.243C62.2627 538.84 63.624 537.894 65.5332 537.894C67.7163 537.894 68.9365 539.015 68.9365 540.874V547H67.4922V545.68H67.3594C66.7949 546.635 65.8569 547.158 64.6533 547.158ZM63.1426 544.468C63.1426 545.373 63.9146 545.904 64.9521 545.904C66.4214 545.904 67.4922 544.941 67.4922 543.663V542.85L65.1016 542.999C63.7402 543.082 63.1426 543.563 63.1426 544.452V544.468ZM71.5762 547V538.052H73.0205V539.38H73.1533C73.4937 538.442 74.332 537.894 75.5439 537.894C75.8179 537.894 76.125 537.927 76.2661 537.952V539.355C75.9673 539.305 75.6934 539.272 75.3779 539.272C74 539.272 73.0205 540.144 73.0205 541.455V547H71.5762ZM81.4541 547.158C78.8975 547.158 77.3535 545.365 77.3535 542.559V542.551C77.3535 539.787 78.9307 537.894 81.3628 537.894C83.7949 537.894 85.2725 539.704 85.2725 542.376V542.941H78.8311C78.8726 544.792 79.8936 545.871 81.4873 545.871C82.6992 545.871 83.4463 545.298 83.687 544.759L83.7202 544.684H85.1646L85.1479 544.75C84.8408 545.962 83.5625 547.158 81.4541 547.158ZM81.3545 539.181C80.0264 539.181 79.0137 540.085 78.856 541.787H83.8032C83.6538 540.019 82.6743 539.181 81.3545 539.181ZM93.0586 550.138C92.8677 550.138 92.6187 550.121 92.4194 550.088V548.901C92.5938 548.934 92.8179 548.942 93.0171 548.942C93.8389 548.942 94.3369 548.569 94.6606 547.54L94.8267 547.008L91.5146 538.052H93.0586L95.5156 545.415H95.6484L98.0972 538.052H99.6162L96.1216 547.548C95.3828 549.557 94.644 550.138 93.0586 550.138ZM104.871 547.158C102.322 547.158 100.745 545.398 100.745 542.534V542.518C100.745 539.646 102.322 537.894 104.871 537.894C107.419 537.894 108.996 539.646 108.996 542.518V542.534C108.996 545.398 107.419 547.158 104.871 547.158ZM104.871 545.879C106.564 545.879 107.519 544.643 107.519 542.534V542.518C107.519 540.401 106.564 539.172 104.871 539.172C103.177 539.172 102.223 540.401 102.223 542.518V542.534C102.223 544.643 103.177 545.879 104.871 545.879ZM114.234 547.158C112.2 547.158 111.154 545.962 111.154 543.846V538.052H112.599V543.497C112.599 545.107 113.18 545.879 114.607 545.879C116.185 545.879 117.023 544.917 117.023 543.348V538.052H118.467V547H117.023V545.664H116.89C116.45 546.618 115.545 547.158 114.234 547.158ZM121.165 547V538.052H122.609V539.38H122.742C123.083 538.442 123.921 537.894 125.133 537.894C125.407 537.894 125.714 537.927 125.855 537.952V539.355C125.556 539.305 125.282 539.272 124.967 539.272C123.589 539.272 122.609 540.144 122.609 541.455V547H121.165ZM135.6 547.066C133.757 547.066 132.985 546.386 132.985 544.676V539.247H131.574V538.052H132.985V535.736H134.479V538.052H136.438V539.247H134.479V544.311C134.479 545.365 134.845 545.788 135.774 545.788C136.032 545.788 136.173 545.78 136.438 545.755V546.983C136.156 547.033 135.882 547.066 135.6 547.066ZM138.68 547V534.499H140.124V539.396H140.257C140.705 538.45 141.543 537.894 142.863 537.894C144.872 537.894 145.993 539.081 145.993 541.206V547H144.548V541.555C144.548 539.944 143.884 539.172 142.457 539.172C141.029 539.172 140.124 540.135 140.124 541.704V547H138.68ZM152.285 547.158C149.736 547.158 148.159 545.398 148.159 542.534V542.518C148.159 539.646 149.736 537.894 152.285 537.894C154.833 537.894 156.41 539.646 156.41 542.518V542.534C156.41 545.398 154.833 547.158 152.285 547.158ZM152.285 545.879C153.978 545.879 154.933 544.643 154.933 542.534V542.518C154.933 540.401 153.978 539.172 152.285 539.172C150.591 539.172 149.637 540.401 149.637 542.518V542.534C149.637 544.643 150.591 545.879 152.285 545.879ZM161.648 547.158C159.614 547.158 158.568 545.962 158.568 543.846V538.052H160.013V543.497C160.013 545.107 160.594 545.879 162.021 545.879C163.599 545.879 164.437 544.917 164.437 543.348V538.052H165.881V547H164.437V545.664H164.304C163.864 546.618 162.959 547.158 161.648 547.158ZM172.265 550.154C170.106 550.154 168.729 549.183 168.504 547.714L168.521 547.706H170.015L170.023 547.714C170.181 548.395 170.978 548.876 172.265 548.876C173.867 548.876 174.821 548.121 174.821 546.801V544.991H174.688C174.124 545.979 173.111 546.535 171.883 546.535C169.567 546.535 168.131 544.742 168.131 542.235V542.219C168.131 539.712 169.575 537.894 171.916 537.894C173.178 537.894 174.157 538.517 174.705 539.529H174.805V538.052H176.249V546.875C176.249 548.876 174.705 550.154 172.265 550.154ZM172.198 545.257C173.858 545.257 174.854 544.012 174.854 542.235V542.219C174.854 540.442 173.85 539.172 172.198 539.172C170.538 539.172 169.608 540.442 169.608 542.219V542.235C169.608 544.012 170.538 545.257 172.198 545.257ZM179.021 547V534.499H180.466V539.396H180.599C181.047 538.45 181.885 537.894 183.205 537.894C185.214 537.894 186.334 539.081 186.334 541.206V547H184.89V541.555C184.89 539.944 184.226 539.172 182.798 539.172C181.371 539.172 180.466 540.135 180.466 541.704V547H179.021ZM192.128 547.066C190.286 547.066 189.514 546.386 189.514 544.676V539.247H188.103V538.052H189.514V535.736H191.008V538.052H192.967V539.247H191.008V544.311C191.008 545.365 191.373 545.788 192.303 545.788C192.56 545.788 192.701 545.78 192.967 545.755V546.983C192.685 547.033 192.411 547.066 192.128 547.066ZM198.03 547.158C196.038 547.158 194.668 546.195 194.502 544.717H195.98C196.221 545.464 196.935 545.954 198.08 545.954C199.284 545.954 200.139 545.381 200.139 544.568V544.551C200.139 543.945 199.682 543.522 198.578 543.256L197.192 542.924C195.515 542.526 194.76 541.795 194.76 540.509V540.5C194.76 539.015 196.188 537.894 198.088 537.894C199.964 537.894 201.268 538.832 201.467 540.293H200.047C199.856 539.587 199.159 539.098 198.08 539.098C197.018 539.098 196.237 539.646 196.237 540.434V540.451C196.237 541.057 196.686 541.438 197.74 541.696L199.118 542.028C200.803 542.435 201.616 543.165 201.616 544.443V544.46C201.616 546.054 200.064 547.158 198.03 547.158ZM212.316 547.158C209.768 547.158 208.19 545.398 208.19 542.534V542.518C208.19 539.646 209.768 537.894 212.316 537.894C214.864 537.894 216.441 539.646 216.441 542.518V542.534C216.441 545.398 214.864 547.158 212.316 547.158ZM212.316 545.879C214.009 545.879 214.964 544.643 214.964 542.534V542.518C214.964 540.401 214.009 539.172 212.316 539.172C210.623 539.172 209.668 540.401 209.668 542.518V542.534C209.668 544.643 210.623 545.879 212.316 545.879ZM218.683 547V538.052H220.127V539.38H220.26C220.6 538.442 221.438 537.894 222.65 537.894C222.924 537.894 223.231 537.927 223.373 537.952V539.355C223.074 539.305 222.8 539.272 222.484 539.272C221.106 539.272 220.127 540.144 220.127 541.455V547H218.683ZM229.938 547V538.052H231.383V539.38H231.516C231.856 538.442 232.694 537.894 233.906 537.894C234.18 537.894 234.487 537.927 234.628 537.952V539.355C234.33 539.305 234.056 539.272 233.74 539.272C232.362 539.272 231.383 540.144 231.383 541.455V547H229.938ZM239.816 547.158C237.26 547.158 235.716 545.365 235.716 542.559V542.551C235.716 539.787 237.293 537.894 239.725 537.894C242.157 537.894 243.635 539.704 243.635 542.376V542.941H237.193C237.235 544.792 238.256 545.871 239.85 545.871C241.062 545.871 241.809 545.298 242.049 544.759L242.083 544.684H243.527L243.51 544.75C243.203 545.962 241.925 547.158 239.816 547.158ZM239.717 539.181C238.389 539.181 237.376 540.085 237.218 541.787H242.166C242.016 540.019 241.037 539.181 239.717 539.181ZM249.537 547.158C247.03 547.158 245.428 545.34 245.428 542.501V542.484C245.428 539.704 247.021 537.894 249.528 537.894C251.703 537.894 253.006 539.147 253.272 540.741L253.28 540.791H251.844L251.836 540.766C251.612 539.886 250.815 539.172 249.528 539.172C247.918 539.172 246.905 540.467 246.905 542.484V542.501C246.905 544.56 247.935 545.879 249.528 545.879C250.732 545.879 251.496 545.348 251.828 544.352L251.844 544.302L253.272 544.294L253.255 544.385C252.89 546.004 251.687 547.158 249.537 547.158ZM259.066 547.158C256.518 547.158 254.94 545.398 254.94 542.534V542.518C254.94 539.646 256.518 537.894 259.066 537.894C261.614 537.894 263.191 539.646 263.191 542.518V542.534C263.191 545.398 261.614 547.158 259.066 547.158ZM259.066 545.879C260.759 545.879 261.714 544.643 261.714 542.534V542.518C261.714 540.401 260.759 539.172 259.066 539.172C257.373 539.172 256.418 540.401 256.418 542.518V542.534C256.418 544.643 257.373 545.879 259.066 545.879ZM265.433 547V538.052H266.877V539.413H267.01C267.408 538.45 268.255 537.894 269.425 537.894C270.637 537.894 271.484 538.533 271.899 539.463H272.032C272.513 538.517 273.534 537.894 274.771 537.894C276.597 537.894 277.618 538.94 277.618 540.816V547H276.174V541.148C276.174 539.828 275.568 539.172 274.306 539.172C273.061 539.172 272.239 540.11 272.239 541.248V547H270.795V540.924C270.795 539.861 270.064 539.172 268.936 539.172C267.765 539.172 266.877 540.193 266.877 541.455V547H265.433ZM280.225 547V538.052H281.669V539.413H281.802C282.2 538.45 283.047 537.894 284.217 537.894C285.429 537.894 286.276 538.533 286.691 539.463H286.824C287.305 538.517 288.326 537.894 289.563 537.894C291.389 537.894 292.41 538.94 292.41 540.816V547H290.966V541.148C290.966 539.828 290.36 539.172 289.098 539.172C287.853 539.172 287.031 540.11 287.031 541.248V547H285.587V540.924C285.587 539.861 284.856 539.172 283.728 539.172C282.557 539.172 281.669 540.193 281.669 541.455V547H280.225ZM298.669 547.158C296.112 547.158 294.568 545.365 294.568 542.559V542.551C294.568 539.787 296.146 537.894 298.578 537.894C301.01 537.894 302.487 539.704 302.487 542.376V542.941H296.046C296.087 544.792 297.108 545.871 298.702 545.871C299.914 545.871 300.661 545.298 300.902 544.759L300.935 544.684H302.379L302.363 544.75C302.056 545.962 300.777 547.158 298.669 547.158ZM298.569 539.181C297.241 539.181 296.229 540.085 296.071 541.787H301.018C300.869 540.019 299.889 539.181 298.569 539.181ZM304.729 547V538.052H306.173V539.396H306.306C306.754 538.45 307.592 537.894 308.912 537.894C310.921 537.894 312.042 539.081 312.042 541.206V547H310.597V541.555C310.597 539.944 309.933 539.172 308.505 539.172C307.078 539.172 306.173 540.135 306.173 541.704V547H304.729ZM317.96 547.158C315.694 547.158 314.208 545.323 314.208 542.534V542.518C314.208 539.712 315.686 537.894 317.96 537.894C319.188 537.894 320.259 538.508 320.749 539.463H320.882V534.499H322.326V547H320.882V545.572H320.749C320.201 546.568 319.205 547.158 317.96 547.158ZM318.292 545.879C319.919 545.879 320.915 544.601 320.915 542.534V542.518C320.915 540.451 319.919 539.172 318.292 539.172C316.657 539.172 315.686 540.434 315.686 542.518V542.534C315.686 544.618 316.657 545.879 318.292 545.879ZM327.556 547.158C325.854 547.158 324.567 546.128 324.567 544.501V544.485C324.567 542.891 325.746 541.97 327.83 541.845L330.395 541.688V540.874C330.395 539.77 329.722 539.172 328.386 539.172C327.315 539.172 326.609 539.571 326.377 540.268L326.369 540.293H324.924L324.933 540.243C325.165 538.84 326.526 537.894 328.436 537.894C330.619 537.894 331.839 539.015 331.839 540.874V547H330.395V545.68H330.262C329.697 546.635 328.759 547.158 327.556 547.158ZM326.045 544.468C326.045 545.373 326.817 545.904 327.854 545.904C329.324 545.904 330.395 544.941 330.395 543.663V542.85L328.004 542.999C326.643 543.082 326.045 543.563 326.045 544.452V544.468ZM337.658 547.066C335.815 547.066 335.043 546.386 335.043 544.676V539.247H333.632V538.052H335.043V535.736H336.537V538.052H338.496V539.247H336.537V544.311C336.537 545.365 336.902 545.788 337.832 545.788C338.089 545.788 338.23 545.78 338.496 545.755V546.983C338.214 547.033 337.94 547.066 337.658 547.066ZM341.418 536.325C340.87 536.325 340.422 535.877 340.422 535.329C340.422 534.781 340.87 534.333 341.418 534.333C341.966 534.333 342.414 534.781 342.414 535.329C342.414 535.877 341.966 536.325 341.418 536.325ZM340.688 547V538.052H342.132V547H340.688ZM348.532 547.158C345.983 547.158 344.406 545.398 344.406 542.534V542.518C344.406 539.646 345.983 537.894 348.532 537.894C351.08 537.894 352.657 539.646 352.657 542.518V542.534C352.657 545.398 351.08 547.158 348.532 547.158ZM348.532 545.879C350.225 545.879 351.18 544.643 351.18 542.534V542.518C351.18 540.401 350.225 539.172 348.532 539.172C346.838 539.172 345.884 540.401 345.884 542.518V542.534C345.884 544.643 346.838 545.879 348.532 545.879ZM354.898 547V538.052H356.343V539.396H356.476C356.924 538.45 357.762 537.894 359.082 537.894C361.091 537.894 362.211 539.081 362.211 541.206V547H360.767V541.555C360.767 539.944 360.103 539.172 358.675 539.172C357.248 539.172 356.343 540.135 356.343 541.704V547H354.898ZM367.897 547.158C365.905 547.158 364.536 546.195 364.37 544.717H365.847C366.088 545.464 366.802 545.954 367.947 545.954C369.151 545.954 370.006 545.381 370.006 544.568V544.551C370.006 543.945 369.549 543.522 368.445 543.256L367.059 542.924C365.382 542.526 364.627 541.795 364.627 540.509V540.5C364.627 539.015 366.055 537.894 367.956 537.894C369.832 537.894 371.135 538.832 371.334 540.293H369.915C369.724 539.587 369.026 539.098 367.947 539.098C366.885 539.098 366.104 539.646 366.104 540.434V540.451C366.104 541.057 366.553 541.438 367.607 541.696L368.985 542.028C370.67 542.435 371.483 543.165 371.483 544.443V544.46C371.483 546.054 369.931 547.158 367.897 547.158Z" fill="#8E8E93"/>
<rect x="24.5" y="627.5" width="122" height="39" rx="7.5" fill="#FAFAFA"/>
<rect x="24.5" y="627.5" width="122" height="39" rx="7.5" stroke="#E4E4E7"/>
<path d="M49.9478 653H48.5283L50.9604 641.022H52.3799L51.6245 644.749L51.5581 644.882L50.7446 648.924L50.7529 649.049L49.9478 653ZM53.8823 653H52.4546L53.2598 649.049L53.3262 648.924L54.1396 644.882L54.1313 644.749L54.8867 641.022H56.3145L53.8823 653ZM56.6631 649.746H47.2666L47.5405 648.335H50.0225L50.1968 648.376H53.9653L54.1313 648.335H56.937L56.6631 649.746ZM57.4351 645.562H54.6958L54.5215 645.521H50.7612L50.5869 645.562H48.022L48.3042 644.151H57.709L57.4351 645.562ZM59.3525 653V640.449H61.1538V645.347H61.2949C61.5163 644.865 61.8428 644.489 62.2744 644.218C62.7061 643.947 63.2511 643.811 63.9097 643.811C64.5793 643.811 65.1465 643.941 65.6113 644.201C66.0762 644.461 66.4303 644.843 66.6738 645.347C66.9173 645.845 67.0391 646.451 67.0391 647.165V653H65.2295V647.588C65.2295 646.835 65.0718 646.276 64.7563 645.911C64.4465 645.54 63.9595 645.355 63.2954 645.355C62.8582 645.355 62.4792 645.452 62.1582 645.646C61.8372 645.834 61.5882 646.105 61.4111 646.459C61.2396 646.808 61.1538 647.225 61.1538 647.712V653H59.3525ZM72.0195 653.149C71.4495 653.149 70.9377 653.042 70.4839 652.826C70.0356 652.604 69.6815 652.292 69.4214 651.888C69.1613 651.484 69.0312 651.011 69.0312 650.468V650.452C69.0312 649.644 69.3218 649.013 69.9028 648.559C70.4894 648.1 71.3195 647.837 72.3931 647.771L75.7217 647.571V648.841L72.6421 649.041C72.0223 649.079 71.5658 649.212 71.2725 649.439C70.9792 649.66 70.8325 649.973 70.8325 650.377V650.394C70.8325 650.803 70.9902 651.127 71.3057 651.365C71.6211 651.597 72.0195 651.713 72.501 651.713C72.9492 651.713 73.3477 651.625 73.6963 651.448C74.0505 651.265 74.3271 651.022 74.5264 650.717C74.7256 650.407 74.8252 650.059 74.8252 649.671V646.833C74.8252 646.334 74.6702 645.955 74.3604 645.695C74.056 645.43 73.6022 645.297 72.999 645.297C72.4954 645.297 72.0832 645.385 71.7622 645.562C71.4468 645.74 71.2365 645.989 71.1313 646.31L71.1147 646.334H69.3799L69.3882 646.276C69.4601 645.778 69.6566 645.347 69.9775 644.981C70.304 644.611 70.7301 644.323 71.2559 644.118C71.7871 643.913 72.3931 643.811 73.0737 643.811C73.8319 643.811 74.4738 643.933 74.9995 644.176C75.5308 644.414 75.932 644.76 76.2031 645.214C76.4798 645.662 76.6182 646.202 76.6182 646.833V653H74.8252V651.722H74.6924C74.5153 652.026 74.2939 652.286 74.0283 652.502C73.7627 652.712 73.4611 652.873 73.1235 652.983C72.786 653.094 72.418 653.149 72.0195 653.149ZM82.437 653.174C81.7121 653.174 81.0812 653.069 80.5444 652.859C80.0076 652.643 79.5815 652.347 79.2661 651.971C78.9507 651.589 78.7653 651.146 78.71 650.643V650.626H80.5195V650.643C80.6357 650.98 80.8571 651.254 81.1836 651.464C81.5101 651.675 81.9417 651.78 82.4785 651.78C82.8493 651.78 83.173 651.727 83.4497 651.622C83.7319 651.517 83.9533 651.37 84.1138 651.182C84.2743 650.994 84.3545 650.778 84.3545 650.535V650.518C84.3545 650.236 84.241 649.998 84.0142 649.804C83.7873 649.611 83.4137 649.453 82.8936 649.331L81.4492 648.999C80.6025 648.805 79.9744 648.509 79.5649 648.111C79.161 647.707 78.959 647.176 78.959 646.517V646.509C78.959 645.983 79.1084 645.518 79.4072 645.114C79.7061 644.705 80.1183 644.387 80.644 644.16C81.1753 643.927 81.7812 643.811 82.4619 643.811C83.1481 643.811 83.7458 643.919 84.2549 644.135C84.7695 644.345 85.1763 644.638 85.4751 645.015C85.7739 645.385 85.951 645.817 86.0063 646.31V646.318H84.2798V646.301C84.1968 645.986 83.9976 645.723 83.6821 645.513C83.3722 645.302 82.9627 645.197 82.4536 645.197C82.1271 645.197 81.8366 645.25 81.582 645.355C81.3275 645.455 81.1255 645.596 80.9761 645.778C80.8322 645.955 80.7603 646.166 80.7603 646.409V646.426C80.7603 646.708 80.8709 646.94 81.0923 647.123C81.3136 647.306 81.6761 647.458 82.1797 647.58L83.6157 647.903C84.479 648.108 85.1209 648.404 85.5415 648.792C85.9676 649.179 86.1807 649.699 86.1807 650.352V650.369C86.1807 650.922 86.0174 651.412 85.6909 651.838C85.3644 652.258 84.9189 652.588 84.3545 652.826C83.7956 653.058 83.1564 653.174 82.437 653.174ZM88.4053 653V640.449H90.2065V645.347H90.3477C90.569 644.865 90.8955 644.489 91.3271 644.218C91.7588 643.947 92.3039 643.811 92.9624 643.811C93.632 643.811 94.1992 643.941 94.6641 644.201C95.1289 644.461 95.4831 644.843 95.7266 645.347C95.9701 645.845 96.0918 646.451 96.0918 647.165V653H94.2822V647.588C94.2822 646.835 94.1245 646.276 93.8091 645.911C93.4992 645.54 93.0122 645.355 92.3481 645.355C91.911 645.355 91.5319 645.452 91.2109 645.646C90.89 645.834 90.641 646.105 90.4639 646.459C90.2923 646.808 90.2065 647.225 90.2065 647.712V653H88.4053ZM102.002 653.058C101.017 653.058 100.303 652.87 99.8604 652.494C99.4232 652.112 99.2046 651.489 99.2046 650.626V645.405H97.7935V643.985H99.2046V641.711H101.047V643.985H102.981V645.405H101.047V650.186C101.047 650.673 101.144 651.024 101.338 651.24C101.532 651.451 101.853 651.556 102.301 651.556C102.434 651.556 102.547 651.553 102.641 651.547C102.741 651.542 102.854 651.534 102.981 651.522V652.967C102.838 652.989 102.683 653.008 102.517 653.025C102.351 653.047 102.179 653.058 102.002 653.058ZM107.563 653.149C106.993 653.149 106.482 653.042 106.028 652.826C105.58 652.604 105.225 652.292 104.965 651.888C104.705 651.484 104.575 651.011 104.575 650.468V650.452C104.575 649.644 104.866 649.013 105.447 648.559C106.033 648.1 106.863 647.837 107.937 647.771L111.266 647.571V648.841L108.186 649.041C107.566 649.079 107.11 649.212 106.816 649.439C106.523 649.66 106.376 649.973 106.376 650.377V650.394C106.376 650.803 106.534 651.127 106.85 651.365C107.165 651.597 107.563 651.713 108.045 651.713C108.493 651.713 108.892 651.625 109.24 651.448C109.594 651.265 109.871 651.022 110.07 650.717C110.27 650.407 110.369 650.059 110.369 649.671V646.833C110.369 646.334 110.214 645.955 109.904 645.695C109.6 645.43 109.146 645.297 108.543 645.297C108.039 645.297 107.627 645.385 107.306 645.562C106.991 645.74 106.78 645.989 106.675 646.31L106.659 646.334H104.924L104.932 646.276C105.004 645.778 105.201 645.347 105.521 644.981C105.848 644.611 106.274 644.323 106.8 644.118C107.331 643.913 107.937 643.811 108.618 643.811C109.376 643.811 110.018 643.933 110.543 644.176C111.075 644.414 111.476 644.76 111.747 645.214C112.024 645.662 112.162 646.202 112.162 646.833V653H110.369V651.722H110.236C110.059 652.026 109.838 652.286 109.572 652.502C109.307 652.712 109.005 652.873 108.667 652.983C108.33 653.094 107.962 653.149 107.563 653.149ZM118.512 656.179C117.749 656.179 117.084 656.074 116.52 655.864C115.961 655.653 115.518 655.36 115.192 654.984C114.865 654.608 114.666 654.17 114.594 653.672L114.603 653.656H116.429L116.437 653.672C116.514 653.982 116.733 654.237 117.093 654.436C117.452 654.635 117.934 654.735 118.537 654.735C119.279 654.735 119.857 654.566 120.272 654.229C120.693 653.891 120.903 653.418 120.903 652.809V651.041H120.762C120.585 651.362 120.358 651.639 120.081 651.871C119.804 652.098 119.489 652.27 119.135 652.386C118.781 652.502 118.396 652.56 117.981 652.56C117.217 652.56 116.553 652.377 115.989 652.012C115.43 651.641 114.998 651.132 114.694 650.485C114.395 649.832 114.246 649.082 114.246 648.235V648.219C114.246 647.361 114.398 646.603 114.702 645.944C115.007 645.28 115.441 644.763 116.005 644.392C116.57 644.016 117.242 643.828 118.022 643.828C118.443 643.828 118.828 643.894 119.176 644.027C119.53 644.16 119.843 644.348 120.114 644.591C120.385 644.835 120.61 645.125 120.787 645.463H120.895V643.985H122.696V652.817C122.696 653.498 122.524 654.09 122.181 654.594C121.844 655.097 121.362 655.487 120.737 655.764C120.111 656.041 119.37 656.179 118.512 656.179ZM118.487 651.066C118.996 651.066 119.434 650.947 119.799 650.709C120.164 650.465 120.444 650.131 120.637 649.705C120.836 649.278 120.936 648.786 120.936 648.227V648.21C120.936 647.657 120.836 647.165 120.637 646.733C120.444 646.301 120.164 645.964 119.799 645.72C119.434 645.477 118.996 645.355 118.487 645.355C117.978 645.355 117.544 645.477 117.184 645.72C116.83 645.964 116.559 646.301 116.371 646.733C116.182 647.159 116.088 647.652 116.088 648.21V648.227C116.088 648.786 116.182 649.278 116.371 649.705C116.559 650.131 116.83 650.465 117.184 650.709C117.544 650.947 117.978 651.066 118.487 651.066Z" fill="#1C1C1E"/>
<rect x="157.5" y="627.5" width="122" height="39" rx="7.5" fill="#FAFAFA"/>
<rect x="157.5" y="627.5" width="122" height="39" rx="7.5" stroke="#E4E4E7"/>
<path d="M185.538 654.893C184.464 654.893 183.493 654.732 182.624 654.411C181.755 654.09 181.014 653.625 180.399 653.017C179.785 652.408 179.312 651.68 178.98 650.833C178.648 649.981 178.482 649.029 178.482 647.978V647.961C178.482 646.938 178.648 646.002 178.98 645.156C179.312 644.309 179.785 643.579 180.399 642.964C181.014 642.35 181.744 641.877 182.591 641.545C183.438 641.213 184.373 641.047 185.396 641.047C186.714 641.047 187.873 641.307 188.875 641.827C189.876 642.342 190.659 643.058 191.224 643.977C191.788 644.896 192.07 645.958 192.07 647.165V647.181C192.07 648.072 191.94 648.847 191.68 649.505C191.426 650.158 191.06 650.665 190.584 651.024C190.109 651.379 189.547 651.556 188.899 651.556C188.407 651.556 187.989 651.437 187.646 651.199C187.308 650.961 187.101 650.643 187.023 650.244L187.015 650.194H186.874C186.702 650.615 186.44 650.939 186.085 651.166C185.737 651.387 185.319 651.498 184.832 651.498C184.257 651.498 183.75 651.351 183.313 651.058C182.881 650.759 182.547 650.349 182.309 649.829C182.071 649.303 181.952 648.689 181.952 647.986V647.97C181.952 647.3 182.071 646.711 182.309 646.202C182.552 645.687 182.887 645.286 183.313 644.998C183.745 644.71 184.24 644.566 184.799 644.566C185.242 644.566 185.634 644.672 185.978 644.882C186.326 645.087 186.581 645.372 186.741 645.737H186.882V644.732H188.293V649.447C188.293 649.735 188.371 649.962 188.526 650.128C188.681 650.288 188.897 650.369 189.173 650.369C189.666 650.369 190.053 650.084 190.335 649.514C190.623 648.944 190.767 648.18 190.767 647.223V647.206C190.767 646.204 190.537 645.327 190.078 644.575C189.624 643.822 188.988 643.238 188.169 642.823C187.35 642.403 186.395 642.192 185.305 642.192C184.497 642.192 183.756 642.336 183.081 642.624C182.411 642.906 181.827 643.307 181.329 643.828C180.837 644.348 180.455 644.962 180.184 645.67C179.918 646.379 179.785 647.159 179.785 648.011V648.028C179.785 649.184 180.023 650.192 180.499 651.049C180.975 651.902 181.647 652.56 182.516 653.025C183.385 653.495 184.411 653.73 185.596 653.73C186.121 653.73 186.622 653.697 187.098 653.631C187.574 653.57 187.937 653.484 188.186 653.374V654.527C187.438 654.771 186.556 654.893 185.538 654.893ZM185.098 650.194C185.623 650.194 186.041 649.998 186.351 649.605C186.661 649.212 186.816 648.686 186.816 648.028V648.011C186.816 647.342 186.661 646.813 186.351 646.426C186.047 646.038 185.634 645.845 185.114 645.845C184.771 645.845 184.478 645.931 184.234 646.102C183.991 646.274 183.803 646.523 183.67 646.849C183.543 647.17 183.479 647.557 183.479 648.011V648.028C183.479 648.471 183.543 648.858 183.67 649.19C183.803 649.516 183.991 649.765 184.234 649.937C184.478 650.109 184.766 650.194 185.098 650.194ZM194.312 653V643.985H196.113V645.372H196.254C196.453 644.874 196.763 644.489 197.184 644.218C197.61 643.947 198.119 643.811 198.711 643.811C199.12 643.811 199.488 643.877 199.815 644.01C200.141 644.143 200.421 644.331 200.653 644.575C200.891 644.813 201.077 645.095 201.209 645.421H201.351C201.5 645.095 201.71 644.813 201.981 644.575C202.253 644.331 202.568 644.143 202.928 644.01C203.293 643.877 203.68 643.811 204.09 643.811C204.699 643.811 205.219 643.93 205.65 644.168C206.082 644.4 206.411 644.738 206.638 645.181C206.865 645.623 206.979 646.157 206.979 646.783V653H205.177V647.214C205.177 646.595 205.033 646.13 204.746 645.82C204.463 645.51 204.029 645.355 203.442 645.355C203.061 645.355 202.726 645.444 202.438 645.621C202.156 645.792 201.934 646.025 201.774 646.318C201.619 646.606 201.542 646.932 201.542 647.297V653H199.74V647.032C199.74 646.517 199.583 646.11 199.267 645.812C198.957 645.507 198.537 645.355 198.005 645.355C197.646 645.355 197.322 645.449 197.034 645.637C196.752 645.825 196.528 646.08 196.362 646.401C196.196 646.716 196.113 647.07 196.113 647.463V653H194.312ZM213.287 653.174C212.407 653.174 211.652 652.986 211.021 652.61C210.39 652.228 209.903 651.688 209.56 650.991C209.222 650.294 209.054 649.469 209.054 648.518V648.509C209.054 647.569 209.222 646.747 209.56 646.044C209.903 645.341 210.385 644.793 211.004 644.4C211.63 644.007 212.36 643.811 213.196 643.811C214.037 643.811 214.759 643.999 215.362 644.375C215.971 644.752 216.439 645.28 216.765 645.961C217.092 646.636 217.255 647.427 217.255 648.335V648.966H209.967V647.679H216.358L215.495 648.875V648.152C215.495 647.51 215.396 646.979 215.196 646.559C215.003 646.132 214.734 645.814 214.391 645.604C214.048 645.394 213.652 645.289 213.204 645.289C212.756 645.289 212.355 645.399 212 645.621C211.652 645.836 211.375 646.157 211.17 646.583C210.971 647.01 210.872 647.533 210.872 648.152V648.875C210.872 649.467 210.971 649.973 211.17 650.394C211.37 650.814 211.652 651.135 212.017 651.356C212.388 651.578 212.825 651.688 213.329 651.688C213.716 651.688 214.048 651.636 214.325 651.531C214.607 651.42 214.837 651.285 215.014 651.124C215.196 650.964 215.321 650.806 215.387 650.651L215.42 650.584H217.164L217.147 650.659C217.069 650.958 216.934 651.257 216.74 651.556C216.547 651.849 216.289 652.117 215.968 652.361C215.653 652.604 215.271 652.801 214.823 652.95C214.38 653.1 213.868 653.174 213.287 653.174ZM219.396 653V643.985H221.198V645.347H221.339C221.56 644.865 221.887 644.489 222.318 644.218C222.75 643.947 223.295 643.811 223.954 643.811C224.966 643.811 225.741 644.102 226.278 644.683C226.815 645.264 227.083 646.091 227.083 647.165V653H225.273V647.588C225.273 646.835 225.116 646.276 224.8 645.911C224.49 645.54 224.003 645.355 223.339 645.355C222.902 645.355 222.523 645.452 222.202 645.646C221.881 645.834 221.632 646.105 221.455 646.459C221.284 646.808 221.198 647.225 221.198 647.712V653H219.396ZM232.993 653.058C232.008 653.058 231.294 652.87 230.852 652.494C230.414 652.112 230.196 651.489 230.196 650.626V645.405H228.785V643.985H230.196V641.711H232.039V643.985H233.973V645.405H232.039V650.186C232.039 650.673 232.135 651.024 232.329 651.24C232.523 651.451 232.844 651.556 233.292 651.556C233.425 651.556 233.538 651.553 233.632 651.547C233.732 651.542 233.845 651.534 233.973 651.522V652.967C233.829 652.989 233.674 653.008 233.508 653.025C233.342 653.047 233.17 653.058 232.993 653.058ZM236.106 653V643.985H237.916V653H236.106ZM237.019 642.375C236.709 642.375 236.444 642.264 236.222 642.043C236.001 641.822 235.89 641.556 235.89 641.246C235.89 640.936 236.001 640.673 236.222 640.458C236.444 640.236 236.709 640.125 237.019 640.125C237.329 640.125 237.595 640.236 237.816 640.458C238.037 640.673 238.148 640.936 238.148 641.246C238.148 641.556 238.037 641.822 237.816 642.043C237.595 642.264 237.329 642.375 237.019 642.375ZM244.349 653.174C243.469 653.174 242.708 652.986 242.066 652.61C241.43 652.234 240.94 651.697 240.597 651C240.254 650.297 240.082 649.464 240.082 648.501V648.484C240.082 647.516 240.254 646.683 240.597 645.986C240.945 645.289 241.438 644.752 242.074 644.375C242.716 643.999 243.474 643.811 244.349 643.811C245.229 643.811 245.987 643.999 246.623 644.375C247.259 644.746 247.749 645.283 248.092 645.986C248.441 646.683 248.615 647.516 248.615 648.484V648.501C248.615 649.464 248.441 650.297 248.092 651C247.749 651.697 247.259 652.234 246.623 652.61C245.992 652.986 245.234 653.174 244.349 653.174ZM244.349 651.664C244.863 651.664 245.3 651.539 245.66 651.29C246.02 651.035 246.294 650.673 246.482 650.203C246.67 649.732 246.764 649.165 246.764 648.501V648.484C246.764 647.815 246.67 647.245 246.482 646.774C246.294 646.304 246.02 645.944 245.66 645.695C245.3 645.441 244.863 645.313 244.349 645.313C243.834 645.313 243.397 645.441 243.037 645.695C242.677 645.944 242.401 646.304 242.207 646.774C242.019 647.245 241.925 647.815 241.925 648.484V648.501C241.925 649.165 242.019 649.732 242.207 650.203C242.401 650.673 242.677 651.035 243.037 651.29C243.397 651.539 243.834 651.664 244.349 651.664ZM250.757 653V643.985H252.558V645.347H252.699C252.921 644.865 253.247 644.489 253.679 644.218C254.11 643.947 254.655 643.811 255.314 643.811C256.327 643.811 257.101 644.102 257.638 644.683C258.175 645.264 258.443 646.091 258.443 647.165V653H256.634V647.588C256.634 646.835 256.476 646.276 256.161 645.911C255.851 645.54 255.364 645.355 254.7 645.355C254.263 645.355 253.883 645.452 253.562 645.646C253.242 645.834 252.993 646.105 252.815 646.459C252.644 646.808 252.558 647.225 252.558 647.712V653H250.757Z" fill="#1C1C1E"/>
</svg>
